999
dxfrw 0.5.13
0
SECTION
2
HEADER
9
$ACADVER
1
AC1009
9
$DWGCODEPAGE
3
ANSI_1252
9
$INSBASE
10
0
20
0
30
0
9
$EXTMIN
10
-703.117678295
20
263.357339021
30
0
9
$EXTMAX
10
-353.117678295
20
1048.8788657
30
0
9
$LIMMIN
10
0
20
0
9
$LIMMAX
10
12
20
9
9
$ORTHOMODE
70
0
9
$LTSCALE
40
1
9
$TEXTSTYLE
7
STANDARD
9
$CLAYER
8
1_6MMTOOL_FULLCUT_CUT OUTSIDE LINE
9
$DIMASZ
40
0.18
9
$DIMLFAC
40
1
9
$DIMSCALE
40
1
9
$DIMEXO
40
0.0625
9
$DIMEXE
40
0.18
9
$DIMTXT
40
0.18
9
$DIMTSZ
40
0
9
$DIMUNIT
70
2
9
$DIMSTYLE
2
STANDARD
9
$DIMGAP
40
0.09
9
$DIMTIH
70
1
9
$LUNITS
70
2
9
$LUPREC
70
4
9
$AUNITS
70
0
9
$AUPREC
70
0
9
$GRIDMODE
70
0
9
$SNAPSTYLE
70
0
9
$PLIMMIN
10
0
20
0
9
$PLIMMAX
10
12
20
9
0
ENDSEC
0
SECTION
2
CLASSES
0
ENDSEC
0
SECTION
2
TABLES
0
TABLE
2
VPORT
70
1
0
VPORT
2
*ACTIVE
70
0
10
0
20
0
11
1
21
1
12
396.157613845
22
607.032209328
13
0
23
0
14
10
24
10
15
10
25
10
16
0
26
0
36
1
17
0
27
0
37
0
40
1324.62003182
41
1.99845440495
42
50
43
0
44
0
50
0
51
0
71
0
72
100
73
1
74
3
75
0
76
0
77
0
78
0
0
ENDTAB
0
TABLE
2
LTYPE
70
4
0
LTYPE
2
BYBLOCK
70
0
3

72
65
73
0
40
0
0
LTYPE
2
BYLAYER
70
0
3

72
65
73
0
40
0
0
LTYPE
2
CONTINUOUS
70
0
3
Solid line
72
65
73
0
40
0
0
LTYPE
2
DOT
70
0
3
Dot . . . . . . . . . . . . . . . . . . . . . .
72
65
73
2
40
6.35
49
0
49
-6.35
0
LTYPE
2
DOT2
70
0
3
Dot (.5x) .....................................
72
65
73
2
40
3.175
49
0
49
-3.175
0
LTYPE
2
DOTX2
70
0
3
Dot (2x) .  .  .  .  .  .  .  .  .  .  .  .  .
72
65
73
2
40
12.7
49
0
49
-12.7
0
LTYPE
2
DASHED
70
0
3
Dot . . . . . . . . . . . . . . . . . . . . . .
72
65
73
2
40
19.05
49
12.7
49
-6.35
0
LTYPE
2
DASHED2
70
0
3
Dashed (.5x) _ _ _ _ _ _ _ _ _ _ _ _ _ _ _ _ _
72
65
73
2
40
9.525
49
6.35
49
-3.175
0
LTYPE
2
DASHEDX2
70
0
3
Dashed (2x) ____  ____  ____  ____  ____  ___
72
65
73
2
40
38.1
49
25.4
49
-12.7
0
LTYPE
2
DASHDOT
70
0
3
Dash dot __ . __ . __ . __ . __ . __ . __ . __
72
65
73
4
40
25.4
49
12.7
49
-6.35
49
0
49
-6.35
0
LTYPE
2
DASHDOT2
70
0
3
Dash dot (.5x) _._._._._._._._._._._._._._._.
72
65
73
4
40
12.7
49
6.35
49
-3.175
49
0
49
-3.175
0
LTYPE
2
DASHDOTX2
70
0
3
Dash dot (2x) ____  .  ____  .  ____  .  ___
72
65
73
4
40
50.8
49
25.4
49
-12.7
49
0
49
-12.7
0
LTYPE
2
DIVIDE
70
0
3
Divide ____ . . ____ . . ____ . . ____ . . ____
72
65
73
6
40
31.75
49
12.7
49
-6.35
49
0
49
-6.35
49
0
49
-6.35
0
LTYPE
2
DIVIDE2
70
0
3
Divide (.5x) __..__..__..__..__..__..__..__.._
72
65
73
6
40
15.875
49
6.35
49
-3.175
49
0
49
-3.175
49
0
49
-3.175
0
LTYPE
2
DIVIDEX2
70
0
3
Divide (2x) ________  .  .  ________  .  .  _
72
65
73
6
40
63.5
49
25.4
49
-12.7
49
0
49
-12.7
49
0
49
-12.7
0
LTYPE
2
BORDER
70
0
3
Border __ __ . __ __ . __ __ . __ __ . __ __ .
72
65
73
6
40
44.45
49
12.7
49
-6.35
49
12.7
49
-6.35
49
0
49
-6.35
0
LTYPE
2
BORDER2
70
0
3
Border (.5x) __.__.__.__.__.__.__.__.__.__.__.
72
65
73
6
40
22.225
49
6.35
49
-3.175
49
6.35
49
-3.175
49
0
49
-3.175
0
LTYPE
2
BORDERX2
70
0
3
Border (2x) ____  ____  .  ____  ____  .  ___
72
65
73
6
40
88.9
49
25.4
49
-12.7
49
25.4
49
-12.7
49
0
49
-12.7
0
LTYPE
2
CENTER
70
0
3
Center ____ _ ____ _ ____ _ ____ _ ____ _ ____
72
65
73
4
40
50.8
49
31.75
49
-6.35
49
6.35
49
-6.35
0
LTYPE
2
CENTER2
70
0
3
Center (.5x) ___ _ ___ _ ___ _ ___ _ ___ _ ___
72
65
73
4
40
28.575
49
19.05
49
-3.175
49
3.175
49
-3.175
0
LTYPE
2
CENTERX2
70
0
3
Center (2x) ________  __  ________  __  _____
72
65
73
4
40
101.6
49
63.5
49
-12.7
49
12.7
49
-12.7
0
ENDTAB
0
TABLE
2
LAYER
70
1
0
LAYER
2
0
70
0
62
7
6
CONTINUOUS
0
LAYER
2
0_BOARD_18MMPLY
70
0
62
1
6
CONTINUOUS
0
LAYER
2
1_6MMTOOL_FULLCUT_CUT OUTSIDE LINE
70
0
62
5
6
CONTINUOUS
0
LAYER
2
2_6MMTOOL_FULLCUT_CUT INSIDE LINE
70
0
62
4
6
CONTINUOUS
0
LAYER
2
3_3MMTOOL_2MMDEEP_ENGRAVE
70
0
62
2
6
CONTINUOUS
0
LAYER
2
PROFILEEDGES
70
0
62
7
6
CONTINUOUS
0
LAYER
2
SECTIONCUTEDGES
70
0
62
7
6
CONTINUOUS
0
ENDTAB
0
TABLE
2
STYLE
70
3
0
STYLE
2
STANDARD
70
0
40
0
41
1
50
0
71
0
42
1
3
TXT
4

0
ENDTAB
0
TABLE
2
VIEW
70
0
0
ENDTAB
0
TABLE
2
UCS
70
0
0
ENDTAB
0
TABLE
2
APPID
70
1
0
APPID
2
ACAD
70
0
0
APPID
2
LIBRECAD
70
0
0
ENDTAB
0
TABLE
2
DIMSTYLE
70
1
0
DIMSTYLE
2
STANDARD
70
0
3

4

5

6

7

40
1
41
0.18
42
0.0625
43
0.38
44
0.18
45
0
46
0
47
0
48
0
140
0.18
141
0.09
142
0
143
25.4
144
1
145
0
146
1
147
0.09
71
0
72
0
73
0
74
1
75
0
76
0
77
0
78
0
170
0
171
2
172
0
173
0
174
0
175
0
176
0
177
0
178
0
0
ENDTAB
0
ENDSEC
0
SECTION
2
BLOCKS
0
BLOCK
8
0
2
$MODEL_SPACE
70
0
10
0
20
0
30
0
3
$MODEL_SPACE
1

0
ENDBLK
8
0
0
BLOCK
8
0
2
$PAPER_SPACE
70
0
10
0
20
0
30
0
3
$PAPER_SPACE
1

0
ENDBLK
8
0
0
ENDSEC
0
SECTION
2
ENTITIES
0
POLYLINE
5
31
8
1_6MMTOOL_FULLCUT_CUT OUTSIDE LINE
6
BYLAYER
62
256
66
1
10
0
20
0
30
0
70
1
0
VERTEX
5
32
8
1_6MMTOOL_FULLCUT_CUT OUTSIDE LINE
6
BYLAYER
62
256
10
-603.117678295
20
1040.66257957
30
0
0
VERTEX
5
33
8
1_6MMTOOL_FULLCUT_CUT OUTSIDE LINE
6
BYLAYER
62
256
10
-611.333964419
20
1048.8788657
30
0
0
VERTEX
5
34
8
1_6MMTOOL_FULLCUT_CUT OUTSIDE LINE
6
BYLAYER
62
256
10
-694.901392171
20
1048.8788657
30
0
0
VERTEX
5
35
8
1_6MMTOOL_FULLCUT_CUT OUTSIDE LINE
6
BYLAYER
62
256
10
-703.117678295
20
1040.66257957
30
0
0
VERTEX
5
36
8
1_6MMTOOL_FULLCUT_CUT OUTSIDE LINE
6
BYLAYER
62
256
10
-703.117678295
20
907.095151821
30
0
0
VERTEX
5
37
8
1_6MMTOOL_FULLCUT_CUT OUTSIDE LINE
6
BYLAYER
62
256
10
-694.901392171
20
898.878865697
30
0
0
VERTEX
5
38
8
1_6MMTOOL_FULLCUT_CUT OUTSIDE LINE
6
BYLAYER
62
256
10
-611.333964419
20
898.878865697
30
0
0
VERTEX
5
39
8
1_6MMTOOL_FULLCUT_CUT OUTSIDE LINE
6
BYLAYER
62
256
10
-603.117678295
20
907.095151821
30
0
0
SEQEND
5
3A
8
1_6MMTOOL_FULLCUT_CUT OUTSIDE LINE
6
BYLAYER
62
256
0
POLYLINE
5
3B
8
1_6MMTOOL_FULLCUT_CUT OUTSIDE LINE
6
BYLAYER
62
256
66
1
10
0
20
0
30
0
70
1
0
VERTEX
5
3C
8
1_6MMTOOL_FULLCUT_CUT OUTSIDE LINE
6
BYLAYER
62
256
10
-353.117678295
20
774.878865697
30
0
0
VERTEX
5
3D
8
1_6MMTOOL_FULLCUT_CUT OUTSIDE LINE
6
BYLAYER
62
256
10
-603.117678295
20
774.878865697
30
0
0
VERTEX
5
3E
8
1_6MMTOOL_FULLCUT_CUT OUTSIDE LINE
6
BYLAYER
62
256
10
-603.117678295
20
821.662579573
30
0
0
VERTEX
5
3F
8
1_6MMTOOL_FULLCUT_CUT OUTSIDE LINE
6
BYLAYER
62
256
10
-611.333964419
20
829.878865697
30
0
0
VERTEX
5
40
8
1_6MMTOOL_FULLCUT_CUT OUTSIDE LINE
6
BYLAYER
62
256
10
-694.901392171
20
829.878865697
30
0
0
VERTEX
5
41
8
1_6MMTOOL_FULLCUT_CUT OUTSIDE LINE
6
BYLAYER
62
256
10
-703.117678295
20
821.662579573
30
0
0
VERTEX
5
42
8
1_6MMTOOL_FULLCUT_CUT OUTSIDE LINE
6
BYLAYER
62
256
10
-703.117678295
20
688.095151821
30
0
0
VERTEX
5
43
8
1_6MMTOOL_FULLCUT_CUT OUTSIDE LINE
6
BYLAYER
62
256
10
-694.901392171
20
679.878865697
30
0
0
VERTEX
5
44
8
1_6MMTOOL_FULLCUT_CUT OUTSIDE LINE
6
BYLAYER
62
256
10
-611.333964419
20
679.878865697
30
0
0
VERTEX
5
45
8
1_6MMTOOL_FULLCUT_CUT OUTSIDE LINE
6
BYLAYER
62
256
10
-603.117678295
20
688.095151821
30
0
0
VERTEX
5
46
8
1_6MMTOOL_FULLCUT_CUT OUTSIDE LINE
6
BYLAYER
62
256
10
-603.117678295
20
734.878865697
30
0
0
VERTEX
5
47
8
1_6MMTOOL_FULLCUT_CUT OUTSIDE LINE
6
BYLAYER
62
256
10
-353.117678295
20
734.878865697
30
0
0
SEQEND
5
48
8
1_6MMTOOL_FULLCUT_CUT OUTSIDE LINE
6
BYLAYER
62
256
0
POLYLINE
5
49
8
1_6MMTOOL_FULLCUT_CUT OUTSIDE LINE
6
BYLAYER
62
256
66
1
10
0
20
0
30
0
70
1
0
VERTEX
5
4A
8
1_6MMTOOL_FULLCUT_CUT OUTSIDE LINE
6
BYLAYER
62
256
10
-603.117678295
20
635.141052897
30
0
0
VERTEX
5
4B
8
1_6MMTOOL_FULLCUT_CUT OUTSIDE LINE
6
BYLAYER
62
256
10
-611.333964419
20
643.357339021
30
0
0
VERTEX
5
4C
8
1_6MMTOOL_FULLCUT_CUT OUTSIDE LINE
6
BYLAYER
62
256
10
-694.901392171
20
643.357339021
30
0
0
VERTEX
5
4D
8
1_6MMTOOL_FULLCUT_CUT OUTSIDE LINE
6
BYLAYER
62
256
10
-703.117678295
20
635.141052896
30
0
0
VERTEX
5
4E
8
1_6MMTOOL_FULLCUT_CUT OUTSIDE LINE
6
BYLAYER
62
256
10
-703.117678295
20
501.573625145
30
0
0
VERTEX
5
4F
8
1_6MMTOOL_FULLCUT_CUT OUTSIDE LINE
6
BYLAYER
62
256
10
-694.901392171
20
493.35733902
30
0
0
VERTEX
5
50
8
1_6MMTOOL_FULLCUT_CUT OUTSIDE LINE
6
BYLAYER
62
256
10
-611.333964419
20
493.35733902
30
0
0
VERTEX
5
51
8
1_6MMTOOL_FULLCUT_CUT OUTSIDE LINE
6
BYLAYER
62
256
10
-603.117678295
20
501.573625144
30
0
0
VERTEX
5
52
8
1_6MMTOOL_FULLCUT_CUT OUTSIDE LINE
6
BYLAYER
62
256
10
-603.117678295
20
548.357339021
30
0
0
VERTEX
5
53
8
1_6MMTOOL_FULLCUT_CUT OUTSIDE LINE
6
BYLAYER
62
256
10
-353.117678295
20
548.357339021
30
0
0
VERTEX
5
54
8
1_6MMTOOL_FULLCUT_CUT OUTSIDE LINE
6
BYLAYER
62
256
10
-353.117678295
20
588.357339021
30
0
0
VERTEX
5
55
8
1_6MMTOOL_FULLCUT_CUT OUTSIDE LINE
6
BYLAYER
62
256
10
-603.117678295
20
588.357339021
30
0
0
SEQEND
5
56
8
1_6MMTOOL_FULLCUT_CUT OUTSIDE LINE
6
BYLAYER
62
256
0
POLYLINE
5
57
8
1_6MMTOOL_FULLCUT_CUT OUTSIDE LINE
6
BYLAYER
62
256
66
1
10
0
20
0
30
0
70
1
0
VERTEX
5
58
8
1_6MMTOOL_FULLCUT_CUT OUTSIDE LINE
6
BYLAYER
62
256
10
-603.117678295
20
405.141052897
30
0
0
VERTEX
5
59
8
1_6MMTOOL_FULLCUT_CUT OUTSIDE LINE
6
BYLAYER
62
256
10
-611.333964419
20
413.357339021
30
0
0
VERTEX
5
5A
8
1_6MMTOOL_FULLCUT_CUT OUTSIDE LINE
6
BYLAYER
62
256
10
-694.901392171
20
413.357339021
30
0
0
VERTEX
5
5B
8
1_6MMTOOL_FULLCUT_CUT OUTSIDE LINE
6
BYLAYER
62
256
10
-703.117678295
20
405.141052896
30
0
0
VERTEX
5
5C
8
1_6MMTOOL_FULLCUT_CUT OUTSIDE LINE
6
BYLAYER
62
256
10
-703.117678295
20
271.573625145
30
0
0
VERTEX
5
5D
8
1_6MMTOOL_FULLCUT_CUT OUTSIDE LINE
6
BYLAYER
62
256
10
-694.901392171
20
263.357339021
30
0
0
VERTEX
5
5E
8
1_6MMTOOL_FULLCUT_CUT OUTSIDE LINE
6
BYLAYER
62
256
10
-611.333964419
20
263.357339021
30
0
0
VERTEX
5
5F
8
1_6MMTOOL_FULLCUT_CUT OUTSIDE LINE
6
BYLAYER
62
256
10
-603.117678295
20
271.573625145
30
0
0
SEQEND
5
60
8
1_6MMTOOL_FULLCUT_CUT OUTSIDE LINE
6
BYLAYER
62
256
0
ENDSEC
0
EOF
