<?xml version="1.0" encoding="UTF-8"?>
<!-- 2015-06-20 22:48:14 Generated by QCAD SVG Exporter -->
<svg width="1220in" height="2499.236607000006in" viewBox="490 -349.61830350000673 1220 2499.236607000006" version="1.1" xmlns="http://www.w3.org/2000/svg" style="stroke-linecap:round;stroke-linejoin:round;fill:none">
    <g transform="scale(1,-1)">
        <!-- Polyline -->
        <path d="M490,290.38169650000054 L490,-2149.6183034999995 M490,-2149.6183034999995 L1710,-2149.6183034999995 M1710,-2149.6183034999995 L1710,290.38169650000054 M1710,290.38169650000054 L490,290.38169650000054 " style="stroke:#ff0000;stroke-width:1e-9;"/>
        <!-- Text: 01 x6 -->
        <g>
            <path d="M504.5207131986938,347.3913525403497 L504.52114537063983,347.3917635687459 C503.6587449535501,348.72904918570396 502.1561627315468,349.6143651411573 500.4468038888938,349.6143651411573 C498.73858529512336,349.6143651411573 497.23686754822603,348.7302299136009 496.37440211563955,347.39476922191227 M496.37873736098436,347.40506476100575 L496.3780115734574,347.40621540469294 C494.4463259663438,344.8282493817941 493.0839137536234,341.7996008177821 492.4781271871058,338.5129315670184 M492.4800346188832,320.72625876108947 L492.47690895370096,320.72240232909076 C493.0857591306,317.4249520622837 494.44772355904826,314.3985211500612 496.3777850623748,311.8228171665422 M496.37472567640356,311.83453425578756 L496.374295804707,311.83412566732125 C497.2369909347591,310.4984277266797 498.7386554716179,309.6143651411573 500.4468038888938,309.6143651411573 C502.15502248266415,309.6143651411573 503.6567402295615,310.4985003687137 504.51920566214795,311.8339610604023 M504.5130926390254,311.82366552130884 L504.51381842655235,311.82251487762164 C506.44550403366594,314.4004809005205 507.80791624638636,317.4291294645325 508.4137028129039,320.71579871529616 M508.4070320742924,320.71453143399975 L508.41141035128624,320.69370406378175 C509.01789440515313,323.5341447255513 509.33569277778264,326.4682531509637 509.33569277778264,329.4765873633795 C509.33569277778264,329.5226916206656 509.3356181360755,329.56877844444693 509.3354713390956,329.61411314526094 M509.3354381178783,329.6062336897787 L509.33544082357935,329.6054481646747 C509.3356096373624,329.6548458664268 509.33569277778264,329.70348468343815 509.33569277778264,329.7521429189351 C509.33569277778264,332.76230832775826 509.01750739472396,335.698157558449 508.4155618830256,338.5155886882032 M508.41111568296435,338.50613705910735 L508.4142444473737,338.509997000194 C507.8057629763283,341.80221711663 506.44654238057666,344.8241585985332 504.52074842866983,347.3969619868398 M491.55816965990925,329.62249659253587 L491.55816695420816,329.62328211763986 C491.5579981404251,329.57388441588773 491.55791500000487,329.52524559887644 491.55791500000487,329.4765873633795 C491.55791500000487,326.4638921742496 491.8766354216724,323.52563812821495 492.4795695161359,320.70600268889996 M492.48657570349513,338.51419884831483 L492.4821974265013,338.53502621853283 C491.8757133726344,335.69458555676323 491.55791500000487,332.7604771313509 491.55791500000487,329.7521429189351 C491.55791500000487,329.703224995714 491.5579990302297,329.65432669880346 491.55816428695636,329.60622660221037" style="stroke:#ff0000;stroke-width:1e-9;"/>
            <path d="M522.669026111116,340.7254762522684 L531.5579150000049,349.6143651411573 L531.5579150000049,309.6143651411573" style="stroke:#ff0000;stroke-width:1e-9;"/>
            <path d="M561.5579150000049,336.281031807824 L579.3356927777827,309.6143651411573 M561.5579150000049,309.6143651411573 L579.3356927777827,336.281031807824" style="stroke:#ff0000;stroke-width:1e-9;"/>
            <path d="M606.0023594444493,349.615042575409 L605.999127697182,349.61830350000673 C598.029575218833,345.00600700417993 592.669026111116,336.38953107025145 592.669026111116,326.521031807824 L592.669026111116,318.5032540300462 C592.669026111116,313.59405625404617 596.6487172240049,309.6143651411573 601.5579150000049,309.6143651411573 C606.4671127760049,309.6143651411573 610.4468038888938,313.59405625404617 610.4468038888938,318.5032540300462 L610.4468038888938,322.9476984744906 C610.4468038888938,327.85689625049065 606.4671127760049,331.8365873633795 601.5579150000049,331.8365873633795 L593.2041372222271,331.8365873633795" style="stroke:#ff0000;stroke-width:1e-9;"/>
        </g>
        <!-- Polyline -->
        <path d="M559,-54.618303499999456 L541,-54.618303499999456 M541,-54.618303499999456 L541,-28.618303499999456 M541,-28.618303499999456 L559,-28.618303499999456 M559,-28.618303499999456 L559,-54.618303499999456 " style="stroke:#00ffff;stroke-width:1e-9;"/>
        <!-- Polyline -->
        <path d="M737,-54.618303499999456 L737,-28.618303499999456 M737,-28.618303499999456 L755,-28.618303499999456 M755,-28.618303499999456 L755,-54.618303499999456 M755,-54.618303499999456 L737,-54.618303499999456 " style="stroke:#00ffff;stroke-width:1e-9;"/>
        <!-- Polyline -->
        <path d="M559,-354.61830349999946 L541,-354.61830349999946 M541,-354.61830349999946 L541,-328.61830349999946 M541,-328.61830349999946 L559,-328.61830349999946 M559,-328.61830349999946 L559,-354.61830349999946 " style="stroke:#00ffff;stroke-width:1e-9;"/>
        <!-- Polyline -->
        <path d="M737,-354.61830349999946 L737,-328.61830349999946 M737,-328.61830349999946 L755,-328.61830349999946 M755,-328.61830349999946 L755,-354.61830349999946 M755,-354.61830349999946 L737,-354.61830349999946 " style="stroke:#00ffff;stroke-width:1e-9;"/>
        <!-- Polyline -->
        <path d="M559,-654.6183034999995 L541,-654.6183034999995 M541,-654.6183034999995 L541,-628.6183034999995 M541,-628.6183034999995 L559,-628.6183034999995 M559,-628.6183034999995 L559,-654.6183034999995 " style="stroke:#00ffff;stroke-width:1e-9;"/>
        <!-- Polyline -->
        <path d="M737,-654.6183034999995 L737,-628.6183034999995 M737,-628.6183034999995 L755,-628.6183034999995 M755,-628.6183034999995 L755,-654.6183034999995 M755,-654.6183034999995 L737,-654.6183034999995 " style="stroke:#00ffff;stroke-width:1e-9;"/>
        <!-- Polyline -->
        <path d="M1110,-2080.6183034999995 L1136,-2080.6183034999995 M1136,-2080.6183034999995 L1136,-2098.6183034999995 M1136,-2098.6183034999995 L1110,-2098.6183034999995 M1110,-2098.6183034999995 L1110,-2080.6183034999995 " style="stroke:#00ffff;stroke-width:1e-9;"/>
        <!-- Polyline -->
        <path d="M810,-2080.6183034999995 L836,-2080.6183034999995 M836,-2080.6183034999995 L836,-2098.6183034999995 M836,-2098.6183034999995 L810,-2098.6183034999995 M810,-2098.6183034999995 L810,-2080.6183034999995 " style="stroke:#00ffff;stroke-width:1e-9;"/>
        <!-- Polyline -->
        <path d="M1110,-1884.6183034999995 L1136,-1884.6183034999995 M1136,-1884.6183034999995 L1136,-1902.6183034999995 M1136,-1902.6183034999995 L1110,-1902.6183034999995 M1110,-1902.6183034999995 L1110,-1884.6183034999995 " style="stroke:#00ffff;stroke-width:1e-9;"/>
        <!-- Polyline -->
        <path d="M559,-954.6183034999995 L541,-954.6183034999995 M541,-954.6183034999995 L541,-928.6183034999995 M541,-928.6183034999995 L559,-928.6183034999995 M559,-928.6183034999995 L559,-954.6183034999995 " style="stroke:#00ffff;stroke-width:1e-9;"/>
        <!-- Polyline -->
        <path d="M737,-954.6183034999995 L737,-928.6183034999995 M737,-928.6183034999995 L755,-928.6183034999995 M755,-928.6183034999995 L755,-954.6183034999995 M755,-954.6183034999995 L737,-954.6183034999995 " style="stroke:#00ffff;stroke-width:1e-9;"/>
        <!-- Polyline -->
        <path d="M810,-1884.6182935000033 L836,-1884.6183034999995 M836,-1884.6183034999995 L836,-1902.6183034999995 M836,-1902.6183034999995 L810,-1902.6182935000033 M810,-1902.6182935000033 L810,-1884.6182935000033 " style="stroke:#00ffff;stroke-width:1e-9;"/>
        <!-- Polyline -->
        <path d="M559,-1828.6183034999995 L559,-1854.6183034999995 M559,-1854.6183034999995 L541,-1854.6183034999995 M541,-1854.6183034999995 L541,-1828.6183034999995 M541,-1828.6183034999995 L559,-1828.6183034999995 " style="stroke:#00ffff;stroke-width:1e-9;"/>
        <!-- Polyline -->
        <path d="M737,-1828.6183034999995 L755,-1828.6183034999995 M755,-1828.6183034999995 L755,-1854.6183034999995 M755,-1854.6183034999995 L737,-1854.6183034999995 M737,-1854.6183034999995 L737,-1828.6183034999995 " style="stroke:#00ffff;stroke-width:1e-9;"/>
        <!-- Polyline -->
        <path d="M559,-1254.6183034999995 L541,-1254.6183034999995 M541,-1254.6183034999995 L541,-1228.6183034999995 M541,-1228.6183034999995 L559,-1228.6183034999995 M559,-1228.6183034999995 L559,-1254.6183034999995 " style="stroke:#00ffff;stroke-width:1e-9;"/>
        <!-- Polyline -->
        <path d="M737,-1254.6183034999995 L737,-1228.6183034999995 M737,-1228.6183034999995 L755,-1228.6183034999995 M755,-1228.6183034999995 L755,-1254.6183034999995 M755,-1254.6183034999995 L737,-1254.6183034999995 " style="stroke:#00ffff;stroke-width:1e-9;"/>
        <!-- Polyline -->
        <path d="M559,-1528.6183034999995 L559,-1554.6183034999995 M559,-1554.6183034999995 L541,-1554.6183034999995 M541,-1554.6183034999995 L541,-1528.6183034999995 M541,-1528.6183034999995 L559,-1528.6183034999995 " style="stroke:#00ffff;stroke-width:1e-9;"/>
        <!-- Polyline -->
        <path d="M737,-1528.6183034999995 L755,-1528.6183034999995 M755,-1528.6183034999995 L755,-1554.6183034999995 M755,-1554.6183034999995 L737,-1554.6183034999995 M737,-1554.6183034999995 L737,-1528.6183034999995 " style="stroke:#00ffff;stroke-width:1e-9;"/>
        <!-- Polyline -->
        <path d="M1052.1850110000014,-385.10264749999624 L1052.1850170000034,-359.10262749999674 M1052.1850170000034,-359.10262749999674 L1070.1850170000034,-359.10262550000334 M1070.1850170000034,-359.10262550000334 L1070.1850110000014,-385.10264749999624 M1070.1850110000014,-385.10264749999624 L1052.1850110000014,-385.10264749999624 " style="stroke:#00ffff;stroke-width:1e-9;"/>
        <!-- Polyline -->
        <path d="M874.1850110000014,-385.10264749999624 L856.1850110000014,-385.10264749999624 M856.1850110000014,-385.10264749999624 L856.1850090000007,-359.1026465000032 M856.1850090000007,-359.1026465000032 L874.1850090000007,-359.1026445000025 M874.1850090000007,-359.1026445000025 L874.1850110000014,-385.10264749999624 " style="stroke:#00ffff;stroke-width:1e-9;"/>
        <!-- Polyline -->
        <path d="M1052.1850110000014,-685.1026474999962 L1052.1850110000014,-659.1026474999962 M1052.1850110000014,-659.1026474999962 L1070.1850110000014,-659.1026474999962 M1070.1850110000014,-659.1026474999962 L1070.1850110000014,-685.1026474999962 M1070.1850110000014,-685.1026474999962 L1052.1850110000014,-685.1026474999962 " style="stroke:#00ffff;stroke-width:1e-9;"/>
        <!-- Polyline -->
        <path d="M874.1850110000014,-685.1026474999962 L856.1850110000014,-685.1026474999962 M856.1850110000014,-685.1026474999962 L856.1850110000014,-659.1026474999962 M856.1850110000014,-659.1026474999962 L874.1850110000014,-659.1026474999962 M874.1850110000014,-659.1026474999962 L874.1850110000014,-685.1026474999962 " style="stroke:#00ffff;stroke-width:1e-9;"/>
        <!-- Polyline -->
        <path d="M1052.1850110000014,-985.1026474999962 L1052.1850110000014,-959.1026474999962 M1052.1850110000014,-959.1026474999962 L1070.1850110000014,-959.1026474999962 M1070.1850110000014,-959.1026474999962 L1070.1850110000014,-985.1026474999962 M1070.1850110000014,-985.1026474999962 L1052.1850110000014,-985.1026474999962 " style="stroke:#00ffff;stroke-width:1e-9;"/>
        <!-- Polyline -->
        <path d="M874.1850110000014,-985.1026474999962 L856.1850110000014,-985.1026474999962 M856.1850110000014,-985.1026474999962 L856.1850110000014,-959.1026474999962 M856.1850110000014,-959.1026474999962 L874.1850110000014,-959.1026474999962 M874.1850110000014,-959.1026474999962 L874.1850110000014,-985.1026474999962 " style="stroke:#00ffff;stroke-width:1e-9;"/>
        <!-- Polyline -->
        <path d="M1052.1850110000014,-1559.1026474999962 L1070.1850110000014,-1559.1026474999962 M1070.1850110000014,-1559.1026474999962 L1070.1850110000014,-1585.1026474999962 M1070.1850110000014,-1585.1026474999962 L1052.1850110000014,-1585.1026474999962 M1052.1850110000014,-1585.1026474999962 L1052.1850110000014,-1559.1026474999962 " style="stroke:#00ffff;stroke-width:1e-9;"/>
        <!-- Polyline -->
        <path d="M874.1850110000014,-1559.1026474999962 L874.1850110000014,-1585.1026474999962 M874.1850110000014,-1585.1026474999962 L856.1850110000014,-1585.1026474999962 M856.1850110000014,-1585.1026474999962 L856.1850110000014,-1559.1026474999962 M856.1850110000014,-1559.1026474999962 L874.1850110000014,-1559.1026474999962 " style="stroke:#00ffff;stroke-width:1e-9;"/>
        <!-- Polyline -->
        <path d="M1052.1850110000014,-1259.1026474999962 L1070.1850110000014,-1259.1026474999962 M1070.1850110000014,-1259.1026474999962 L1070.1850110000014,-1285.1026474999962 M1070.1850110000014,-1285.1026474999962 L1052.1850110000014,-1285.1026474999962 M1052.1850110000014,-1285.1026474999962 L1052.1850110000014,-1259.1026474999962 " style="stroke:#00ffff;stroke-width:1e-9;"/>
        <!-- Polyline -->
        <path d="M874.1850110000014,-1285.1026474999962 L856.1850110000014,-1285.1026474999962 M856.1850110000014,-1285.1026474999962 L856.1850110000014,-1259.1026474999962 M856.1850110000014,-1259.1026474999962 L874.1850110000014,-1259.1026474999962 M874.1850110000014,-1259.1026474999962 L874.1850110000014,-1285.1026474999962 " style="stroke:#00ffff;stroke-width:1e-9;"/>
        <!-- Polyline -->
        <path d="M1353.6971049999993,-236.91705450000154 L1353.6971049999993,-210.91705450000154 M1353.6971049999993,-210.91705450000154 L1371.6971049999993,-210.91705450000154 M1371.6971049999993,-210.91705450000154 L1371.6971049999993,-236.91705450000154 M1371.6971049999993,-236.91705450000154 L1353.6971049999993,-236.91705450000154 " style="stroke:#00ffff;stroke-width:1e-9;"/>
        <!-- Polyline -->
        <path d="M1175.6971049999993,-236.91705450000154 L1157.6971049999993,-236.91705450000154 M1157.6971049999993,-236.91705450000154 L1157.6971049999993,-210.91705450000154 M1157.6971049999993,-210.91705450000154 L1175.6971049999993,-210.91705450000154 M1175.6971049999993,-210.91705450000154 L1175.6971049999993,-236.91705450000154 " style="stroke:#00ffff;stroke-width:1e-9;"/>
        <!-- Polyline -->
        <path d="M1353.6971049999993,-536.9170545000015 L1353.6971049999993,-510.91705450000154 M1353.6971049999993,-510.91705450000154 L1371.6971049999993,-510.91705450000154 M1371.6971049999993,-510.91705450000154 L1371.6971049999993,-536.9170545000015 M1371.6971049999993,-536.9170545000015 L1353.6971049999993,-536.9170545000015 " style="stroke:#00ffff;stroke-width:1e-9;"/>
        <!-- Polyline -->
        <path d="M1175.6971049999993,-536.9170545000015 L1157.6971049999993,-536.9170545000015 M1157.6971049999993,-536.9170545000015 L1157.6971049999993,-510.91705450000154 M1157.6971049999993,-510.91705450000154 L1175.6971049999993,-510.91705450000154 M1175.6971049999993,-510.91705450000154 L1175.6971049999993,-536.9170545000015 " style="stroke:#00ffff;stroke-width:1e-9;"/>
        <!-- Polyline -->
        <path d="M1249.1266810000016,-1609.6164175000013 L1269.2496700000047,-1626.0804785 M1269.2496700000047,-1626.0804785 L1257.8514740000028,-1640.0117784999966 M1257.8514740000028,-1640.0117784999966 L1237.7284849999996,-1623.5477174999978 M1237.7284849999996,-1623.5477174999978 L1249.1266810000016,-1609.6164175000013 " style="stroke:#00ffff;stroke-width:1e-9;"/>
        <!-- Polyline -->
        <path d="M1373.2403740000009,-1457.9200455000027 L1393.363366000005,-1474.3841035000005 M1393.363366000005,-1474.3841035000005 L1381.9651700000031,-1488.3154024999967 M1381.9651700000031,-1488.3154024999967 L1361.8421780000062,-1471.8513454999993 M1361.8421780000062,-1471.8513454999993 L1373.2403740000009,-1457.9200455000027 " style="stroke:#00ffff;stroke-width:1e-9;"/>
        <!-- Polyline -->
        <path d="M1353.6971049999993,-1410.9170545000015 L1371.6971049999993,-1410.9170545000015 M1371.6971049999993,-1410.9170545000015 L1371.7048580000046,-1436.9334174999967 M1371.7048580000046,-1436.9334174999967 L1353.7048580000046,-1436.9335274999976 M1353.7048580000046,-1436.9335274999976 L1353.6971049999993,-1410.9170545000015 " style="stroke:#00ffff;stroke-width:1e-9;"/>
        <!-- Polyline -->
        <path d="M1175.6971049999993,-1410.9170545000015 L1175.704850000002,-1436.9346135000014 M1175.704850000002,-1436.9346135000014 L1157.704850000002,-1436.9347235000023 M1157.704850000002,-1436.9347235000023 L1157.6971049999993,-1410.9170545000015 M1157.6971049999993,-1410.9170545000015 L1175.6971049999993,-1410.9170545000015 " style="stroke:#00ffff;stroke-width:1e-9;"/>
        <!-- Polyline -->
        <path d="M1353.6971049999993,-836.9170545000015 L1353.6971049999993,-810.9170545000015 M1353.6971049999993,-810.9170545000015 L1371.6971049999993,-810.9170545000015 M1371.6971049999993,-810.9170545000015 L1371.6971049999993,-836.9170545000015 M1371.6971049999993,-836.9170545000015 L1353.6971049999993,-836.9170545000015 " style="stroke:#00ffff;stroke-width:1e-9;"/>
        <!-- Polyline -->
        <path d="M1175.6971049999993,-836.9170545000015 L1157.6971049999993,-836.9170545000015 M1157.6971049999993,-836.9170545000015 L1157.6971049999993,-810.9170545000015 M1157.6971049999993,-810.9170545000015 L1175.6971049999993,-810.9170545000015 M1175.6971049999993,-810.9170545000015 L1175.6971049999993,-836.9170545000015 " style="stroke:#00ffff;stroke-width:1e-9;"/>
        <!-- Polyline -->
        <path d="M1353.6971049999993,-1110.9170545000015 L1371.6971049999993,-1110.9170545000015 M1371.6971049999993,-1110.9170545000015 L1371.6971049999993,-1136.9170545000015 M1371.6971049999993,-1136.9170545000015 L1353.6971049999993,-1136.9170545000015 M1353.6971049999993,-1136.9170545000015 L1353.6971049999993,-1110.9170545000015 " style="stroke:#00ffff;stroke-width:1e-9;"/>
        <!-- Polyline -->
        <path d="M1175.6971049999993,-1110.9170545000015 L1175.6971049999993,-1136.9170545000015 M1175.6971049999993,-1136.9170545000015 L1157.6971049999993,-1136.9170545000015 M1157.6971049999993,-1136.9170545000015 L1157.6971049999993,-1110.9170545000015 M1157.6971049999993,-1110.9170545000015 L1175.6971049999993,-1110.9170545000015 " style="stroke:#00ffff;stroke-width:1e-9;"/>
        <!-- Polyline -->
        <path d="M1115,221.38169650000054 L1089,221.38169650000054 M1089,221.38169650000054 L1089,239.38169650000054 M1089,239.38169650000054 L1115,239.38169650000054 M1115,239.38169650000054 L1115,221.38169650000054 " style="stroke:#00ffff;stroke-width:1e-9;"/>
        <!-- Polyline -->
        <path d="M1415,221.38169650000054 L1389,221.38169650000054 M1389,221.38169650000054 L1389,239.38169650000054 M1389,239.38169650000054 L1415,239.38169650000054 M1415,239.38169650000054 L1415,221.38169650000054 " style="stroke:#00ffff;stroke-width:1e-9;"/>
        <!-- Polyline -->
        <path d="M1115,25.381696500000544 L1089,25.381696500000544 M1089,25.381696500000544 L1089,43.381696500000544 M1089,43.381696500000544 L1115,43.381696500000544 M1115,43.381696500000544 L1115,25.381696500000544 " style="stroke:#00ffff;stroke-width:1e-9;"/>
        <!-- Polyline -->
        <path d="M1415,25.381696500000544 L1389,25.381696500000544 M1389,25.381696500000544 L1389,43.381696500000544 M1389,43.381696500000544 L1415,43.381696500000544 M1415,43.381696500000544 L1415,25.381696500000544 " style="stroke:#00ffff;stroke-width:1e-9;"/>
        <!-- Polyline -->
        <path d="M1641,-55.618303499999456 L1641,-29.618303499999456 M1641,-29.618303499999456 L1659,-29.618303499999456 M1659,-29.618303499999456 L1659,-55.618303499999456 M1659,-55.618303499999456 L1641,-55.618303499999456 " style="stroke:#00ffff;stroke-width:1e-9;"/>
        <!-- Polyline -->
        <path d="M1463,-55.618303499999456 L1445,-55.618303499999456 M1445,-55.618303499999456 L1444.999990000004,-29.618303499999456 M1444.999990000004,-29.618303499999456 L1462.999990000004,-29.618303499999456 M1462.999990000004,-29.618303499999456 L1463,-55.618303499999456 " style="stroke:#00ffff;stroke-width:1e-9;"/>
        <!-- Polyline -->
        <path d="M1641,-355.61830349999946 L1641,-329.61830349999946 M1641,-329.61830349999946 L1659,-329.61830349999946 M1659,-329.61830349999946 L1659,-355.61830349999946 M1659,-355.61830349999946 L1641,-355.61830349999946 " style="stroke:#00ffff;stroke-width:1e-9;"/>
        <!-- Polyline -->
        <path d="M1463,-355.61830349999946 L1445,-355.61830349999946 M1445,-355.61830349999946 L1445,-329.61830349999946 M1445,-329.61830349999946 L1463,-329.61830349999946 M1463,-329.61830349999946 L1463,-355.61830349999946 " style="stroke:#00ffff;stroke-width:1e-9;"/>
        <!-- Polyline -->
        <path d="M1641,-629.6183034999995 L1659,-629.6183034999995 M1659,-629.6183034999995 L1659,-655.6183034999995 M1659,-655.6183034999995 L1641,-655.6183034999995 M1641,-655.6183034999995 L1641,-629.6183034999995 " style="stroke:#00ffff;stroke-width:1e-9;"/>
        <!-- Polyline -->
        <path d="M1463,-655.6183034999995 L1445,-655.6183034999995 M1445,-655.6183034999995 L1445,-629.6183034999995 M1445,-629.6183034999995 L1463,-629.6183034999995 M1463,-629.6183034999995 L1463,-655.6183034999995 " style="stroke:#00ffff;stroke-width:1e-9;"/>
        <!-- Polyline -->
        <path d="M1548.1370970000062,-1769.456264499997 L1531.6729140000025,-1749.3333754999985 M1531.6729140000025,-1749.3333754999985 L1545.6041450000048,-1737.935094499997 M1545.6041450000048,-1737.935094499997 L1562.0683280000012,-1758.057984500003 M1562.0683280000012,-1758.057984500003 L1548.1370970000062,-1769.456264499997 " style="stroke:#00ffff;stroke-width:1e-9;"/>
        <!-- Polyline -->
        <path d="M1548.1370970000062,-1996.632720499998 L1562.0683280000012,-2008.0310004999992 M1562.0683280000012,-2008.0310004999992 L1545.6041450000048,-2028.153890499998 M1545.6041450000048,-2028.153890499998 L1531.6729140000025,-2016.7556094999964 M1531.6729140000025,-2016.7556094999964 L1548.1370970000062,-1996.632720499998 " style="stroke:#00ffff;stroke-width:1e-9;"/>
        <!-- Polyline -->
        <path d="M1687.5795450000005,-1883.0444924999974 L1520.2004830000005,-1678.563161500002 M1520.2004830000005,-1678.563161500002 L1516.3306970000049,-1681.729350499998 M1516.3306970000049,-1681.729350499998 L1509.9983190000057,-1673.989777499999 M1509.9983190000057,-1673.989777499999 L1527.799343999999,-1659.4253014999995 M1527.799343999999,-1659.4253014999995 L1511.335149000006,-1639.3024224999972 M1511.335149000006,-1639.3024224999972 L1461.2859150000004,-1680.2517955000003 M1461.2859150000004,-1680.2517955000003 L1486.6154270000043,-1711.2100875000033 M1486.6154270000043,-1711.2100875000033 L1490.485213,-1708.0438985 M1490.485213,-1708.0438985 L1496.817590999999,-1715.783471499999 M1496.817590999999,-1715.783471499999 L1443.9305120000063,-1759.0547185000032 M1443.9305120000063,-1759.0547185000032 L1437.5981339999998,-1751.315145499997 M1437.5981339999998,-1751.315145499997 L1441.4679210000031,-1748.148956500001 M1441.4679210000031,-1748.148956500001 L1416.1384010000038,-1717.1906715000005 M1416.1384010000038,-1717.1906715000005 L1385.1801049999995,-1742.5201854999978 M1385.1801049999995,-1742.5201854999978 L1410.5096170000033,-1773.4784775000007 M1410.5096170000033,-1773.4784775000007 L1414.379402999999,-1770.3122884999975 M1414.379402999999,-1770.3122884999975 L1420.7117810000054,-1778.0518614999964 M1420.7117810000054,-1778.0518614999964 L1367.8247020000053,-1821.3231085000007 M1367.8247020000053,-1821.3231085000007 L1361.4923240000062,-1813.5835355000017 M1361.4923240000062,-1813.5835355000017 L1365.3621110000022,-1810.4173464999985 M1365.3621110000022,-1810.4173464999985 L1340.0325990000056,-1779.4590545000028 M1340.0325990000056,-1779.4590545000028 L1289.9833540000036,-1820.408437500002 M1289.9833540000036,-1820.408437500002 L1306.4935850000038,-1840.5383195000031 M1306.4935850000038,-1840.5383195000031 L1324.288622,-1825.9665424999985 M1324.288622,-1825.9665424999985 L1330.6241770000051,-1833.7035154999976 M1330.6241770000051,-1833.7035154999976 L1326.7556910000058,-1836.8712925 M1326.7556910000058,-1836.8712925 L1364.5460290000046,-1883.0208395000009 M1364.5460290000046,-1883.0208395000009 L1326.757123000003,-1929.2068864999965 M1326.757123000003,-1929.2068864999965 L1330.6268990000026,-1932.3730884999968 M1330.6268990000026,-1932.3730884999968 L1324.2944970000026,-1940.1126414999962 M1324.2944970000026,-1940.1126414999962 L1306.4935250000053,-1925.548116500002 M1306.4935250000053,-1925.548116500002 L1290.0364380000028,-1945.6616014999963 M1290.0364380000028,-1945.6616014999963 L1340.1088010000021,-1986.6298995000034 M1340.1088010000021,-1986.6298995000034 L1365.438313000006,-1955.6716075000004 M1365.438313000006,-1955.6716075000004 L1361.5685260000027,-1952.5054184999972 M1361.5685260000027,-1952.5054184999972 L1367.900904000002,-1944.7658454999982 M1367.900904000002,-1944.7658454999982 L1420.7879840000023,-1988.0370925000025 M1420.7879840000023,-1988.0370925000025 L1414.4556060000032,-1995.7766655000014 M1414.4556060000032,-1995.7766655000014 L1410.585819,-1992.6104764999982 M1410.585819,-1992.6104764999982 L1385.2563070000033,-2023.5687685000012 M1385.2563070000033,-2023.5687685000012 L1416.2146030000004,-2048.898283499999 M1416.2146030000004,-2048.898283499999 L1441.5441229999997,-2017.9399974999978 M1441.5441229999997,-2017.9399974999978 L1437.6743360000037,-2014.773808500002 M1437.6743360000037,-2014.773808500002 L1444.0067140000028,-2007.034235500003 M1444.0067140000028,-2007.034235500003 L1496.893793000003,-2050.3054825 M1496.893793000003,-2050.3054825 L1490.561416000004,-2058.045055499999 M1490.561416000004,-2058.045055499999 L1486.6916290000008,-2054.878866500003 M1486.6916290000008,-2054.878866500003 L1461.3621170000042,-2085.8371584999986 M1461.3621170000042,-2085.8371584999986 L1511.4113510000025,-2126.7865315000017 M1511.4113510000025,-2126.7865315000017 L1527.875546000003,-2106.6636524999994 M1527.875546000003,-2106.6636524999994 L1510.074520000002,-2092.0991765 M1510.074520000002,-2092.0991765 L1516.406898000001,-2084.359603500001 M1516.406898000001,-2084.359603500001 L1520.2766850000044,-2087.525792499997 M1520.2766850000044,-2087.525792499997 L1687.5795450000005,-1883.0444924999974 " style="stroke:#0000ff;stroke-width:1e-9;"/>
        <!-- Text: 
a/F1 -->
        <g>
            <path d="M828.4649750000019,-2007.4049585000027" style="stroke:#ffff00;stroke-width:1e-9;"/>
            <path d="M830.6871972222241,-2038.3382918333361 L839.576086111113,-2038.3382918333361 M846.2427527777797,-2045.0049585000027 C846.2427527777797,-2041.3230601680027 843.2579844431131,-2038.3382918333361 839.576086111113,-2038.3382918333361 M846.2427527777797,-2045.0049585000027 L846.2427527777797,-2065.004958500003 L835.1316416666685,-2065.004958500003 M835.1316416666685,-2051.6716251666694 C831.4497433346686,-2051.6716251666694 828.4649750000019,-2054.656393501336 828.4649750000019,-2058.338291833336 C828.4649750000019,-2062.020190165336 831.4497433346686,-2065.004958500003 835.1316416666685,-2065.004958500003 M835.1316416666685,-2051.6716251666694 L846.2427527777797,-2051.6716251666694" style="stroke:#ffff00;stroke-width:1e-9;"/>
            <path d="M877.3538638888908,-2025.0049585000027 L859.576086111113,-2065.004958500003" style="stroke:#ffff00;stroke-width:1e-9;"/>
            <path d="M908.4649750000019,-2025.0049585000027 L890.6871972222241,-2025.0049585000027 L890.6871972222241,-2065.004958500003 M890.6871972222241,-2042.7827362777805 L908.4649750000019,-2042.7827362777805" style="stroke:#ffff00;stroke-width:1e-9;"/>
            <path d="M921.7983083333352,-2033.8938473888916 L930.6871972222241,-2025.0049585000027 L930.6871972222241,-2065.004958500003" style="stroke:#ffff00;stroke-width:1e-9;"/>
        </g>
        <!-- Text: 
A/F3 -->
        <g>
            <path d="M1577.852893000003,-707.9396004999945" style="stroke:#ffff00;stroke-width:1e-9;"/>
            <path d="M1635.4528930000029,-707.9396004999945 L1595.4528930000029,-694.6062671666612 L1635.4528930000029,-681.2729338333279 M1624.3417818888918,-704.236044944439 L1624.3417818888918,-684.9751560555501" style="stroke:#ffff00;stroke-width:1e-9;"/>
            <path d="M1595.4528930000029,-650.1618227222167 L1635.4528930000029,-667.9396004999945" style="stroke:#ffff00;stroke-width:1e-9;"/>
            <path d="M1595.4528930000029,-619.0507116111056 L1595.4528930000029,-636.8284893888834 L1635.4528930000029,-636.8284893888834 M1613.2306707777807,-636.8284893888834 L1613.2306707777807,-619.0507116111056" style="stroke:#ffff00;stroke-width:1e-9;"/>
            <path d="M1595.4528930000029,-605.7173782777722 L1595.4528930000029,-596.8284893888834 M1613.2306707777807,-596.8284893888834 C1613.2306707777807,-591.9192916128834 1609.250979664892,-587.9396004999945 1604.3417818888918,-587.9396004999945 C1599.4325841128918,-587.9396004999945 1595.4528930000029,-591.9192916128834 1595.4528930000029,-596.8284893888834 M1613.2306707777807,-596.8284893888834 L1613.2306707777807,-601.2729338333279 M1622.1195596666696,-587.9396004999945 C1617.2103618906697,-587.9396004999945 1613.2306707777807,-591.9192916128834 1613.2306707777807,-596.8284893888834 M1622.1195596666696,-587.9396004999945 L1626.5640041111142,-587.9396004999945 M1635.4528930000029,-596.8284893888834 C1635.4528930000029,-591.9192916128834 1631.473201887114,-587.9396004999945 1626.5640041111142,-587.9396004999945 M1635.4528930000029,-596.8284893888834 L1635.4528930000029,-605.7173782777722" style="stroke:#ffff00;stroke-width:1e-9;"/>
        </g>
        <!-- Text: 
A/F7 -->
        <g>
            <path d="M980.2379280000023,-1170.6476374999984" style="stroke:#ffff00;stroke-width:1e-9;"/>
            <path d="M1037.8379280000022,-1170.6476374999984 L997.8379280000023,-1157.3143041666651 L1037.8379280000022,-1143.9809708333316 M1026.726816888891,-1166.9440819444428 L1026.726816888891,-1147.683193055554" style="stroke:#ffff00;stroke-width:1e-9;"/>
            <path d="M997.8379280000023,-1112.8698597222206 L1037.8379280000022,-1130.6476374999984" style="stroke:#ffff00;stroke-width:1e-9;"/>
            <path d="M997.8379280000023,-1081.7587486111095 L997.8379280000023,-1099.5365263888873 L1037.8379280000022,-1099.5365263888873 M1015.61570577778,-1099.5365263888873 L1015.61570577778,-1081.7587486111095" style="stroke:#ffff00;stroke-width:1e-9;"/>
            <path d="M997.8379280000023,-1068.4254152777762 L997.8379280000023,-1050.6476374999984 L1037.8379280000022,-1061.7587486111095 M1015.61570577778,-1059.5365263888873 L1015.61570577778,-1050.6476374999984" style="stroke:#ffff00;stroke-width:1e-9;"/>
        </g>
        <!-- Text: 
a/F6 -->
        <g>
            <path d="M1282.6257719999994,-1020.6603045000011" style="stroke:#ffff00;stroke-width:1e-9;"/>
            <path d="M1313.5591053333328,-1018.4380822777789 L1313.5591053333328,-1009.54919338889 M1320.2257719999993,-1002.8825267222232 C1316.5438736679994,-1002.8825267222232 1313.5591053333328,-1005.8672950568899 1313.5591053333328,-1009.54919338889 M1320.2257719999993,-1002.8825267222232 L1340.2257719999993,-1002.8825267222232 L1340.2257719999993,-1013.9936378333344 M1326.892438666666,-1013.9936378333344 C1326.892438666666,-1017.6755361653344 1329.8772070013329,-1020.6603045000011 1333.5591053333328,-1020.6603045000011 C1337.2410036653328,-1020.6603045000011 1340.2257719999993,-1017.6755361653344 1340.2257719999993,-1013.9936378333344 M1326.892438666666,-1013.9936378333344 L1326.892438666666,-1002.8825267222232" style="stroke:#ffff00;stroke-width:1e-9;"/>
            <path d="M1300.2257719999993,-971.7714156111122 L1340.2257719999993,-989.54919338889" style="stroke:#ffff00;stroke-width:1e-9;"/>
            <path d="M1300.2257719999993,-940.6603045000011 L1300.2257719999993,-958.4380822777789 L1340.2257719999993,-958.4380822777789 M1318.0035497777772,-958.4380822777789 L1318.0035497777772,-940.6603045000011" style="stroke:#ffff00;stroke-width:1e-9;"/>
            <path d="M1300.2250945657477,-913.9936378333344 L1300.22183364115,-913.9968695806017 C1304.8341301369767,-921.9664220589507 1313.4506060709052,-927.3269711666678 1323.3191053333328,-927.3269711666678 L1331.3368831111106,-927.3269711666678 C1336.2460808871106,-927.3269711666678 1340.2257719999993,-923.3472800537788 1340.2257719999993,-918.4380822777789 C1340.2257719999993,-913.5288845017789 1336.2460808871106,-909.54919338889 1331.3368831111106,-909.54919338889 L1326.892438666666,-909.54919338889 C1321.9832408906661,-909.54919338889 1318.0035497777772,-913.5288845017789 1318.0035497777772,-918.4380822777789 L1318.0035497777772,-926.7918600555566" style="stroke:#ffff00;stroke-width:1e-9;"/>
        </g>
        <!-- Text: 
A/F6 -->
        <g>
            <path d="M1570.0660249999999,-1620.2544574999922" style="stroke:#ffff00;stroke-width:1e-9;"/>
            <path d="M1512.466025,-1620.2544574999922 L1552.466025,-1633.5877908333255 L1512.466025,-1646.921124166659 M1523.577136111111,-1623.9580130555478 L1523.577136111111,-1643.2189019444368" style="stroke:#ffff00;stroke-width:1e-9;"/>
            <path d="M1552.466025,-1678.03223527777 L1512.466025,-1660.2544574999922" style="stroke:#ffff00;stroke-width:1e-9;"/>
            <path d="M1552.466025,-1709.1433463888811 L1552.466025,-1691.3655686111033 L1512.466025,-1691.3655686111033 M1534.6882472222221,-1691.3655686111033 L1534.6882472222221,-1709.1433463888811" style="stroke:#ffff00;stroke-width:1e-9;"/>
            <path d="M1552.4667024342516,-1735.8100130555479 L1552.4699633588493,-1735.8067813082805 C1547.8576668630226,-1727.8372288299315 1539.241190929094,-1722.4766797222144 1529.3726916666665,-1722.4766797222144 L1521.3549138888889,-1722.4766797222144 C1516.4457161128887,-1722.4766797222144 1512.466025,-1726.4563708351034 1512.466025,-1731.3655686111033 C1512.466025,-1736.2747663871032 1516.4457161128887,-1740.2544574999922 1521.3549138888889,-1740.2544574999922 L1525.7993583333332,-1740.2544574999922 C1530.7085561093331,-1740.2544574999922 1534.6882472222221,-1736.2747663871032 1534.6882472222221,-1731.3655686111033 L1534.6882472222221,-1723.0117908333254" style="stroke:#ffff00;stroke-width:1e-9;"/>
        </g>
        <!-- Polyline -->
        <path d="M772.75,-1466.8683034999995 L767.75,-1466.8683034999995 M767.75,-1466.8683034999995 L767.75,-1456.3683034999995 M767.75,-1456.3683034999995 L790.75,-1456.3683034999995 M790.75,-1456.3683034999995 L790.75,-1375.3068805000003 M790.75,-1375.3068805000003 L750.7739970000039,-1371.7207984999986 M750.7739970000039,-1371.7207984999986 L750.7739970000039,-1328.4758084999994 M750.7739970000039,-1328.4758084999994 L772.75,-1326.5044314999977 M772.75,-1326.5044314999977 L772.75,-1156.7321745000008 M772.75,-1156.7321745000008 L750.7739970000039,-1154.7607984999995 M750.7739970000039,-1154.7607984999995 L750.7739970000039,-1111.5158085000003 M750.7739970000039,-1111.5158085000003 L790.75,-1107.9297254999983 M790.75,-1107.9297254999983 L790.75,-1026.8683034999995 M790.75,-1026.8683034999995 L767.75,-1026.8683034999995 M767.75,-1026.8683034999995 L767.75,-1016.3683034999995 M767.75,-1016.3683034999995 L772.75,-1016.3683034999995 M772.75,-1016.3683034999995 L772.75,-866.8683034999995 M772.75,-866.8683034999995 L767.75,-866.8683034999995 M767.75,-866.8683034999995 L767.75,-856.3683034999995 M767.75,-856.3683034999995 L790.75,-856.3683034999995 M790.75,-856.3683034999995 L790.75,-775.3068805000003 M790.75,-775.3068805000003 L750.7739970000039,-771.7207984999986 M750.7739970000039,-771.7207984999986 L750.7739970000039,-728.4758084999994 M750.7739970000039,-728.4758084999994 L772.75,-726.5044314999977 M772.75,-726.5044314999977 L772.75,-566.8683034999995 M772.75,-566.8683034999995 L767.75,-566.8683034999995 M767.75,-566.8683034999995 L767.75,-556.3683034999995 M767.75,-556.3683034999995 L790.75,-556.3683034999995 M790.75,-556.3683034999995 L790.75,-475.30688050000026 M790.75,-475.30688050000026 L750.7739970000039,-471.72079849999864 M750.7739970000039,-471.72079849999864 L750.7739970000039,-428.4758084999994 M750.7739970000039,-428.4758084999994 L772.75,-426.50443149999774 M772.75,-426.50443149999774 L772.75,-266.86830349999946 M772.75,-266.86830349999946 L767.75,-266.86830349999946 M767.75,-266.86830349999946 L767.75,-256.36830349999946 M767.75,-256.36830349999946 L790.75,-256.36830349999946 M790.75,-256.36830349999946 L790.75,-175.30688050000026 M790.75,-175.30688050000026 L750.7739970000039,-171.72079849999864 M750.7739970000039,-171.72079849999864 L750.7739970000039,-128.4758084999994 M750.7739970000039,-128.4758084999994 L772.75,-126.50443149999774 M772.75,-126.50443149999774 L772.7500070000024,33.131696500000544 M772.7500070000024,33.131696500000544 L767.7500070000024,33.131696500000544 M767.7500070000024,33.131696500000544 L767.7500070000024,43.631696500000544 M767.7500070000024,43.631696500000544 L790.7500070000024,43.631696500000544 M790.7500070000024,43.631696500000544 L790.75,97.13169650000054 M790.75,97.13169650000054 L721.083335000003,97.13169650000054 M721.083335000003,97.13169650000054 L721.083335000003,107.63169650000054 M721.083335000003,107.63169650000054 L726.083335000003,107.63169650000054 M726.083335000003,107.63169650000054 L726.083335000003,147.13169650000054 M726.083335000003,147.13169650000054 L668.2500050000017,147.13169650000054 M668.2500050000017,147.13169650000054 L668.2499950000056,107.63169650000054 M668.2499950000056,107.63169650000054 L673.2499950000056,107.63169650000054 M673.2499950000056,107.63169650000054 L673.2499950000056,97.13169650000054 M673.2499950000056,97.13169650000054 L622.7499950000056,97.13169650000054 M622.7499950000056,97.13169650000054 L622.7499950000056,107.63169650000054 M622.7499950000056,107.63169650000054 L627.7499950000056,107.63169650000054 M627.7499950000056,107.63169650000054 L627.7499950000056,147.13169650000054 M627.7499950000056,147.13169650000054 L569.9166650000043,147.13169650000054 M569.9166650000043,147.13169650000054 L569.9166650000043,107.63169650000054 M569.9166650000043,107.63169650000054 L574.9166650000043,107.63169650000054 M574.9166650000043,107.63169650000054 L574.9166650000043,97.13169650000054 M574.9166650000043,97.13169650000054 L505.2499900000039,97.13169650000054 M505.2499900000039,97.13169650000054 L505.24999700000626,43.631696500000544 M505.24999700000626,43.631696500000544 L528.2500070000024,43.631696500000544 M528.2500070000024,43.631696500000544 L528.2500070000024,33.131696500000544 M528.2500070000024,33.131696500000544 L523.2500070000024,33.131696500000544 M523.2500070000024,33.131696500000544 L523.25,-126.50443149999774 M523.25,-126.50443149999774 L545.2260030000034,-128.4758084999994 M545.2260030000034,-128.4758084999994 L545.2260030000034,-171.72079849999864 M545.2260030000034,-171.72079849999864 L505.25,-175.30688050000026 M505.25,-175.30688050000026 L505.25,-256.36830349999946 M505.25,-256.36830349999946 L528.25,-256.36830349999946 M528.25,-256.36830349999946 L528.25,-266.86830349999946 M528.25,-266.86830349999946 L523.25,-266.86830349999946 M523.25,-266.86830349999946 L523.25,-426.50443149999774 M523.25,-426.50443149999774 L545.2260030000034,-428.4758084999994 M545.2260030000034,-428.4758084999994 L545.2260030000034,-471.72079849999864 M545.2260030000034,-471.72079849999864 L505.25,-475.30688050000026 M505.25,-475.30688050000026 L505.25,-556.3683034999995 M505.25,-556.3683034999995 L528.25,-556.3683034999995 M528.25,-556.3683034999995 L528.25,-566.8683034999995 M528.25,-566.8683034999995 L523.25,-566.8683034999995 M523.25,-566.8683034999995 L523.25,-726.5044314999977 M523.25,-726.5044314999977 L545.2260030000034,-728.4758084999994 M545.2260030000034,-728.4758084999994 L545.2260030000034,-771.7207984999986 M545.2260030000034,-771.7207984999986 L505.25,-775.3068805000003 M505.25,-775.3068805000003 L505.25,-856.3683034999995 M505.25,-856.3683034999995 L528.25,-856.3683034999995 M528.25,-856.3683034999995 L528.25,-866.8683034999995 M528.25,-866.8683034999995 L523.25,-866.8683034999995 M523.25,-866.8683034999995 L523.25,-1016.3683034999995 M523.25,-1016.3683034999995 L528.25,-1016.3683034999995 M528.25,-1016.3683034999995 L528.25,-1026.8683034999995 M528.25,-1026.8683034999995 L505.25,-1026.8683034999995 M505.25,-1026.8683034999995 L505.25,-1107.9297254999983 M505.25,-1107.9297254999983 L545.2260030000034,-1111.5158085000003 M545.2260030000034,-1111.5158085000003 L545.2260030000034,-1154.7607984999995 M545.2260030000034,-1154.7607984999995 L523.25,-1156.7321745000008 M523.25,-1156.7321745000008 L523.25,-1326.5044314999977 M523.25,-1326.5044314999977 L545.2260030000034,-1328.4758084999994 M545.2260030000034,-1328.4758084999994 L545.2260030000034,-1371.7207984999986 M545.2260030000034,-1371.7207984999986 L505.25,-1375.3068805000003 M505.25,-1375.3068805000003 L505.25,-1456.3683034999995 M505.25,-1456.3683034999995 L528.25,-1456.3683034999995 M528.25,-1456.3683034999995 L528.25,-1466.8683034999995 M528.25,-1466.8683034999995 L523.25,-1466.8683034999995 M523.25,-1466.8683034999995 L523.25,-1626.5044314999977 M523.25,-1626.5044314999977 L545.2260030000034,-1628.4758084999994 M545.2260030000034,-1628.4758084999994 L545.2260030000034,-1671.7207984999986 M545.2260030000034,-1671.7207984999986 L505.25,-1675.3068805000003 M505.25,-1675.3068805000003 L505.25,-1756.3683034999995 M505.25,-1756.3683034999995 L528.25,-1756.3683034999995 M528.25,-1756.3683034999995 L528.25,-1766.8683034999995 M528.25,-1766.8683034999995 L523.25,-1766.8683034999995 M523.25,-1766.8683034999995 L523.25,-1926.5044314999977 M523.25,-1926.5044314999977 L545.2260030000034,-1928.4758084999994 M545.2260030000034,-1928.4758084999994 L545.2260030000034,-1971.7207984999986 M545.2260030000034,-1971.7207984999986 L505.25,-1975.3068805000003 M505.25,-1975.3068805000003 L505.25,-2056.3683034999995 M505.25,-2056.3683034999995 L528.25,-2056.3683034999995 M528.25,-2056.3683034999995 L528.25,-2066.8683034999995 M528.25,-2066.8683034999995 L523.25,-2066.8683034999995 M523.25,-2066.8683034999995 L523.25,-2116.599508500003 M523.25,-2116.599508500003 L540.9999900000039,-2116.599508500003 M540.9999900000039,-2116.599508500003 L540.9999900000039,-2111.599508500003 M540.9999900000039,-2111.599508500003 L551.4999900000039,-2111.599508500003 M551.4999900000039,-2111.599508500003 L551.4999900000039,-2134.599508500003 M551.4999900000039,-2134.599508500003 L591.0000100000034,-2134.599508500003 M591.0000100000034,-2134.599508500003 L591.0000100000034,-2111.599508500003 M591.0000100000034,-2111.599508500003 L601.5000100000034,-2111.599508500003 M601.5000100000034,-2111.599508500003 L601.5000100000034,-2116.5970775000023 M601.5000100000034,-2116.5970775000023 L619.25,-2116.425321499999 M619.25,-2116.425321499999 L619.25,-2054.2800064999974 M619.25,-2054.2800064999974 L614.25,-2054.2800064999974 M614.25,-2054.2800064999974 L614.25,-2043.7793464999995 M614.25,-2043.7793464999995 L681.7468800000061,-2043.9572584999987 M681.7468800000061,-2043.9572584999987 L681.7468800000061,-2054.4566005000015 M681.7468800000061,-2054.4566005000015 L676.7468800000061,-2054.4566005000015 M676.7468800000061,-2054.4566005000015 L676.7468800000061,-2116.3683034999995 M676.7468800000061,-2116.3683034999995 L907.8861280000056,-2116.3683034999995 M907.8861280000056,-2116.3683034999995 L909.857505,-2094.3923005000033 M909.857505,-2094.3923005000033 L953.1024949999992,-2094.3923005000033 M953.1024949999992,-2094.3923005000033 L956.6885770000008,-2134.3683034999995 M956.6885770000008,-2134.3683034999995 L1037.75,-2134.3683034999995 M1037.75,-2134.3683034999995 L1037.75,-2111.3683034999995 M1037.75,-2111.3683034999995 L1048.25,-2111.3683034999995 M1048.25,-2111.3683034999995 L1048.25,-2116.3683034999995 M1048.25,-2116.3683034999995 L1197.75,-2116.3683034999995 M1197.75,-2116.3683034999995 L1197.75,-2111.3683034999995 M1197.75,-2111.3683034999995 L1208.25,-2111.3683034999995 M1208.25,-2111.3683034999995 L1208.25,-2134.368313500003 M1208.25,-2134.368313500003 L1283.8262109999996,-2134.3683034999995 M1283.8262109999996,-2134.3683034999995 L1283.8262109999996,-2070.2016385000024 M1283.8262109999996,-2070.2016385000024 L1244.3262109999996,-2070.2016385000024 M1244.3262109999996,-2070.2016385000024 L1244.3262109999996,-2075.2016385000024 M1244.3262109999996,-2075.2016385000024 L1233.8262109999996,-2075.2016385000024 M1233.8262109999996,-2075.2016385000024 L1233.8262109999996,-2006.3683085000011 M1233.8262109999996,-2006.3683085000011 L1244.3262109999996,-2006.3683085000011 M1244.3262109999996,-2006.3683085000011 L1244.3262109999996,-2011.3683085000011 M1244.3262109999996,-2011.3683085000011 L1283.8262109999996,-2011.3682984999978 M1283.8262109999996,-2011.3682984999978 L1283.8262109999996,-1971.8682984999978 M1283.8262109999996,-1971.8682984999978 L1244.3262109999996,-1971.8682984999978 M1244.3262109999996,-1971.8682984999978 L1244.3262109999996,-1976.8682984999978 M1244.3262109999996,-1976.8682984999978 L1233.8262109999996,-1976.8682984999978 M1233.8262109999996,-1976.8682984999978 L1233.8262109999996,-1908.0349684999965 M1233.8262109999996,-1908.0349684999965 L1244.3262109999996,-1908.0349684999965 M1244.3262109999996,-1908.0349684999965 L1244.3262109999996,-1913.0349684999965 M1244.3262109999996,-1913.0349684999965 L1283.8262109999996,-1913.0349684999965 M1283.8262109999996,-1913.0349684999965 L1283.8262109999996,-1848.8682935000033 M1283.8262109999996,-1848.8682935000033 L1208.25,-1848.8683034999995 M1208.25,-1848.8683034999995 L1208.25,-1871.8683034999995 M1208.25,-1871.8683034999995 L1197.75,-1871.8683034999995 M1197.75,-1871.8683034999995 L1197.75,-1866.8683034999995 M1197.75,-1866.8683034999995 L1048.25,-1866.8683034999995 M1048.25,-1866.8683034999995 L1048.25,-1871.8683034999995 M1048.25,-1871.8683034999995 L1037.75,-1871.8683034999995 M1037.75,-1871.8683034999995 L1037.75,-1848.8683034999995 M1037.75,-1848.8683034999995 L956.6885770000008,-1848.8683034999995 M956.6885770000008,-1848.8683034999995 L953.1024949999992,-1888.8443065000029 M953.1024949999992,-1888.8443065000029 L909.857505,-1888.8443065000029 M909.857505,-1888.8443065000029 L907.8861280000056,-1866.8683034999995 M907.8861280000056,-1866.8683034999995 L783.25,-1866.8683034999995 M783.25,-1866.8683034999995 L783.25,-1871.8683034999995 M783.25,-1871.8683034999995 L772.75,-1871.8683034999995 M772.75,-1871.8683034999995 L772.75,-1766.8683034999995 M772.75,-1766.8683034999995 L767.75,-1766.8683034999995 M767.75,-1766.8683034999995 L767.75,-1756.3683034999995 M767.75,-1756.3683034999995 L790.75,-1756.3683034999995 M790.75,-1756.3683034999995 L790.75,-1675.3068805000003 M790.75,-1675.3068805000003 L750.7739970000039,-1671.7207984999986 M750.7739970000039,-1671.7207984999986 L750.7739970000039,-1628.4758084999994 M750.7739970000039,-1628.4758084999994 L772.75,-1626.5044314999977 M772.75,-1626.5044314999977 L772.75,-1466.8683034999995 " style="stroke:#a44646;stroke-width:1e-9;"/>
        <!-- Polyline -->
        <path d="M1676.75,-557.7321745000008 L1654.7739970000039,-555.7607984999995 M1654.7739970000039,-555.7607984999995 L1654.7739970000039,-512.5158085000003 M1654.7739970000039,-512.5158085000003 L1694.75,-508.9297254999983 M1694.75,-508.9297254999983 L1694.75,-427.86830349999946 M1694.75,-427.86830349999946 L1671.75,-427.86830349999946 M1671.75,-427.86830349999946 L1671.75,-417.36830349999946 M1671.75,-417.36830349999946 L1676.75,-417.36830349999946 M1676.75,-417.36830349999946 L1676.75,-267.86830349999946 M1676.75,-267.86830349999946 L1671.75,-267.86830349999946 M1671.75,-267.86830349999946 L1671.75,-257.36830349999946 M1671.75,-257.36830349999946 L1694.75,-257.36830349999946 M1694.75,-257.36830349999946 L1694.75,-176.30688050000026 M1694.75,-176.30688050000026 L1654.7739970000039,-172.72079849999864 M1654.7739970000039,-172.72079849999864 L1654.7739970000039,-129.4758084999994 M1654.7739970000039,-129.4758084999994 L1676.75,-127.50443149999774 M1676.75,-127.50443149999774 L1676.75,103.63481650000176 M1676.75,103.63481650000176 L1614.838297000002,103.63481650000176 M1614.838297000002,103.63481650000176 L1614.838297000002,98.63481650000176 M1614.838297000002,98.63481650000176 L1604.3389549999993,98.63481650000176 M1604.3389549999993,98.63481650000176 L1604.161043,166.13169650000054 M1604.161043,166.13169650000054 L1614.6617030000052,166.13169650000054 M1614.6617030000052,166.13169650000054 L1614.6617030000052,161.13169650000054 M1614.6617030000052,161.13169650000054 L1676.8070179999995,161.13169650000054 M1676.8070179999995,161.13169650000054 L1676.9787740000029,178.88168649999716 M1676.9787740000029,178.88168649999716 L1671.9812050000037,178.88168649999716 M1671.9812050000037,178.88168649999716 L1671.9812050000037,189.38168649999716 M1671.9812050000037,189.38168649999716 L1694.9812050000037,189.38168649999716 M1694.9812050000037,189.38168649999716 L1694.9812050000037,228.88170649999665 M1694.9812050000037,228.88170649999665 L1671.9812050000037,228.88170649999665 M1671.9812050000037,228.88170649999665 L1671.9812050000037,239.38170649999665 M1671.9812050000037,239.38170649999665 L1676.9812050000037,239.38170649999665 M1676.9812050000037,239.38170649999665 L1676.9812050000037,257.13169650000054 M1676.9812050000037,257.13169650000054 L1627.25,257.13169650000054 M1627.25,257.13169650000054 L1627.25,252.13169650000054 M1627.25,252.13169650000054 L1616.75,252.13169650000054 M1616.75,252.13169650000054 L1616.75,275.13169650000054 M1616.75,275.13169650000054 L1535.6885770000008,275.13169650000054 M1535.6885770000008,275.13169650000054 L1532.1024949999992,235.15569349999714 M1532.1024949999992,235.15569349999714 L1488.857505,235.15569349999714 M1488.857505,235.15569349999714 L1486.8861280000056,257.13169650000054 M1486.8861280000056,257.13169650000054 L1327.25,257.13169650000054 M1327.25,257.13169650000054 L1327.25,252.13169650000054 M1327.25,252.13169650000054 L1316.75,252.13169650000054 M1316.75,252.13169650000054 L1316.75,275.13169650000054 M1316.75,275.13169650000054 L1235.6885770000008,275.13169650000054 M1235.6885770000008,275.13169650000054 L1232.1024949999992,235.15569349999714 M1232.1024949999992,235.15569349999714 L1188.857505,235.15569349999714 M1188.857505,235.15569349999714 L1186.8861280000056,257.13169650000054 M1186.8861280000056,257.13169650000054 L1027.25,257.1316894999982 M1027.25,257.1316894999982 L1027.25,252.13168949999817 M1027.25,252.13168949999817 L1016.75,252.13168949999817 M1016.75,252.13168949999817 L1016.75,275.13169950000156 M1016.75,275.13169950000156 L963.25,275.13170649999665 M963.25,275.13170649999665 L963.25,205.46503150000353 M963.25,205.46503150000353 L952.75,205.46503150000353 M952.75,205.46503150000353 L952.75,210.46503150000353 M952.75,210.46503150000353 L913.25,210.46503150000353 M913.25,210.46503150000353 L913.25,152.63170150000224 M913.25,152.63170150000224 L952.75,152.63170150000224 M952.75,152.63170150000224 L952.75,157.63170150000224 M952.75,157.63170150000224 L963.25,157.63170150000224 M963.25,157.63170150000224 L963.25,107.13170150000224 M963.25,107.13170150000224 L952.75,107.13170150000224 M952.75,107.13170150000224 L952.75,112.13170150000224 M952.75,112.13170150000224 L913.25,112.13169149999885 M913.25,112.13169149999885 L913.25,54.298361499997554 M913.25,54.298361499997554 L952.75,54.298361499997554 M952.75,54.298361499997554 L952.75,59.298361499997554 M952.75,59.298361499997554 L963.25,59.298361499997554 M963.25,59.298361499997554 L963.25,-10.368303499999456 M963.25,-10.368303499999456 L1016.75,-10.368310500001826 M1016.75,-10.368310500001826 L1016.75,12.631689499998174 M1016.75,12.631689499998174 L1027.25,12.631689499998174 M1027.25,12.631689499998174 L1027.25,7.631689499998174 M1027.25,7.631689499998174 L1186.8861280000056,7.631696500000544 M1186.8861280000056,7.631696500000544 L1188.857505,29.60769949999667 M1188.857505,29.60769949999667 L1232.1024949999992,29.60769949999667 M1232.1024949999992,29.60769949999667 L1235.6885770000008,-10.368303499999456 M1235.6885770000008,-10.368303499999456 L1316.75,-10.368303499999456 M1316.75,-10.368303499999456 L1316.75,12.631696500000544 M1316.75,12.631696500000544 L1327.25,12.631696500000544 M1327.25,12.631696500000544 L1327.25,7.631696500000544 M1327.25,7.631696500000544 L1432.25,7.631696500000544 M1432.25,7.631696500000544 L1432.25,-2.868303499999456 M1432.25,-2.868303499999456 L1427.25,-2.868303499999456 M1427.25,-2.868303499999456 L1427.25,-127.50443149999774 M1427.25,-127.50443149999774 L1449.2260030000034,-129.4758084999994 M1449.2260030000034,-129.4758084999994 L1449.2260030000034,-172.72079849999864 M1449.2260030000034,-172.72079849999864 L1409.25,-176.30688050000026 M1409.25,-176.30688050000026 L1409.25,-257.36830349999946 M1409.25,-257.36830349999946 L1432.25,-257.36830349999946 M1432.25,-257.36830349999946 L1432.25,-267.86830349999946 M1432.25,-267.86830349999946 L1427.25,-267.86830349999946 M1427.25,-267.86830349999946 L1427.25,-417.36830349999946 M1427.25,-417.36830349999946 L1432.25,-417.36830349999946 M1432.25,-417.36830349999946 L1432.25,-427.86830349999946 M1432.25,-427.86830349999946 L1409.25,-427.86830349999946 M1409.25,-427.86830349999946 L1409.25,-508.9297254999983 M1409.25,-508.9297254999983 L1449.2260030000034,-512.5158085000003 M1449.2260030000034,-512.5158085000003 L1449.2260030000034,-555.7607984999995 M1449.2260030000034,-555.7607984999995 L1427.25,-557.7321745000008 M1427.25,-557.7321745000008 L1427.25,-717.3683034999995 M1427.25,-717.3683034999995 L1432.25,-717.3683034999995 M1432.25,-717.3683034999995 L1432.25,-727.8683034999995 M1432.25,-727.8683034999995 L1409.25,-727.8683034999995 M1409.25,-727.8683034999995 L1409.249990000004,-803.4445144999991 M1409.249990000004,-803.4445144999991 L1473.4166650000043,-803.4445144999991 M1473.4166650000043,-803.4445144999991 L1473.4166650000043,-763.9445144999991 M1473.4166650000043,-763.9445144999991 L1468.4166650000043,-763.9445144999991 M1468.4166650000043,-763.9445144999991 L1468.4166650000043,-753.4445144999991 M1468.4166650000043,-753.4445144999991 L1537.2499950000056,-753.4445144999991 M1537.2499950000056,-753.4445144999991 L1537.2499950000056,-763.9445144999991 M1537.2499950000056,-763.9445144999991 L1532.2499950000056,-763.9445144999991 M1532.2499950000056,-763.9445144999991 L1532.2499950000056,-803.4445144999991 M1532.2499950000056,-803.4445144999991 L1571.7499950000056,-803.4445144999991 M1571.7499950000056,-803.4445144999991 L1571.7500050000017,-763.9445144999991 M1571.7500050000017,-763.9445144999991 L1566.7500050000017,-763.9445144999991 M1566.7500050000017,-763.9445144999991 L1566.7500050000017,-753.4445144999991 M1566.7500050000017,-753.4445144999991 L1635.583335000003,-753.4445144999991 M1635.583335000003,-753.4445144999991 L1635.583335000003,-763.9445144999991 M1635.583335000003,-763.9445144999991 L1630.583335000003,-763.9445144999991 M1630.583335000003,-763.9445144999991 L1630.583335000003,-803.4445144999991 M1630.583335000003,-803.4445144999991 L1694.75,-803.4445144999991 M1694.75,-803.4445144999991 L1694.7500100000034,-727.8683034999995 M1694.7500100000034,-727.8683034999995 L1671.75,-727.8683034999995 M1671.75,-727.8683034999995 L1671.75,-717.3683034999995 M1671.75,-717.3683034999995 L1676.75,-717.3683034999995 M1676.75,-717.3683034999995 L1676.75,-557.7321745000008 " style="stroke:#0000ff;stroke-width:1e-9;"/>
        <!-- Polyline -->
        <path d="M1389.4471049999993,-1049.1670545000015 L1384.4471049999993,-1049.1670545000015 M1384.4471049999993,-1049.1670545000015 L1384.4471049999993,-1038.6670545000015 M1384.4471049999993,-1038.6670545000015 L1407.4471049999993,-1038.6670545000015 M1407.4471049999993,-1038.6670545000015 L1407.4471049999993,-957.6056325000027 M1407.4471049999993,-957.6056325000027 L1367.4711020000032,-954.0195495000007 M1367.4711020000032,-954.0195495000007 L1367.4711020000032,-910.7745605000018 M1367.4711020000032,-910.7745605000018 L1389.4471049999993,-908.8031835000002 M1389.4471049999993,-908.8031835000002 L1389.4471049999993,-749.1670545000015 M1389.4471049999993,-749.1670545000015 L1384.4471049999993,-749.1670545000015 M1384.4471049999993,-749.1670545000015 L1384.4471049999993,-738.6670545000015 M1384.4471049999993,-738.6670545000015 L1407.4471049999993,-738.6670545000015 M1407.4471049999993,-738.6670545000015 L1407.4471049999993,-657.6056325000027 M1407.4471049999993,-657.6056325000027 L1367.4711020000032,-654.0195495000007 M1367.4711020000032,-654.0195495000007 L1367.4711020000032,-610.7745605000018 M1367.4711020000032,-610.7745605000018 L1389.4471049999993,-608.8031835000002 M1389.4471049999993,-608.8031835000002 L1389.4471049999993,-449.16705450000154 M1389.4471049999993,-449.16705450000154 L1384.4471049999993,-449.16705450000154 M1384.4471049999993,-449.16705450000154 L1384.4471049999993,-438.66705450000154 M1384.4471049999993,-438.66705450000154 L1407.4471049999993,-438.66705450000154 M1407.4471049999993,-438.66705450000154 L1407.4471049999993,-357.6056325000027 M1407.4471049999993,-357.6056325000027 L1367.4711020000032,-354.0195495000007 M1367.4711020000032,-354.0195495000007 L1367.4711020000032,-310.7745605000018 M1367.4711020000032,-310.7745605000018 L1389.4471049999993,-308.80318350000016 M1389.4471049999993,-308.80318350000016 L1389.4471120000017,-149.16705450000154 M1389.4471120000017,-149.16705450000154 L1384.4471120000017,-149.16705450000154 M1384.4471120000017,-149.16705450000154 L1384.4471120000017,-138.66705450000154 M1384.4471120000017,-138.66705450000154 L1407.4471120000017,-138.66705450000154 M1407.4471120000017,-138.66705450000154 L1407.4471049999993,-85.16705450000154 M1407.4471049999993,-85.16705450000154 L1337.7804400000023,-85.16705450000154 M1337.7804400000023,-85.16705450000154 L1337.7804400000023,-74.66705450000154 M1337.7804400000023,-74.66705450000154 L1342.7804400000023,-74.66705450000154 M1342.7804400000023,-74.66705450000154 L1342.7804400000023,-35.16705450000154 M1342.7804400000023,-35.16705450000154 L1284.947110000001,-35.16705450000154 M1284.947110000001,-35.16705450000154 L1284.9471000000049,-74.66705450000154 M1284.9471000000049,-74.66705450000154 L1289.9471000000049,-74.66705450000154 M1289.9471000000049,-74.66705450000154 L1289.9471000000049,-85.16705450000154 M1289.9471000000049,-85.16705450000154 L1239.4471000000049,-85.16705450000154 M1239.4471000000049,-85.16705450000154 L1239.4471000000049,-74.66705450000154 M1239.4471000000049,-74.66705450000154 L1244.4471000000049,-74.66705450000154 M1244.4471000000049,-74.66705450000154 L1244.4471000000049,-35.16705450000154 M1244.4471000000049,-35.16705450000154 L1186.6137700000036,-35.16705450000154 M1186.6137700000036,-35.16705450000154 L1186.6137700000036,-74.66705450000154 M1186.6137700000036,-74.66705450000154 L1191.6137700000036,-74.66705450000154 M1191.6137700000036,-74.66705450000154 L1191.6137700000036,-85.16705450000154 M1191.6137700000036,-85.16705450000154 L1121.9470950000032,-85.16705450000154 M1121.9470950000032,-85.16705450000154 L1121.9471020000055,-138.66705450000154 M1121.9471020000055,-138.66705450000154 L1144.9471120000017,-138.66705450000154 M1144.9471120000017,-138.66705450000154 L1144.9471120000017,-149.16705450000154 M1144.9471120000017,-149.16705450000154 L1139.9471120000017,-149.16705450000154 M1139.9471120000017,-149.16705450000154 L1139.9471049999993,-308.80318350000016 M1139.9471049999993,-308.80318350000016 L1161.9231080000027,-310.7745605000018 M1161.9231080000027,-310.7745605000018 L1161.9231080000027,-354.0195495000007 M1161.9231080000027,-354.0195495000007 L1121.9471049999993,-357.6056325000027 M1121.9471049999993,-357.6056325000027 L1121.9471049999993,-438.66705450000154 M1121.9471049999993,-438.66705450000154 L1144.9471049999993,-438.66705450000154 M1144.9471049999993,-438.66705450000154 L1144.9471049999993,-449.16705450000154 M1144.9471049999993,-449.16705450000154 L1139.9471049999993,-449.16705450000154 M1139.9471049999993,-449.16705450000154 L1139.9471049999993,-608.8031835000002 M1139.9471049999993,-608.8031835000002 L1161.9231080000027,-610.7745605000018 M1161.9231080000027,-610.7745605000018 L1161.9231080000027,-654.0195495000007 M1161.9231080000027,-654.0195495000007 L1121.9471049999993,-657.6056325000027 M1121.9471049999993,-657.6056325000027 L1121.9471049999993,-738.6670545000015 M1121.9471049999993,-738.6670545000015 L1144.9471049999993,-738.6670545000015 M1144.9471049999993,-738.6670545000015 L1144.9471049999993,-749.1670545000015 M1144.9471049999993,-749.1670545000015 L1139.9471049999993,-749.1670545000015 M1139.9471049999993,-749.1670545000015 L1139.9471049999993,-908.8031835000002 M1139.9471049999993,-908.8031835000002 L1161.9231080000027,-910.7745605000018 M1161.9231080000027,-910.7745605000018 L1161.9231080000027,-954.0195495000007 M1161.9231080000027,-954.0195495000007 L1121.9471049999993,-957.6056325000027 M1121.9471049999993,-957.6056325000027 L1121.9471049999993,-1038.6670545000015 M1121.9471049999993,-1038.6670545000015 L1144.9471049999993,-1038.6670545000015 M1144.9471049999993,-1038.6670545000015 L1144.9471049999993,-1049.1670545000015 M1144.9471049999993,-1049.1670545000015 L1139.9471049999993,-1049.1670545000015 M1139.9471049999993,-1049.1670545000015 L1139.9471049999993,-1208.8031835000002 M1139.9471049999993,-1208.8031835000002 L1161.9231080000027,-1210.7745605000018 M1161.9231080000027,-1210.7745605000018 L1161.9231080000027,-1254.0195495000007 M1161.9231080000027,-1254.0195495000007 L1121.9471049999993,-1257.6056325000027 M1121.9471049999993,-1257.6056325000027 L1121.9471049999993,-1338.6670545000015 M1121.9471049999993,-1338.6670545000015 L1144.9471049999993,-1338.6670545000015 M1144.9471049999993,-1338.6670545000015 L1144.9471049999993,-1349.1670545000015 M1144.9471049999993,-1349.1670545000015 L1139.9471180000037,-1349.1670545000015 M1139.9471180000037,-1349.1670545000015 L1139.9552900000053,-1511.243372500001 M1139.9552900000053,-1511.243372500001 L1144.450026000006,-1514.9196194999968 M1144.450026000006,-1514.9196194999968 L1159.0144160000054,-1497.1184845000025 M1159.0144160000054,-1497.1184845000025 L1167.1410060000053,-1503.7674314999967 M1167.1410060000053,-1503.7674314999967 L1163.974841000003,-1507.6372364999988 M1163.974841000003,-1507.6372364999988 L1179.0670830000017,-1519.9852834999983 M1179.0670830000017,-1519.9852834999983 L1182.2332530000058,-1516.1154755000025 M1182.2332530000058,-1516.1154755000025 L1190.359844999999,-1522.764423499997 M1190.359844999999,-1522.764423499997 L1175.795474000006,-1540.5655394999994 M1175.795474000006,-1540.5655394999994 L1189.7413970000052,-1551.9770044999968 M1189.7413970000052,-1551.9770044999968 L1162.6669390000025,-1585.0684144999977 M1162.6669390000025,-1585.0684144999977 L1176.331376000002,-1596.2482715000006 M1176.331376000002,-1596.2482715000006 L1179.4975420000046,-1592.3784664999985 M1179.4975420000046,-1592.3784664999985 L1187.624201999999,-1599.0274704999974 M1187.624201999999,-1599.0274704999974 L1173.0598400000017,-1616.8285755000034 M1173.0598400000017,-1616.8285755000034 L1203.6312350000007,-1641.8412285000013 M1203.6312350000007,-1641.8412285000013 L1218.1955970000054,-1624.0401235000027 M1218.1955970000054,-1624.0401235000027 L1226.322189000006,-1630.6890714999972 M1226.322189000006,-1630.6890714999972 L1223.1560230000032,-1634.5588764999993 M1223.1560230000032,-1634.5588764999993 L1294.403683000004,-1692.8517345 M1294.403683000004,-1692.8517345 L1297.5698489999995,-1688.981929499998 M1297.5698489999995,-1688.981929499998 L1305.696441,-1695.6308774999998 M1305.696441,-1695.6308774999998 L1291.1320720000003,-1713.4319905000011 M1291.1320720000003,-1713.4319905000011 L1349.625125999999,-1761.2893445000009 M1349.625125999999,-1761.2893445000009 L1390.2575849999994,-1711.6268415000013 M1390.2575849999994,-1711.6268415000013 L1359.686121000006,-1686.614132499999 M1359.686121000006,-1686.614132499999 L1356.5199560000037,-1690.4839385000014 M1356.5199560000037,-1690.4839385000014 L1348.3933640000032,-1683.8349904999995 M1348.3933640000032,-1683.8349904999995 L1391.9809100000057,-1630.5606705000027 M1391.9809100000057,-1630.5606705000027 L1400.1075010000059,-1637.2096184999973 M1400.1075010000059,-1637.2096184999973 L1396.9413360000035,-1641.0794234999994 M1396.9413360000035,-1641.0794234999994 L1427.512806000006,-1666.0921254999994 M1427.512806000006,-1666.0921254999994 L1452.5255150000012,-1635.5206614999988 M1452.5255150000012,-1635.5206614999988 L1421.9540510000006,-1610.5079524999965 M1421.9540510000006,-1610.5079524999965 L1418.7878850000052,-1614.3777574999986 M1418.7878850000052,-1614.3777574999986 L1410.661294000005,-1607.7288094999967 M1410.661294000005,-1607.7288094999967 L1454.2488400000002,-1554.4544895 M1454.2488400000002,-1554.4544895 L1462.3754310000004,-1561.1034375000017 M1462.3754310000004,-1561.1034375000017 L1459.2092660000053,-1564.973243499997 M1459.2092660000053,-1564.973243499997 L1489.7807290000055,-1589.9859524999993 M1489.7807290000055,-1589.9859524999993 L1530.4131940000007,-1540.3234424999973 M1530.4131940000007,-1540.3234424999973 L1471.9201410000023,-1492.4660884999976 M1471.9201410000023,-1492.4660884999976 L1457.3557780000046,-1510.2671934999962 M1457.3557780000046,-1510.2671934999962 L1449.2291870000045,-1503.6182455000016 M1449.2291870000045,-1503.6182455000016 L1452.3953519999995,-1499.7484404999996 M1452.3953519999995,-1499.7484404999996 L1389.4358290000018,-1448.2367404999968 M1389.4358290000018,-1448.2367404999968 L1389.4470770000044,-1349.1670545000015 M1389.4470770000044,-1349.1670545000015 L1384.4471049999993,-1349.1670545000015 M1384.4471049999993,-1349.1670545000015 L1384.4471049999993,-1338.6670545000015 M1384.4471049999993,-1338.6670545000015 L1407.4471049999993,-1338.6670545000015 M1407.4471049999993,-1338.6670545000015 L1407.4471049999993,-1257.6056325000027 M1407.4471049999993,-1257.6056325000027 L1367.4711020000032,-1254.0195495000007 M1367.4711020000032,-1254.0195495000007 L1367.4711020000032,-1210.7745605000018 M1367.4711020000032,-1210.7745605000018 L1389.4471049999993,-1208.8031835000002 M1389.4471049999993,-1208.8031835000002 L1389.4471049999993,-1049.1670545000015 " style="stroke:#0000ff;stroke-width:1e-9;"/>
        <!-- Polyline -->
        <path d="M1087.9350110000014,-1197.3526474999962 L1082.9350110000014,-1197.3526474999962 M1082.9350110000014,-1197.3526474999962 L1082.9350110000014,-1186.8526474999962 M1082.9350110000014,-1186.8526474999962 L1105.9350110000014,-1186.8526474999962 M1105.9350110000014,-1186.8526474999962 L1105.9350110000014,-1105.7912254999974 M1105.9350110000014,-1105.7912254999974 L1065.959007000005,-1102.2051425000027 M1065.959007000005,-1102.2051425000027 L1065.959007000005,-1058.9601524999962 M1065.959007000005,-1058.9601524999962 L1087.9350110000014,-1056.9887765000021 M1087.9350110000014,-1056.9887765000021 L1087.9350110000014,-897.3526474999962 M1087.9350110000014,-897.3526474999962 L1082.9350110000014,-897.3526474999962 M1082.9350110000014,-897.3526474999962 L1082.9350110000014,-886.8526474999962 M1082.9350110000014,-886.8526474999962 L1105.9350110000014,-886.8526474999962 M1105.9350110000014,-886.8526474999962 L1105.9350110000014,-805.7912254999974 M1105.9350110000014,-805.7912254999974 L1065.959007000005,-802.2051425000027 M1065.959007000005,-802.2051425000027 L1065.959007000005,-758.9601524999962 M1065.959007000005,-758.9601524999962 L1087.9350110000014,-756.9887765000021 M1087.9350110000014,-756.9887765000021 L1087.9350110000014,-597.3526474999962 M1087.9350110000014,-597.3526474999962 L1082.9350110000014,-597.3526474999962 M1082.9350110000014,-597.3526474999962 L1082.9350110000014,-586.8526474999962 M1082.9350110000014,-586.8526474999962 L1105.9350110000014,-586.8526474999962 M1105.9350110000014,-586.8526474999962 L1105.9350110000014,-505.7912254999974 M1105.9350110000014,-505.7912254999974 L1065.959007000005,-502.2051425000027 M1065.959007000005,-502.2051425000027 L1065.959007000005,-458.9601524999962 M1065.959007000005,-458.9601524999962 L1087.9350110000014,-456.98877650000213 M1087.9350110000014,-456.98877650000213 L1087.9350180000038,-297.352624500003 M1087.9350180000038,-297.352624500003 L1082.9350180000038,-297.352624500003 M1082.9350180000038,-297.352624500003 L1082.9350170000034,-286.852624500003 M1082.9350170000034,-286.852624500003 L1105.9350170000034,-286.8526225000023 M1105.9350170000034,-286.8526225000023 L1105.9350010000053,-183.35262250000233 M1105.9350010000053,-183.35262250000233 L1036.268326000005,-183.35262949999742 M1036.268326000005,-183.35262949999742 L1036.2683250000046,-172.85262949999742 M1036.2683250000046,-172.85262949999742 L1041.2683250000046,-172.85262849999708 M1041.2683250000046,-172.85262849999708 L1041.2683210000032,-133.35262849999708 M1041.2683210000032,-133.35262849999708 L983.4349910000019,-133.3526344999991 M983.4349910000019,-133.3526344999991 L983.4349849999999,-172.8526344999991 M983.4349849999999,-172.8526344999991 L988.4349849999999,-172.85263349999877 M988.4349849999999,-172.85263349999877 L988.4349860000002,-183.35263349999877 M988.4349860000002,-183.35263349999877 L937.9349860000002,-183.35263850000047 M937.9349860000002,-183.35263850000047 L937.9349849999999,-172.85263850000047 M937.9349849999999,-172.85263850000047 L942.9349849999999,-172.85263750000013 M942.9349849999999,-172.85263750000013 L942.9349810000058,-133.35263750000013 M942.9349810000058,-133.35263750000013 L885.1016510000045,-133.35264350000216 M885.1016510000045,-133.35264350000216 L885.1016550000058,-172.85264350000216 M885.1016550000058,-172.85264350000216 L890.1016550000058,-172.85264250000182 M890.1016550000058,-172.85264250000182 L890.1016560000062,-183.35264250000182 M890.1016560000062,-183.35264250000182 L820.4349829999992,-183.35264949999691 M820.4349829999992,-183.35264949999691 L820.435000000005,-286.8526494999969 M820.435000000005,-286.8526494999969 L843.4350100000011,-286.85264749999624 M843.4350100000011,-286.85264749999624 L843.4350110000014,-297.35264749999624 M843.4350110000014,-297.35264749999624 L838.4350110000014,-297.35264749999624 M838.4350110000014,-297.35264749999624 L838.4350110000014,-456.98877650000213 M838.4350110000014,-456.98877650000213 L860.4110140000048,-458.9601524999962 M860.4110140000048,-458.9601524999962 L860.4110140000048,-502.2051425000027 M860.4110140000048,-502.2051425000027 L820.4350110000014,-505.7912254999974 M820.4350110000014,-505.7912254999974 L820.4350110000014,-586.8526474999962 M820.4350110000014,-586.8526474999962 L843.4350110000014,-586.8526474999962 M843.4350110000014,-586.8526474999962 L843.4350110000014,-597.3526474999962 M843.4350110000014,-597.3526474999962 L838.4350110000014,-597.3526474999962 M838.4350110000014,-597.3526474999962 L838.4350110000014,-756.9887765000021 M838.4350110000014,-756.9887765000021 L860.4110140000048,-758.9601524999962 M860.4110140000048,-758.9601524999962 L860.4110140000048,-802.2051425000027 M860.4110140000048,-802.2051425000027 L820.4350110000014,-805.7912254999974 M820.4350110000014,-805.7912254999974 L820.4350110000014,-886.8526474999962 M820.4350110000014,-886.8526474999962 L843.4350110000014,-886.8526474999962 M843.4350110000014,-886.8526474999962 L843.4350110000014,-897.3526474999962 M843.4350110000014,-897.3526474999962 L838.4350110000014,-897.3526474999962 M838.4350110000014,-897.3526474999962 L838.4350110000014,-1056.9887765000021 M838.4350110000014,-1056.9887765000021 L860.4110140000048,-1058.9601524999962 M860.4110140000048,-1058.9601524999962 L860.4110140000048,-1102.2051425000027 M860.4110140000048,-1102.2051425000027 L820.4350110000014,-1105.7912254999974 M820.4350110000014,-1105.7912254999974 L820.4350110000014,-1186.8526474999962 M820.4350110000014,-1186.8526474999962 L843.4350110000014,-1186.8526474999962 M843.4350110000014,-1186.8526474999962 L843.4350110000014,-1197.3526474999962 M843.4350110000014,-1197.3526474999962 L838.4350110000014,-1197.3526474999962 M838.4350110000014,-1197.3526474999962 L838.4350110000014,-1356.9887765000021 M838.4350110000014,-1356.9887765000021 L860.4110140000048,-1358.9601524999962 M860.4110140000048,-1358.9601524999962 L860.4110140000048,-1402.2051425000027 M860.4110140000048,-1402.2051425000027 L820.4350110000014,-1405.7912254999974 M820.4350110000014,-1405.7912254999974 L820.4350110000014,-1486.8526474999962 M820.4350110000014,-1486.8526474999962 L843.4350110000014,-1486.8526474999962 M843.4350110000014,-1486.8526474999962 L843.4350110000014,-1497.3526474999962 M843.4350110000014,-1497.3526474999962 L838.4350110000014,-1497.3526474999962 M838.4350110000014,-1497.3526474999962 L838.4350110000014,-1646.8526474999962 M838.4350110000014,-1646.8526474999962 L843.4350110000014,-1646.8526474999962 M843.4350110000014,-1646.8526474999962 L843.4350110000014,-1657.3526474999962 M843.4350110000014,-1657.3526474999962 L820.4350010000053,-1657.3526474999962 M820.4350010000053,-1657.3526474999962 L820.4350020000056,-1682.9288585000031 M820.4350020000056,-1682.9288585000031 L884.6016670000026,-1682.9288585000031 M884.6016670000026,-1682.9288585000031 L884.6016670000026,-1643.4288585000031 M884.6016670000026,-1643.4288585000031 L879.6016670000026,-1643.4288585000031 M879.6016670000026,-1643.4288585000031 L879.6016670000026,-1632.9288585000031 M879.6016670000026,-1632.9288585000031 L948.4349970000039,-1632.9288585000031 M948.4349970000039,-1632.9288585000031 L948.4349970000039,-1643.4288585000031 M948.4349970000039,-1643.4288585000031 L943.4349970000039,-1643.4288585000031 M943.4349970000039,-1643.4288585000031 L943.435007,-1682.9288585000031 M943.435007,-1682.9288585000031 L982.935007,-1682.9288585000031 M982.935007,-1682.9288585000031 L982.935007,-1643.4288585000031 M982.935007,-1643.4288585000031 L977.935007,-1643.4288585000031 M977.935007,-1643.4288585000031 L977.935007,-1632.9288585000031 M977.935007,-1632.9288585000031 L1046.7683370000013,-1632.9288585000031 M1046.7683370000013,-1632.9288585000031 L1046.7683370000013,-1643.4288585000031 M1046.7683370000013,-1643.4288585000031 L1041.7683370000013,-1643.4288585000031 M1041.7683370000013,-1643.4288585000031 L1041.7683370000013,-1682.9288585000031 M1041.7683370000013,-1682.9288585000031 L1105.9350279999999,-1682.9288585000031 M1105.9350279999999,-1682.9288585000031 L1105.936576,-1657.3427345000018 M1105.936576,-1657.3427345000018 L1082.9365910000051,-1657.3427345000018 M1082.9365910000051,-1657.3427345000018 L1082.9365910000051,-1646.8427345000018 M1082.9365910000051,-1646.8427345000018 L1087.9365890000045,-1646.8427345000018 M1087.9365890000045,-1646.8427345000018 L1087.935013000002,-1497.3526474999962 M1087.935013000002,-1497.3526474999962 L1082.9350110000014,-1497.3526474999962 M1082.9350110000014,-1497.3526474999962 L1082.9350110000014,-1486.8526474999962 M1082.9350110000014,-1486.8526474999962 L1105.9350110000014,-1486.8526474999962 M1105.9350110000014,-1486.8526474999962 L1105.9350110000014,-1405.7912254999974 M1105.9350110000014,-1405.7912254999974 L1065.959007000005,-1402.2051425000027 M1065.959007000005,-1402.2051425000027 L1065.959007000005,-1358.9601524999962 M1065.959007000005,-1358.9601524999962 L1087.9350110000014,-1356.9887765000021 M1087.9350110000014,-1356.9887765000021 L1087.9350110000014,-1197.3526474999962 " style="stroke:#0000ff;stroke-width:1e-9;"/>
        <!-- Polyline -->
        <path d="M1451,81.38169650000054 L1421,81.38169650000054 M1421,81.38169650000054 L1421,93.38169650000054 M1421,93.38169650000054 L1426,93.38169650000054 M1426,93.38169650000054 L1426,171.38169650000054 M1426,171.38169650000054 L1421,171.38169650000054 M1421,171.38169650000054 L1421,183.38169650000054 M1421,183.38169650000054 L1451,183.38169650000054 M1451,183.38169650000054 L1451,171.38169650000054 M1451,171.38169650000054 L1446,171.38169650000054 M1446,171.38169650000054 L1446,93.38169650000054 M1446,93.38169650000054 L1451,93.38169650000054 M1451,93.38169650000054 L1451,81.38169650000054 " style="stroke:#00ffff;stroke-width:1e-9;"/>
        <!-- Polyline -->
        <path d="M1513,-207.61830349999946 L1501,-207.61830349999946 M1501,-207.61830349999946 L1501,-177.61830349999946 M1501,-177.61830349999946 L1513,-177.61830349999946 M1513,-177.61830349999946 L1513,-182.61830349999946 M1513,-182.61830349999946 L1591,-182.61830349999946 M1591,-182.61830349999946 L1591,-177.61830349999946 M1591,-177.61830349999946 L1603,-177.61830349999946 M1603,-177.61830349999946 L1603,-207.61830349999946 M1603,-207.61830349999946 L1591,-207.61830349999946 M1591,-207.61830349999946 L1591,-202.61830349999946 M1591,-202.61830349999946 L1513,-202.61830349999946 M1513,-202.61830349999946 L1513,-207.61830349999946 " style="stroke:#00ffff;stroke-width:1e-9;"/>
        <!-- Polyline -->
        <path d="M924.1849930000026,-237.1026395000008 L912.1849930000026,-237.10264050000114 M912.1849930000026,-237.10264050000114 L912.1849900000016,-207.10264050000114 M912.1849900000016,-207.10264050000114 L924.1849900000016,-207.1026395000008 M924.1849900000016,-207.1026395000008 L924.1849910000019,-212.1026395000008 M924.1849910000019,-212.1026395000008 L1002.1849910000019,-212.10263249999844 M1002.1849910000019,-212.10263249999844 L1002.1849900000016,-207.10263249999844 M1002.1849900000016,-207.10263249999844 L1014.1849900000016,-207.1026314999981 M1014.1849900000016,-207.1026314999981 L1014.1849930000026,-237.1026314999981 M1014.1849930000026,-237.1026314999981 L1002.1849930000026,-237.10263249999844 M1002.1849930000026,-237.10263249999844 L1002.1849930000026,-232.10263249999844 M1002.1849930000026,-232.10263249999844 L924.1849930000026,-232.1026395000008 M924.1849930000026,-232.1026395000008 L924.1849930000026,-237.1026395000008 " style="stroke:#00ffff;stroke-width:1e-9;"/>
        <!-- Polyline -->
        <path d="M687,-806.6183034999995 L687,-801.6183034999995 M687,-801.6183034999995 L609,-801.6183034999995 M609,-801.6183034999995 L609,-806.6183034999995 M609,-806.6183034999995 L597,-806.6183034999995 M597,-806.6183034999995 L597,-776.6183034999995 M597,-776.6183034999995 L609,-776.6183034999995 M609,-776.6183034999995 L609,-781.6183034999995 M609,-781.6183034999995 L687,-781.6183034999995 M687,-781.6183034999995 L687,-776.6183034999995 M687,-776.6183034999995 L699,-776.6183034999995 M699,-776.6183034999995 L699,-806.6183034999995 M699,-806.6183034999995 L687,-806.6183034999995 " style="stroke:#00ffff;stroke-width:1e-9;"/>
        <!-- Polyline -->
        <path d="M677,-1106.6183034999995 L677,-1101.6183034999995 M677,-1101.6183034999995 L619,-1101.6183034999995 M619,-1101.6183034999995 L619,-1106.6183034999995 M619,-1106.6183034999995 L607,-1106.6183034999995 M607,-1106.6183034999995 L607,-1076.6183034999995 M607,-1076.6183034999995 L619,-1076.6183034999995 M619,-1076.6183034999995 L619,-1081.6183034999995 M619,-1081.6183034999995 L677,-1081.6183034999995 M677,-1081.6183034999995 L677,-1076.6183034999995 M677,-1076.6183034999995 L689,-1076.6183034999995 M689,-1076.6183034999995 L689,-1106.6183034999995 M689,-1106.6183034999995 L677,-1106.6183034999995 " style="stroke:#00ffff;stroke-width:1e-9;"/>
        <!-- Polyline -->
        <path d="M1225.6971049999993,-1258.9170545000015 L1225.6971049999993,-1263.9170545000015 M1225.6971049999993,-1263.9170545000015 L1303.6971049999993,-1263.9170545000015 M1303.6971049999993,-1263.9170545000015 L1303.6971049999993,-1258.9170545000015 M1303.6971049999993,-1258.9170545000015 L1315.6971049999993,-1258.9170545000015 M1315.6971049999993,-1258.9170545000015 L1315.6971049999993,-1288.9170545000015 M1315.6971049999993,-1288.9170545000015 L1303.6971049999993,-1288.9170545000015 M1303.6971049999993,-1288.9170545000015 L1303.6971049999993,-1283.9170545000015 M1303.6971049999993,-1283.9170545000015 L1225.6971049999993,-1283.9170545000015 M1225.6971049999993,-1283.9170545000015 L1225.6971049999993,-1288.9170545000015 M1225.6971049999993,-1288.9170545000015 L1213.6971049999993,-1288.9170545000015 M1213.6971049999993,-1288.9170545000015 L1213.6971049999993,-1258.9170545000015 M1213.6971049999993,-1258.9170545000015 L1225.6971049999993,-1258.9170545000015 " style="stroke:#00ffff;stroke-width:1e-9;"/>
        <!-- Polyline -->
        <path d="M1234.5363300000026,-1463.3331315000032 L1243.823863000005,-1470.9319295000023 M1243.823863000005,-1470.9319295000023 L1240.6576980000027,-1474.801734499997 M1240.6576980000027,-1474.801734499997 L1270.068220000001,-1498.8645945000026 M1270.068220000001,-1498.8645945000026 L1273.2343850000034,-1494.9947885000001 M1273.2343850000034,-1494.9947885000001 L1282.5219180000058,-1502.5935864999992 M1282.5219180000058,-1502.5935864999992 L1263.5249240000048,-1525.8124194999982 M1263.5249240000048,-1525.8124194999982 L1254.2373910000024,-1518.2136214999991 M1254.2373910000024,-1518.2136214999991 L1257.403557000005,-1514.343816499997 M1257.403557000005,-1514.343816499997 L1227.9930349999995,-1490.2809564999989 M1227.9930349999995,-1490.2809564999989 L1224.826869000004,-1494.1507625000013 M1224.826869000004,-1494.1507625000013 L1215.5393360000016,-1486.5519645000022 M1215.5393360000016,-1486.5519645000022 L1234.5363300000026,-1463.3331315000032 " style="stroke:#00ffff;stroke-width:1e-9;"/>
        <!-- Polyline -->
        <path d="M1338.4716240000052,-1514.748831500001 L1361.6904570000042,-1533.745825500002 M1361.6904570000042,-1533.745825500002 L1354.0916600000055,-1543.0333594999975 M1354.0916600000055,-1543.0333594999975 L1350.221854000003,-1539.867193500002 M1350.221854000003,-1539.867193500002 L1313.494332000002,-1584.756937500002 M1313.494332000002,-1584.756937500002 L1317.3641370000041,-1587.9231034999975 M1317.3641370000041,-1587.9231034999975 L1309.7653400000054,-1597.2106365 M1309.7653400000054,-1597.2106365 L1286.546506999999,-1578.213642499999 M1286.546506999999,-1578.213642499999 L1294.1453040000051,-1568.9261084999962 M1294.1453040000051,-1568.9261084999962 L1298.0151100000003,-1572.092274499999 M1298.0151100000003,-1572.092274499999 L1334.7426320000013,-1527.2025304999988 M1334.7426320000013,-1527.2025304999988 L1330.8728269999992,-1524.0363645000034 M1330.8728269999992,-1524.0363645000034 L1338.4716240000052,-1514.748831500001 " style="stroke:#00ffff;stroke-width:1e-9;"/>
        <!-- Polyline -->
        <path d="M687,-1860.6183034999995 L699,-1860.6183034999995 M699,-1860.6183034999995 L699,-1890.6183034999995 M699,-1890.6183034999995 L687,-1890.6183034999995 M687,-1890.6183034999995 L687,-1885.6183034999995 M687,-1885.6183034999995 L609,-1885.6183034999995 M609,-1885.6183034999995 L609,-1890.6183034999995 M609,-1890.6183034999995 L597,-1890.6183034999995 M597,-1890.6183034999995 L597,-1860.6183034999995 M597,-1860.6183034999995 L609,-1860.6183034999995 M609,-1860.6183034999995 L609,-1865.6183034999995 M609,-1865.6183034999995 L687,-1865.6183034999995 M687,-1865.6183034999995 L687,-1860.6183034999995 " style="stroke:#00ffff;stroke-width:1e-9;"/>
        <!-- Polyline -->
        <path d="M958,-1940.6183034999995 L988,-1940.6183034999995 M988,-1940.6183034999995 L988,-1952.6183034999995 M988,-1952.6183034999995 L983,-1952.6183034999995 M983,-1952.6183034999995 L983,-2030.6183034999995 M983,-2030.6183034999995 L988,-2030.6183034999995 M988,-2030.6183034999995 L988,-2042.6183034999995 M988,-2042.6183034999995 L958,-2042.6183034999995 M958,-2042.6183034999995 L958,-2030.6183034999995 M958,-2030.6183034999995 L963,-2030.6183034999995 M963,-2030.6183034999995 L963,-1952.6183034999995 M963,-1952.6183034999995 L958,-1952.6183034999995 M958,-1952.6183034999995 L958,-1940.6183034999995 " style="stroke:#00ffff;stroke-width:1e-9;"/>
        <!-- Polyline -->
        <path d="M1465.086138000006,-1898.0444684999966 L1465.086138000006,-1868.0444684999966 M1465.086138000006,-1868.0444684999966 L1477.086138000006,-1868.0444684999966 M1477.086138000006,-1868.0444684999966 L1477.086138000006,-1873.0444684999966 M1477.086138000006,-1873.0444684999966 L1535.086138000006,-1873.0444684999966 M1535.086138000006,-1873.0444684999966 L1535.086138000006,-1868.0444684999966 M1535.086138000006,-1868.0444684999966 L1547.086138000006,-1868.0444684999966 M1547.086138000006,-1868.0444684999966 L1547.086138000006,-1898.0444684999966 M1547.086138000006,-1898.0444684999966 L1535.086138000006,-1898.0444684999966 M1535.086138000006,-1898.0444684999966 L1535.086138000006,-1893.0444684999966 M1535.086138000006,-1893.0444684999966 L1477.086138000006,-1893.0444684999966 M1477.086138000006,-1893.0444684999966 L1477.086138000006,-1898.0444684999966 M1477.086138000006,-1898.0444684999966 L1465.086138000006,-1898.0444684999966 " style="stroke:#00ffff;stroke-width:1e-9;"/>
    </g>
</svg>
