999
dxflib 3.7.5.0
  0
SECTION
  2
HEADER
  9
$ACADVER
  1
AC1015
  9
$HANDSEED
  5
FFFF
  9
$DIMADEC
 70
0
  9
$DIMASZ
 40
0.125
  9
$DIMAUNIT
 70
0
  9
$DIMAZIN
 70
2
  9
$DIMDEC
 70
4
  9
$DIMEXE
 40
0.0625
  9
$DIMEXO
 40
0.03125
  9
$DIMGAP
 40
0.625
  9
$DIMLUNIT
 70
3
  9
$DIMSCALE
 40
1.0
  9
$DIMTSZ
 40
0.0
  9
$DIMTXT
 40
0.125
  9
$DIMZIN
 70
8
  9
$DWGCODEPAGE
  3
ANSI_1252
  9
$INSUNITS
 70
1
  0
ENDSEC
  0
SECTION
  2
TABLES
  0
TABLE
  2
VPORT
  5
8
100
AcDbSymbolTable
 70
1
  0
VPORT
  5
30
100
AcDbSymbolTableRecord
100
AcDbViewportTableRecord
  2
*Active
 70
0
 10
0.0
 20
0.0
 11
1.0
 21
1.0
 12
286.30555555555549
 22
148.5
 13
0.0
 23
0.0
 14
10.0
 24
10.0
 15
10.0
 25
10.0
 16
0.0
 26
0.0
 36
1.0
 17
0.0
 27
0.0
 37
0.0
 40
297.0
 41
1.92798353909465
 42
50.0
 43
0.0
 44
0.0
 50
0.0
 51
0.0
 71
0
 72
100
 73
1
 74
3
 75
1
 76
1
 77
0
 78
0
281
0
 65
1
110
0.0
120
0.0
130
0.0
111
1.0
121
0.0
131
0.0
112
0.0
122
1.0
132
0.0
 79
0
146
0.0
  0
ENDTAB
  0
TABLE
  2
LTYPE
  5
5
100
AcDbSymbolTable
 70
41
  0
LTYPE
  5
16
100
AcDbSymbolTableRecord
100
AcDbLinetypeTableRecord
  2
Continuous
 70
0
  3
Solid line
 72
65
 73
0
 40
0.0
  0
LTYPE
  5
31
100
AcDbSymbolTableRecord
100
AcDbLinetypeTableRecord
  2
ACAD_ISO15W100
 70
0
  3
ISO double-dash triple-dot __ __ . . . __ __ . .
 72
65
 73
10
 40
39.0
 49
12.0
 74
0
 49
-3.0
 74
0
 49
12.0
 74
0
 49
-3.0
 74
0
 49
0.0
 74
0
 49
-3.0
 74
0
 49
0.0
 74
0
 49
-3.0
 74
0
 49
0.0
 74
0
 49
-3.0
 74
0
  0
LTYPE
  5
32
100
AcDbSymbolTableRecord
100
AcDbLinetypeTableRecord
  2
DIVIDE
 70
0
  3
Divide ____ . . ____ . . ____ . . ____ . . ____
 72
65
 73
6
 40
31.75
 49
12.699999999999999
 74
0
 49
-6.3499999999999996
 74
0
 49
0.0
 74
0
 49
-6.3499999999999996
 74
0
 49
0.0
 74
0
 49
-6.3499999999999996
 74
0
  0
LTYPE
  5
33
100
AcDbSymbolTableRecord
100
AcDbLinetypeTableRecord
  2
ACAD_ISO10W100
 70
0
  3
ISO dash dot __ . __ . __ . __ . __ . __ . __ . 
 72
65
 73
4
 40
18.0
 49
12.0
 74
0
 49
-3.0
 74
0
 49
0.0
 74
0
 49
-3.0
 74
0
  0
LTYPE
  5
34
100
AcDbSymbolTableRecord
100
AcDbLinetypeTableRecord
  2
ACAD_ISO04W100
 70
0
  3
ISO long-dash dot ____ . ____ . ____ . ____ . _
 72
65
 73
4
 40
30.0
 49
24.0
 74
0
 49
-3.0
 74
0
 49
0.0
 74
0
 49
-3.0
 74
0
  0
LTYPE
  5
35
100
AcDbSymbolTableRecord
100
AcDbLinetypeTableRecord
  2
CENTER2
 70
0
  3
Center (.5x) ___ _ ___ _ ___ _ ___ _ ___ _ ___
 72
65
 73
4
 40
28.575000000000003
 49
19.050000000000001
 74
0
 49
-3.1749999999999998
 74
0
 49
3.1749999999999998
 74
0
 49
-3.1749999999999998
 74
0
  0
LTYPE
  5
36
100
AcDbSymbolTableRecord
100
AcDbLinetypeTableRecord
  2
ACAD_ISO11W100
 70
0
  3
ISO double-dash dot __ __ . __ __ . __ __ . __ _
 72
65
 73
6
 40
33.0
 49
12.0
 74
0
 49
-3.0
 74
0
 49
12.0
 74
0
 49
-3.0
 74
0
 49
0.0
 74
0
 49
-3.0
 74
0
  0
LTYPE
  5
37
100
AcDbSymbolTableRecord
100
AcDbLinetypeTableRecord
  2
HIDDEN2
 70
0
  3
Hidden (.5x) _ _ _ _ _ _ _ _ _ _ _ _ _ _ _ _ _ 
 72
65
 73
2
 40
4.7624999999999993
 49
3.1749999999999998
 74
0
 49
-1.5874999999999999
 74
0
  0
LTYPE
  5
38
100
AcDbSymbolTableRecord
100
AcDbLinetypeTableRecord
  2
BORDERX2
 70
0
  3
Border (2x) ____  ____  .  ____  ____  .  ___
 72
65
 73
6
 40
88.899999999999991
 49
25.399999999999999
 74
0
 49
-12.699999999999999
 74
0
 49
25.399999999999999
 74
0
 49
-12.699999999999999
 74
0
 49
0.0
 74
0
 49
-12.699999999999999
 74
0
  0
LTYPE
  5
39
100
AcDbSymbolTableRecord
100
AcDbLinetypeTableRecord
  2
ACAD_ISO05W100
 70
0
  3
ISO long-dash double-dot ____ .. ____ .. ____ . 
 72
65
 73
6
 40
33.0
 49
24.0
 74
0
 49
-3.0
 74
0
 49
0.0
 74
0
 49
-3.0
 74
0
 49
0.0
 74
0
 49
-3.0
 74
0
  0
LTYPE
  5
3A
100
AcDbSymbolTableRecord
100
AcDbLinetypeTableRecord
  2
DASHDOTX2
 70
0
  3
Dash dot (2x) ____  .  ____  .  ____  .  ___
 72
65
 73
4
 40
50.799999999999997
 49
25.399999999999999
 74
0
 49
-12.699999999999999
 74
0
 49
0.0
 74
0
 49
-12.699999999999999
 74
0
  0
LTYPE
  5
3B
100
AcDbSymbolTableRecord
100
AcDbLinetypeTableRecord
  2
HIDDENX2
 70
0
  3
Hidden (2x) ____ ____ ____ ____ ____ ____ ____ 
 72
65
 73
2
 40
19.049999999999997
 49
12.699999999999999
 74
0
 49
-6.3499999999999996
 74
0
  0
LTYPE
  5
3C
100
AcDbSymbolTableRecord
100
AcDbLinetypeTableRecord
  2
CENTERX2
 70
0
  3
Center (2x) ________  __  ________  __  _____
 72
65
 73
4
 40
101.60000000000001
 49
63.5
 74
0
 49
-12.699999999999999
 74
0
 49
12.699999999999999
 74
0
 49
-12.699999999999999
 74
0
  0
LTYPE
  5
3D
100
AcDbSymbolTableRecord
100
AcDbLinetypeTableRecord
  2
BORDER2
 70
0
  3
Border (.5x) __.__.__.__.__.__.__.__.__.__.__.
 72
65
 73
6
 40
22.224999999999998
 49
6.3499999999999996
 74
0
 49
-3.1749999999999998
 74
0
 49
6.3499999999999996
 74
0
 49
-3.1749999999999998
 74
0
 49
0.0
 74
0
 49
-3.1749999999999998
 74
0
  0
LTYPE
  5
3E
100
AcDbSymbolTableRecord
100
AcDbLinetypeTableRecord
  2
DASHDOT2
 70
0
  3
Dash dot (.5x) _._._._._._._._._._._._._._._.
 72
65
 73
4
 40
12.699999999999999
 49
6.3499999999999996
 74
0
 49
-3.1749999999999998
 74
0
 49
0.0
 74
0
 49
-3.1749999999999998
 74
0
  0
LTYPE
  5
3F
100
AcDbSymbolTableRecord
100
AcDbLinetypeTableRecord
  2
ACAD_ISO12W100
 70
0
  3
ISO dash double-dot __ . . __ . . __ . . __ . . 
 72
65
 73
6
 40
21.0
 49
12.0
 74
0
 49
-3.0
 74
0
 49
0.0
 74
0
 49
-3.0
 74
0
 49
0.0
 74
0
 49
-3.0
 74
0
  0
LTYPE
  5
40
100
AcDbSymbolTableRecord
100
AcDbLinetypeTableRecord
  2
ACAD_ISO07W100
 70
0
  3
ISO dot . . . . . . . . . . . . . . . . . . . . 
 72
65
 73
2
 40
3.0
 49
0.0
 74
0
 49
-3.0
 74
0
  0
LTYPE
  5
41
100
AcDbSymbolTableRecord
100
AcDbLinetypeTableRecord
  2
HIDDEN
 70
0
  3
Hidden __ __ __ __ __ __ __ __ __ __ __ __ __ __
 72
65
 73
2
 40
9.5249999999999986
 49
6.3499999999999996
 74
0
 49
-3.1749999999999998
 74
0
  0
LTYPE
  5
42
100
AcDbSymbolTableRecord
100
AcDbLinetypeTableRecord
  2
ACAD_ISO06W100
 70
0
  3
ISO long-dash triple-dot ____ ... ____ ... ____
 72
65
 73
8
 40
36.0
 49
24.0
 74
0
 49
-3.0
 74
0
 49
0.0
 74
0
 49
-3.0
 74
0
 49
0.0
 74
0
 49
-3.0
 74
0
 49
0.0
 74
0
 49
-3.0
 74
0
  0
LTYPE
  5
43
100
AcDbSymbolTableRecord
100
AcDbLinetypeTableRecord
  2
CENTER
 70
0
  3
Center ____ _ ____ _ ____ _ ____ _ ____ _ ____
 72
65
 73
4
 40
50.800000000000004
 49
31.75
 74
0
 49
-6.3499999999999996
 74
0
 49
6.3499999999999996
 74
0
 49
-6.3499999999999996
 74
0
  0
LTYPE
  5
44
100
AcDbSymbolTableRecord
100
AcDbLinetypeTableRecord
  2
DOTX2
 70
0
  3
Dot (2x) .  .  .  .  .  .  .  .  .  .  .  .  .  .
 72
65
 73
2
 40
12.699999999999999
 49
0.0
 74
0
 49
-12.699999999999999
 74
0
  0
LTYPE
  5
45
100
AcDbSymbolTableRecord
100
AcDbLinetypeTableRecord
  2
PHANTOM
 70
0
  3
Phantom ______  __  __  ______  __  __  ______ 
 72
65
 73
6
 40
63.500000000000007
 49
31.75
 74
0
 49
-6.3499999999999996
 74
0
 49
6.3499999999999996
 74
0
 49
-6.3499999999999996
 74
0
 49
6.3499999999999996
 74
0
 49
-6.3499999999999996
 74
0
  0
LTYPE
  5
46
100
AcDbSymbolTableRecord
100
AcDbLinetypeTableRecord
  2
ACAD_ISO08W100
 70
0
  3
ISO long-dash short-dash ____ __ ____ __ ____ _
 72
65
 73
4
 40
36.0
 49
24.0
 74
0
 49
-3.0
 74
0
 49
6.0
 74
0
 49
-3.0
 74
0
  0
LTYPE
  5
47
100
AcDbSymbolTableRecord
100
AcDbLinetypeTableRecord
  2
DASHEDX2
 70
0
  3
Dashed (2x) ____  ____  ____  ____  ____  ___
 72
65
 73
2
 40
38.099999999999994
 49
25.399999999999999
 74
0
 49
-12.699999999999999
 74
0
  0
LTYPE
  5
48
100
AcDbSymbolTableRecord
100
AcDbLinetypeTableRecord
  2
ACAD_ISO02W100
 70
0
  3
ISO dash __ __ __ __ __ __ __ __ __ __ __ __ __
 72
65
 73
2
 40
15.0
 49
12.0
 74
0
 49
-3.0
 74
0
  0
LTYPE
  5
49
100
AcDbSymbolTableRecord
100
AcDbLinetypeTableRecord
  2
PHANTOM2
 70
0
  3
Phantom (.5x) ___ _ _ ___ _ _ ___ _ _ ___ _ _
 72
65
 73
6
 40
31.750000000000004
 49
15.875
 74
0
 49
-3.1749999999999998
 74
0
 49
3.1749999999999998
 74
0
 49
-3.1749999999999998
 74
0
 49
3.1749999999999998
 74
0
 49
-3.1749999999999998
 74
0
  0
LTYPE
  5
4A
100
AcDbSymbolTableRecord
100
AcDbLinetypeTableRecord
  2
DASHED2
 70
0
  3
Dashed (.5x) _ _ _ _ _ _ _ _ _ _ _ _ _ _ _ _ _ 
 72
65
 73
2
 40
9.5249999999999986
 49
6.3499999999999996
 74
0
 49
-3.1749999999999998
 74
0
  0
LTYPE
  5
4B
100
AcDbSymbolTableRecord
100
AcDbLinetypeTableRecord
  2
ACAD_ISO09W100
 70
0
  3
ISO long-dash double-short-dash ____ __ __ ____
 72
65
 73
6
 40
45.0
 49
24.0
 74
0
 49
-3.0
 74
0
 49
6.0
 74
0
 49
-3.0
 74
0
 49
6.0
 74
0
 49
-3.0
 74
0
  0
LTYPE
  5
4C
100
AcDbSymbolTableRecord
100
AcDbLinetypeTableRecord
  2
ACAD_ISO13W100
 70
0
  3
ISO double-dash double-dot __ __ . . __ __ . . _
 72
65
 73
8
 40
36.0
 49
12.0
 74
0
 49
-3.0
 74
0
 49
12.0
 74
0
 49
-3.0
 74
0
 49
0.0
 74
0
 49
-3.0
 74
0
 49
0.0
 74
0
 49
-3.0
 74
0
  0
LTYPE
  5
4D
100
AcDbSymbolTableRecord
100
AcDbLinetypeTableRecord
  2
DOT2
 70
0
  3
Dot (.5x) ........................................
 72
65
 73
2
 40
3.1749999999999998
 49
0.0
 74
0
 49
-3.1749999999999998
 74
0
  0
LTYPE
  5
4E
100
AcDbSymbolTableRecord
100
AcDbLinetypeTableRecord
  2
DASHED
 70
0
  3
Dashed __ __ __ __ __ __ __ __ __ __ __ __ __ _
 72
65
 73
2
 40
19.049999999999997
 49
12.699999999999999
 74
0
 49
-6.3499999999999996
 74
0
  0
LTYPE
  5
4F
100
AcDbSymbolTableRecord
100
AcDbLinetypeTableRecord
  2
ACAD_ISO14W100
 70
0
  3
ISO dash triple-dot __ . . . __ . . . __ . . . _
 72
65
 73
8
 40
24.0
 49
12.0
 74
0
 49
-3.0
 74
0
 49
0.0
 74
0
 49
-3.0
 74
0
 49
0.0
 74
0
 49
-3.0
 74
0
 49
0.0
 74
0
 49
-3.0
 74
0
  0
LTYPE
  5
15
100
AcDbSymbolTableRecord
100
AcDbLinetypeTableRecord
  2
BYLAYER
 70
0
  3

 72
65
 73
0
 40
0.0
  0
LTYPE
  5
50
100
AcDbSymbolTableRecord
100
AcDbLinetypeTableRecord
  2
PHANTOMX2
 70
0
  3
Phantom (2x) ____________    ____    ____   _
 72
65
 73
6
 40
127.00000000000001
 49
63.5
 74
0
 49
-12.699999999999999
 74
0
 49
12.699999999999999
 74
0
 49
-12.699999999999999
 74
0
 49
12.699999999999999
 74
0
 49
-12.699999999999999
 74
0
  0
LTYPE
  5
14
100
AcDbSymbolTableRecord
100
AcDbLinetypeTableRecord
  2
BYBLOCK
 70
0
  3

 72
65
 73
0
 40
0.0
  0
LTYPE
  5
51
100
AcDbSymbolTableRecord
100
AcDbLinetypeTableRecord
  2
DIVIDEX2
 70
0
  3
Divide (2x) ________  .  .  ________  .  .  _
 72
65
 73
6
 40
63.5
 49
25.399999999999999
 74
0
 49
-12.699999999999999
 74
0
 49
0.0
 74
0
 49
-12.699999999999999
 74
0
 49
0.0
 74
0
 49
-12.699999999999999
 74
0
  0
LTYPE
  5
52
100
AcDbSymbolTableRecord
100
AcDbLinetypeTableRecord
  2
BORDER
 70
0
  3
Border __ __ . __ __ . __ __ . __ __ . __ __ .
 72
65
 73
6
 40
44.449999999999996
 49
12.699999999999999
 74
0
 49
-6.3499999999999996
 74
0
 49
12.699999999999999
 74
0
 49
-6.3499999999999996
 74
0
 49
0.0
 74
0
 49
-6.3499999999999996
 74
0
  0
LTYPE
  5
53
100
AcDbSymbolTableRecord
100
AcDbLinetypeTableRecord
  2
DIVIDE2
 70
0
  3
Divide (.5x) __..__..__..__..__..__..__..__.._
 72
65
 73
6
 40
15.875
 49
6.3499999999999996
 74
0
 49
-3.1749999999999998
 74
0
 49
0.0
 74
0
 49
-3.1749999999999998
 74
0
 49
0.0
 74
0
 49
-3.1749999999999998
 74
0
  0
LTYPE
  5
54
100
AcDbSymbolTableRecord
100
AcDbLinetypeTableRecord
  2
DOT
 70
0
  3
Dot . . . . . . . . . . . . . . . . . . . . . . . .
 72
65
 73
2
 40
6.3499999999999996
 49
0.0
 74
0
 49
-6.3499999999999996
 74
0
  0
LTYPE
  5
55
100
AcDbSymbolTableRecord
100
AcDbLinetypeTableRecord
  2
DASHDOT
 70
0
  3
Dash dot __ . __ . __ . __ . __ . __ . __ . __
 72
65
 73
4
 40
25.399999999999999
 49
12.699999999999999
 74
0
 49
-6.3499999999999996
 74
0
 49
0.0
 74
0
 49
-6.3499999999999996
 74
0
  0
LTYPE
  5
56
100
AcDbSymbolTableRecord
100
AcDbLinetypeTableRecord
  2
ACAD_ISO03W100
 70
0
  3
ISO dash space __    __    __    __    __    __
 72
65
 73
2
 40
30.0
 49
12.0
 74
0
 49
-18.0
 74
0
  0
ENDTAB
  0
TABLE
  2
LAYER
  5
2
100
AcDbSymbolTable
 70
5
  0
LAYER
  5
57
100
AcDbSymbolTableRecord
100
AcDbLayerTableRecord
  2
1_3mmTOOL_2mmDEEP_CENTRE
 70
0
 62
2
420
16776960
  6
Continuous
370
-3
390
F
  0
LAYER
  5
58
100
AcDbSymbolTableRecord
100
AcDbLayerTableRecord
  2
0_SHEET_StructuralSheet 2440x1220x18
 70
0
 62
1
420
16711680
  6
Continuous
370
-3
390
F
  0
LAYER
  5
59
100
AcDbSymbolTableRecord
100
AcDbLayerTableRecord
  2
5_6mmTOOL_CUTTHROUGH_OUTSIDE
 70
0
 62
5
420
255
  6
Continuous
370
-3
390
F
  0
LAYER
  5
10
100
AcDbSymbolTableRecord
100
AcDbLayerTableRecord
  2
0
 70
0
 62
7
420
16777215
  6
Continuous
370
25
390
F
  0
LAYER
  5
5A
100
AcDbSymbolTableRecord
100
AcDbLayerTableRecord
  2
4_6mmTOOL_CUTTHROUGH_INSIDE
 70
0
 62
4
420
65535
  6
Continuous
370
-3
390
F
  0
ENDTAB
  0
TABLE
  2
STYLE
  5
3
100
AcDbSymbolTable
 70
7
  0
STYLE
  5
5B
100
AcDbSymbolTableRecord
100
AcDbTextStyleTableRecord
  2
Standard
 70
0
 40
0.0
 41
1.0
 50
0.0
 71
0
 42
2.5
  3

  4

1001
ACAD
1000
txt
1071
0
  0
STYLE
  5
5C
100
AcDbSymbolTableRecord
100
AcDbTextStyleTableRecord
  2
textstyle0
 70
0
 40
0.0
 41
1.0
 50
0.0
 71
0
 42
40.0
  3

  4

1001
ACAD
1000
STANDARD
1071
0
  0
STYLE
  5
5D
100
AcDbSymbolTableRecord
100
AcDbTextStyleTableRecord
  2
textstyle1
 70
0
 40
0.0
 41
1.0
 50
0.0
 71
0
 42
40.0
  3

  4

1001
ACAD
1000
STANDARD
1071
0
  0
STYLE
  5
5E
100
AcDbSymbolTableRecord
100
AcDbTextStyleTableRecord
  2
textstyle2
 70
0
 40
0.0
 41
1.0
 50
0.0
 71
0
 42
40.0
  3

  4

1001
ACAD
1000
STANDARD
1071
0
  0
STYLE
  5
5F
100
AcDbSymbolTableRecord
100
AcDbTextStyleTableRecord
  2
textstyle3
 70
0
 40
0.0
 41
1.0
 50
0.0
 71
0
 42
40.0
  3

  4

1001
ACAD
1000
STANDARD
1071
0
  0
STYLE
  5
60
100
AcDbSymbolTableRecord
100
AcDbTextStyleTableRecord
  2
textstyle4
 70
0
 40
0.0
 41
1.0
 50
0.0
 71
0
 42
40.0
  3

  4

1001
ACAD
1000
STANDARD
1071
0
  0
STYLE
  5
61
100
AcDbSymbolTableRecord
100
AcDbTextStyleTableRecord
  2
textstyle5
 70
0
 40
0.0
 41
1.0
 50
0.0
 71
0
 42
40.0
  3

  4

1001
ACAD
1000
STANDARD
1071
0
  0
ENDTAB
  0
TABLE
  2
VIEW
  5
6
100
AcDbSymbolTable
 70
0
  0
ENDTAB
  0
TABLE
  2
UCS
  5
7
100
AcDbSymbolTable
 70
0
  0
ENDTAB
  0
TABLE
  2
APPID
  5
9
100
AcDbSymbolTable
 70
1
  0
APPID
  5
12
100
AcDbSymbolTableRecord
100
AcDbRegAppTableRecord
  2
ACAD
 70
0
  0
APPID
  5
62
100
AcDbSymbolTableRecord
100
AcDbRegAppTableRecord
  2
QCAD
 70
0
  0
ENDTAB
  0
TABLE
  2
DIMSTYLE
  5
A
100
AcDbSymbolTable
 70
1
100
AcDbDimStyleTable
 71
0
  0
DIMSTYLE
105
27
100
AcDbSymbolTableRecord
100
AcDbDimStyleTableRecord
  2
Standard
 41
0.125
 42
0.03125
 43
3.75
 44
0.0625
 70
0
 73
0
 74
0
 77
1
 78
8
140
0.125
141
2.5
143
0.03937007874016
147
0.625
171
3
172
1
271
2
272
2
274
3
278
44
283
0
284
8
340
5B
  0
ENDTAB
  0
TABLE
  2
BLOCK_RECORD
  5
1
100
AcDbSymbolTable
 70
1
  0
BLOCK_RECORD
  5
1F
100
AcDbSymbolTableRecord
100
AcDbBlockTableRecord
  2
*Model_Space
340
22
  0
BLOCK_RECORD
  5
1B
100
AcDbSymbolTableRecord
100
AcDbBlockTableRecord
  2
*Paper_Space
340
1E
  0
BLOCK_RECORD
  5
23
100
AcDbSymbolTableRecord
100
AcDbBlockTableRecord
  2
*Paper_Space0
340
26
  0
ENDTAB
  0
ENDSEC
  0
SECTION
  2
BLOCKS
  0
BLOCK
  5
20
100
AcDbEntity
  8
0
100
AcDbBlockBegin
  2
*Model_Space
 70
0
 10
0.0
 20
0.0
 30
0.0
  3
*Model_Space
  1

  0
ENDBLK
  5
21
100
AcDbEntity
  8
0
100
AcDbBlockEnd
  0
BLOCK
  5
1C
100
AcDbEntity
 67
1
  8
0
100
AcDbBlockBegin
  2
*Paper_Space
 70
0
 10
0.0
 20
0.0
 30
0.0
  3
*Paper_Space
  1

  0
ENDBLK
  5
1D
100
AcDbEntity
 67
1
  8
0
100
AcDbBlockEnd
  0
BLOCK
  5
24
100
AcDbEntity
  8
0
100
AcDbBlockBegin
  2
*Paper_Space0
 70
0
 10
0.0
 20
0.0
 30
0.0
  3
*Paper_Space0
  1

  0
ENDBLK
  5
25
100
AcDbEntity
  8
0
100
AcDbBlockEnd
  0
ENDSEC
  0
SECTION
  2
ENTITIES
  0
LWPOLYLINE
  5
63
  8
0_SHEET_StructuralSheet 2440x1220x18
 62
256
370
-1
 48
1.0
  6
BYLAYER
100
AcDbEntity
100
AcDbPolyline
 90
4
 70
1
 10
-610.0
 20
1190.3816965000005
 30
0.0
 10
-610.0
 20
-1249.6183034999995
 30
0.0
 10
610.0
 20
-1249.6183034999995
 30
0.0
 10
610.0
 20
1190.3816965000005
 30
0.0
  0
MTEXT
  5
64
100
AcDbEntity
100
AcDbMText
  8
0_SHEET_StructuralSheet 2440x1220x18
 62
256
370
-1
 48
1.0
  6
BYLAYER
 10
-608.44208499999513
 20
1249.6183035000067
 30
0.0
 40
40.0
 41
871.788498
 71
1
 72
5
  1
01 x6
  7
textstyle0
 50
0.0
 73
1
 44
1.0
  0
LWPOLYLINE
  5
65
  8
4_6mmTOOL_CUTTHROUGH_INSIDE
 62
256
370
-1
 48
1.0
  6
BYLAYER
100
AcDbEntity
100
AcDbPolyline
 90
4
 70
1
 10
-541.0
 20
845.38169650000054
 30
0.0
 10
-559.0
 20
845.38169650000054
 30
0.0
 10
-559.0
 20
871.38169650000054
 30
0.0
 10
-541.0
 20
871.38169650000054
 30
0.0
  0
LWPOLYLINE
  5
66
  8
4_6mmTOOL_CUTTHROUGH_INSIDE
 62
256
370
-1
 48
1.0
  6
BYLAYER
100
AcDbEntity
100
AcDbPolyline
 90
4
 70
1
 10
-363.0
 20
845.38169650000054
 30
0.0
 10
-363.0
 20
871.38169650000054
 30
0.0
 10
-345.0
 20
871.38169650000054
 30
0.0
 10
-345.0
 20
845.38169650000054
 30
0.0
  0
LWPOLYLINE
  5
67
  8
4_6mmTOOL_CUTTHROUGH_INSIDE
 62
256
370
-1
 48
1.0
  6
BYLAYER
100
AcDbEntity
100
AcDbPolyline
 90
4
 70
1
 10
-541.0
 20
545.38169650000054
 30
0.0
 10
-559.0
 20
545.38169650000054
 30
0.0
 10
-559.0
 20
571.38169650000054
 30
0.0
 10
-541.0
 20
571.38169650000054
 30
0.0
  0
LWPOLYLINE
  5
68
  8
4_6mmTOOL_CUTTHROUGH_INSIDE
 62
256
370
-1
 48
1.0
  6
BYLAYER
100
AcDbEntity
100
AcDbPolyline
 90
4
 70
1
 10
-363.0
 20
545.38169650000054
 30
0.0
 10
-363.0
 20
571.38169650000054
 30
0.0
 10
-345.0
 20
571.38169650000054
 30
0.0
 10
-345.0
 20
545.38169650000054
 30
0.0
  0
LWPOLYLINE
  5
69
  8
4_6mmTOOL_CUTTHROUGH_INSIDE
 62
256
370
-1
 48
1.0
  6
BYLAYER
100
AcDbEntity
100
AcDbPolyline
 90
4
 70
1
 10
-541.0
 20
245.38169650000054
 30
0.0
 10
-559.0
 20
245.38169650000054
 30
0.0
 10
-559.0
 20
271.38169650000054
 30
0.0
 10
-541.0
 20
271.38169650000054
 30
0.0
  0
LWPOLYLINE
  5
6A
  8
4_6mmTOOL_CUTTHROUGH_INSIDE
 62
256
370
-1
 48
1.0
  6
BYLAYER
100
AcDbEntity
100
AcDbPolyline
 90
4
 70
1
 10
-363.0
 20
245.38169650000054
 30
0.0
 10
-363.0
 20
271.38169650000054
 30
0.0
 10
-345.0
 20
271.38169650000054
 30
0.0
 10
-345.0
 20
245.38169650000054
 30
0.0
  0
LWPOLYLINE
  5
6B
  8
4_6mmTOOL_CUTTHROUGH_INSIDE
 62
256
370
-1
 48
1.0
  6
BYLAYER
100
AcDbEntity
100
AcDbPolyline
 90
4
 70
1
 10
10.0
 20
-1180.6183034999995
 30
0.0
 10
36.0
 20
-1180.6183034999995
 30
0.0
 10
36.0
 20
-1198.6183034999995
 30
0.0
 10
10.0
 20
-1198.6183034999995
 30
0.0
  0
LWPOLYLINE
  5
6C
  8
4_6mmTOOL_CUTTHROUGH_INSIDE
 62
256
370
-1
 48
1.0
  6
BYLAYER
100
AcDbEntity
100
AcDbPolyline
 90
4
 70
1
 10
-290.0
 20
-1180.6183034999995
 30
0.0
 10
-264.0
 20
-1180.6183034999995
 30
0.0
 10
-264.0
 20
-1198.6183034999995
 30
0.0
 10
-290.0
 20
-1198.6183034999995
 30
0.0
  0
LWPOLYLINE
  5
6D
  8
4_6mmTOOL_CUTTHROUGH_INSIDE
 62
256
370
-1
 48
1.0
  6
BYLAYER
100
AcDbEntity
100
AcDbPolyline
 90
4
 70
1
 10
10.0
 20
-984.61830349999946
 30
0.0
 10
36.0
 20
-984.61830349999946
 30
0.0
 10
36.0
 20
-1002.6183034999995
 30
0.0
 10
10.0
 20
-1002.6183034999995
 30
0.0
  0
LWPOLYLINE
  5
6E
  8
4_6mmTOOL_CUTTHROUGH_INSIDE
 62
256
370
-1
 48
1.0
  6
BYLAYER
100
AcDbEntity
100
AcDbPolyline
 90
4
 70
1
 10
-541.0
 20
-54.618303499999456
 30
0.0
 10
-559.0
 20
-54.618303499999456
 30
0.0
 10
-559.0
 20
-28.618303499999456
 30
0.0
 10
-541.0
 20
-28.618303499999456
 30
0.0
  0
LWPOLYLINE
  5
6F
  8
4_6mmTOOL_CUTTHROUGH_INSIDE
 62
256
370
-1
 48
1.0
  6
BYLAYER
100
AcDbEntity
100
AcDbPolyline
 90
4
 70
1
 10
-363.0
 20
-54.618303499999456
 30
0.0
 10
-363.0
 20
-28.618303499999456
 30
0.0
 10
-345.0
 20
-28.618303499999456
 30
0.0
 10
-345.0
 20
-54.618303499999456
 30
0.0
  0
LWPOLYLINE
  5
70
  8
4_6mmTOOL_CUTTHROUGH_INSIDE
 62
256
370
-1
 48
1.0
  6
BYLAYER
100
AcDbEntity
100
AcDbPolyline
 90
4
 70
1
 10
-290.0
 20
-984.61829350000335
 30
0.0
 10
-264.0
 20
-984.61830349999946
 30
0.0
 10
-264.0
 20
-1002.6183034999995
 30
0.0
 10
-290.0
 20
-1002.6182935000033
 30
0.0
  0
LWPOLYLINE
  5
71
  8
4_6mmTOOL_CUTTHROUGH_INSIDE
 62
256
370
-1
 48
1.0
  6
BYLAYER
100
AcDbEntity
100
AcDbPolyline
 90
4
 70
1
 10
-541.0
 20
-928.61830349999946
 30
0.0
 10
-541.0
 20
-954.61830349999946
 30
0.0
 10
-559.0
 20
-954.61830349999946
 30
0.0
 10
-559.0
 20
-928.61830349999946
 30
0.0
  0
LWPOLYLINE
  5
72
  8
4_6mmTOOL_CUTTHROUGH_INSIDE
 62
256
370
-1
 48
1.0
  6
BYLAYER
100
AcDbEntity
100
AcDbPolyline
 90
4
 70
1
 10
-363.0
 20
-928.61830349999946
 30
0.0
 10
-345.0
 20
-928.61830349999946
 30
0.0
 10
-345.0
 20
-954.61830349999946
 30
0.0
 10
-363.0
 20
-954.61830349999946
 30
0.0
  0
LWPOLYLINE
  5
73
  8
4_6mmTOOL_CUTTHROUGH_INSIDE
 62
256
370
-1
 48
1.0
  6
BYLAYER
100
AcDbEntity
100
AcDbPolyline
 90
4
 70
1
 10
-541.0
 20
-354.61830349999946
 30
0.0
 10
-559.0
 20
-354.61830349999946
 30
0.0
 10
-559.0
 20
-328.61830349999946
 30
0.0
 10
-541.0
 20
-328.61830349999946
 30
0.0
  0
LWPOLYLINE
  5
74
  8
4_6mmTOOL_CUTTHROUGH_INSIDE
 62
256
370
-1
 48
1.0
  6
BYLAYER
100
AcDbEntity
100
AcDbPolyline
 90
4
 70
1
 10
-363.0
 20
-354.61830349999946
 30
0.0
 10
-363.0
 20
-328.61830349999946
 30
0.0
 10
-345.0
 20
-328.61830349999946
 30
0.0
 10
-345.0
 20
-354.61830349999946
 30
0.0
  0
LWPOLYLINE
  5
75
  8
4_6mmTOOL_CUTTHROUGH_INSIDE
 62
256
370
-1
 48
1.0
  6
BYLAYER
100
AcDbEntity
100
AcDbPolyline
 90
4
 70
1
 10
-541.0
 20
-628.61830349999946
 30
0.0
 10
-541.0
 20
-654.61830349999946
 30
0.0
 10
-559.0
 20
-654.61830349999946
 30
0.0
 10
-559.0
 20
-628.61830349999946
 30
0.0
  0
LWPOLYLINE
  5
76
  8
4_6mmTOOL_CUTTHROUGH_INSIDE
 62
256
370
-1
 48
1.0
  6
BYLAYER
100
AcDbEntity
100
AcDbPolyline
 90
4
 70
1
 10
-363.0
 20
-628.61830349999946
 30
0.0
 10
-345.0
 20
-628.61830349999946
 30
0.0
 10
-345.0
 20
-654.61830349999946
 30
0.0
 10
-363.0
 20
-654.61830349999946
 30
0.0
  0
LWPOLYLINE
  5
77
  8
4_6mmTOOL_CUTTHROUGH_INSIDE
 62
256
370
-1
 48
1.0
  6
BYLAYER
100
AcDbEntity
100
AcDbPolyline
 90
4
 70
1
 10
-47.814988999998604
 20
514.89735250000376
 30
0.0
 10
-47.814982999996573
 20
540.89737250000326
 30
0.0
 10
-29.814982999996573
 20
540.89737449999666
 30
0.0
 10
-29.814988999998604
 20
514.89735250000376
 30
0.0
  0
LWPOLYLINE
  5
78
  8
4_6mmTOOL_CUTTHROUGH_INSIDE
 62
256
370
-1
 48
1.0
  6
BYLAYER
100
AcDbEntity
100
AcDbPolyline
 90
4
 70
1
 10
-225.8149889999986
 20
514.89735250000376
 30
0.0
 10
-243.8149889999986
 20
514.89735250000376
 30
0.0
 10
-243.81499099999928
 20
540.89735349999683
 30
0.0
 10
-225.81499099999928
 20
540.8973554999975
 30
0.0
  0
LWPOLYLINE
  5
79
  8
4_6mmTOOL_CUTTHROUGH_INSIDE
 62
256
370
-1
 48
1.0
  6
BYLAYER
100
AcDbEntity
100
AcDbPolyline
 90
4
 70
1
 10
-47.814988999998604
 20
214.89735250000376
 30
0.0
 10
-47.814988999998604
 20
240.89735250000376
 30
0.0
 10
-29.814988999998604
 20
240.89735250000376
 30
0.0
 10
-29.814988999998604
 20
214.89735250000376
 30
0.0
  0
LWPOLYLINE
  5
7A
  8
4_6mmTOOL_CUTTHROUGH_INSIDE
 62
256
370
-1
 48
1.0
  6
BYLAYER
100
AcDbEntity
100
AcDbPolyline
 90
4
 70
1
 10
-225.8149889999986
 20
214.89735250000376
 30
0.0
 10
-243.8149889999986
 20
214.89735250000376
 30
0.0
 10
-243.8149889999986
 20
240.89735250000376
 30
0.0
 10
-225.8149889999986
 20
240.89735250000376
 30
0.0
  0
LWPOLYLINE
  5
7B
  8
4_6mmTOOL_CUTTHROUGH_INSIDE
 62
256
370
-1
 48
1.0
  6
BYLAYER
100
AcDbEntity
100
AcDbPolyline
 90
4
 70
1
 10
-47.814988999998604
 20
-85.102647499996237
 30
0.0
 10
-47.814988999998604
 20
-59.102647499996237
 30
0.0
 10
-29.814988999998604
 20
-59.102647499996237
 30
0.0
 10
-29.814988999998604
 20
-85.102647499996237
 30
0.0
  0
LWPOLYLINE
  5
7C
  8
4_6mmTOOL_CUTTHROUGH_INSIDE
 62
256
370
-1
 48
1.0
  6
BYLAYER
100
AcDbEntity
100
AcDbPolyline
 90
4
 70
1
 10
-225.8149889999986
 20
-85.102647499996237
 30
0.0
 10
-243.8149889999986
 20
-85.102647499996237
 30
0.0
 10
-243.8149889999986
 20
-59.102647499996237
 30
0.0
 10
-225.8149889999986
 20
-59.102647499996237
 30
0.0
  0
LWPOLYLINE
  5
7D
  8
4_6mmTOOL_CUTTHROUGH_INSIDE
 62
256
370
-1
 48
1.0
  6
BYLAYER
100
AcDbEntity
100
AcDbPolyline
 90
4
 70
1
 10
-47.814988999998604
 20
-659.10264749999624
 30
0.0
 10
-29.814988999998604
 20
-659.10264749999624
 30
0.0
 10
-29.814988999998604
 20
-685.10264749999624
 30
0.0
 10
-47.814988999998604
 20
-685.10264749999624
 30
0.0
  0
LWPOLYLINE
  5
7E
  8
4_6mmTOOL_CUTTHROUGH_INSIDE
 62
256
370
-1
 48
1.0
  6
BYLAYER
100
AcDbEntity
100
AcDbPolyline
 90
4
 70
1
 10
-225.8149889999986
 20
-659.10264749999624
 30
0.0
 10
-225.8149889999986
 20
-685.10264749999624
 30
0.0
 10
-243.8149889999986
 20
-685.10264749999624
 30
0.0
 10
-243.8149889999986
 20
-659.10264749999624
 30
0.0
  0
LWPOLYLINE
  5
7F
  8
4_6mmTOOL_CUTTHROUGH_INSIDE
 62
256
370
-1
 48
1.0
  6
BYLAYER
100
AcDbEntity
100
AcDbPolyline
 90
4
 70
1
 10
-47.814988999998604
 20
-359.10264749999624
 30
0.0
 10
-29.814988999998604
 20
-359.10264749999624
 30
0.0
 10
-29.814988999998604
 20
-385.10264749999624
 30
0.0
 10
-47.814988999998604
 20
-385.10264749999624
 30
0.0
  0
LWPOLYLINE
  5
80
  8
4_6mmTOOL_CUTTHROUGH_INSIDE
 62
256
370
-1
 48
1.0
  6
BYLAYER
100
AcDbEntity
100
AcDbPolyline
 90
4
 70
1
 10
-225.8149889999986
 20
-385.10264749999624
 30
0.0
 10
-243.8149889999986
 20
-385.10264749999624
 30
0.0
 10
-243.8149889999986
 20
-359.10264749999624
 30
0.0
 10
-225.8149889999986
 20
-359.10264749999624
 30
0.0
  0
LWPOLYLINE
  5
81
  8
4_6mmTOOL_CUTTHROUGH_INSIDE
 62
256
370
-1
 48
1.0
  6
BYLAYER
100
AcDbEntity
100
AcDbPolyline
 90
4
 70
1
 10
253.69710499999928
 20
663.08294549999846
 30
0.0
 10
253.69710499999928
 20
689.08294549999846
 30
0.0
 10
271.69710499999928
 20
689.08294549999846
 30
0.0
 10
271.69710499999928
 20
663.08294549999846
 30
0.0
  0
LWPOLYLINE
  5
82
  8
4_6mmTOOL_CUTTHROUGH_INSIDE
 62
256
370
-1
 48
1.0
  6
BYLAYER
100
AcDbEntity
100
AcDbPolyline
 90
4
 70
1
 10
75.697104999999283
 20
663.08294549999846
 30
0.0
 10
57.697104999999283
 20
663.08294549999846
 30
0.0
 10
57.697104999999283
 20
689.08294549999846
 30
0.0
 10
75.697104999999283
 20
689.08294549999846
 30
0.0
  0
LWPOLYLINE
  5
83
  8
4_6mmTOOL_CUTTHROUGH_INSIDE
 62
256
370
-1
 48
1.0
  6
BYLAYER
100
AcDbEntity
100
AcDbPolyline
 90
4
 70
1
 10
253.69710499999928
 20
363.08294549999846
 30
0.0
 10
253.69710499999928
 20
389.08294549999846
 30
0.0
 10
271.69710499999928
 20
389.08294549999846
 30
0.0
 10
271.69710499999928
 20
363.08294549999846
 30
0.0
  0
LWPOLYLINE
  5
84
  8
4_6mmTOOL_CUTTHROUGH_INSIDE
 62
256
370
-1
 48
1.0
  6
BYLAYER
100
AcDbEntity
100
AcDbPolyline
 90
4
 70
1
 10
75.697104999999283
 20
363.08294549999846
 30
0.0
 10
57.697104999999283
 20
363.08294549999846
 30
0.0
 10
57.697104999999283
 20
389.08294549999846
 30
0.0
 10
75.697104999999283
 20
389.08294549999846
 30
0.0
  0
LWPOLYLINE
  5
85
  8
4_6mmTOOL_CUTTHROUGH_INSIDE
 62
256
370
-1
 48
1.0
  6
BYLAYER
100
AcDbEntity
100
AcDbPolyline
 90
4
 70
1
 10
149.12668100000155
 20
-709.61641750000126
 30
0.0
 10
169.2496700000047
 20
-726.08047850000003
 30
0.0
 10
157.85147400000278
 20
-740.01177849999658
 30
0.0
 10
137.72848499999964
 20
-723.54771749999782
 30
0.0
  0
LWPOLYLINE
  5
86
  8
4_6mmTOOL_CUTTHROUGH_INSIDE
 62
256
370
-1
 48
1.0
  6
BYLAYER
100
AcDbEntity
100
AcDbPolyline
 90
4
 70
1
 10
273.24037400000088
 20
-557.92004550000274
 30
0.0
 10
293.36336600000504
 20
-574.38410350000049
 30
0.0
 10
281.96517000000313
 20
-588.31540249999671
 30
0.0
 10
261.84217800000624
 20
-571.8513454999993
 30
0.0
  0
LWPOLYLINE
  5
87
  8
4_6mmTOOL_CUTTHROUGH_INSIDE
 62
256
370
-1
 48
1.0
  6
BYLAYER
100
AcDbEntity
100
AcDbPolyline
 90
4
 70
1
 10
253.69710499999928
 20
-510.91705450000154
 30
0.0
 10
271.69710499999928
 20
-510.91705450000154
 30
0.0
 10
271.70485800000461
 20
-536.93341749999672
 30
0.0
 10
253.70485800000461
 20
-536.93352749999758
 30
0.0
  0
LWPOLYLINE
  5
88
  8
4_6mmTOOL_CUTTHROUGH_INSIDE
 62
256
370
-1
 48
1.0
  6
BYLAYER
100
AcDbEntity
100
AcDbPolyline
 90
4
 70
1
 10
75.697104999999283
 20
-510.91705450000154
 30
0.0
 10
75.704850000001898
 20
-536.93461350000143
 30
0.0
 10
57.704850000001898
 20
-536.93472350000229
 30
0.0
 10
57.697104999999283
 20
-510.91705450000154
 30
0.0
  0
LWPOLYLINE
  5
89
  8
4_6mmTOOL_CUTTHROUGH_INSIDE
 62
256
370
-1
 48
1.0
  6
BYLAYER
100
AcDbEntity
100
AcDbPolyline
 90
4
 70
1
 10
253.69710499999928
 20
63.082945499998459
 30
0.0
 10
253.69710499999928
 20
89.082945499998459
 30
0.0
 10
271.69710499999928
 20
89.082945499998459
 30
0.0
 10
271.69710499999928
 20
63.082945499998459
 30
0.0
  0
LWPOLYLINE
  5
8A
  8
4_6mmTOOL_CUTTHROUGH_INSIDE
 62
256
370
-1
 48
1.0
  6
BYLAYER
100
AcDbEntity
100
AcDbPolyline
 90
4
 70
1
 10
75.697104999999283
 20
63.082945499998459
 30
0.0
 10
57.697104999999283
 20
63.082945499998459
 30
0.0
 10
57.697104999999283
 20
89.082945499998459
 30
0.0
 10
75.697104999999283
 20
89.082945499998459
 30
0.0
  0
LWPOLYLINE
  5
8B
  8
4_6mmTOOL_CUTTHROUGH_INSIDE
 62
256
370
-1
 48
1.0
  6
BYLAYER
100
AcDbEntity
100
AcDbPolyline
 90
4
 70
1
 10
253.69710499999928
 20
-210.91705450000154
 30
0.0
 10
271.69710499999928
 20
-210.91705450000154
 30
0.0
 10
271.69710499999928
 20
-236.91705450000154
 30
0.0
 10
253.69710499999928
 20
-236.91705450000154
 30
0.0
  0
LWPOLYLINE
  5
8C
  8
4_6mmTOOL_CUTTHROUGH_INSIDE
 62
256
370
-1
 48
1.0
  6
BYLAYER
100
AcDbEntity
100
AcDbPolyline
 90
4
 70
1
 10
75.697104999999283
 20
-210.91705450000154
 30
0.0
 10
75.697104999999283
 20
-236.91705450000154
 30
0.0
 10
57.697104999999283
 20
-236.91705450000154
 30
0.0
 10
57.697104999999283
 20
-210.91705450000154
 30
0.0
  0
LWPOLYLINE
  5
8D
  8
4_6mmTOOL_CUTTHROUGH_INSIDE
 62
256
370
-1
 48
1.0
  6
BYLAYER
100
AcDbEntity
100
AcDbPolyline
 90
4
 70
1
 10
15.0
 20
1121.3816965000005
 30
0.0
 10
-11.0
 20
1121.3816965000005
 30
0.0
 10
-11.0
 20
1139.3816965000005
 30
0.0
 10
15.0
 20
1139.3816965000005
 30
0.0
  0
LWPOLYLINE
  5
8E
  8
4_6mmTOOL_CUTTHROUGH_INSIDE
 62
256
370
-1
 48
1.0
  6
BYLAYER
100
AcDbEntity
100
AcDbPolyline
 90
4
 70
1
 10
315.0
 20
1121.3816965000005
 30
0.0
 10
289.0
 20
1121.3816965000005
 30
0.0
 10
289.0
 20
1139.3816965000005
 30
0.0
 10
315.0
 20
1139.3816965000005
 30
0.0
  0
LWPOLYLINE
  5
8F
  8
4_6mmTOOL_CUTTHROUGH_INSIDE
 62
256
370
-1
 48
1.0
  6
BYLAYER
100
AcDbEntity
100
AcDbPolyline
 90
4
 70
1
 10
15.0
 20
925.38169650000054
 30
0.0
 10
-11.0
 20
925.38169650000054
 30
0.0
 10
-11.0
 20
943.38169650000054
 30
0.0
 10
15.0
 20
943.38169650000054
 30
0.0
  0
LWPOLYLINE
  5
90
  8
4_6mmTOOL_CUTTHROUGH_INSIDE
 62
256
370
-1
 48
1.0
  6
BYLAYER
100
AcDbEntity
100
AcDbPolyline
 90
4
 70
1
 10
315.0
 20
925.38169650000054
 30
0.0
 10
289.0
 20
925.38169650000054
 30
0.0
 10
289.0
 20
943.38169650000054
 30
0.0
 10
315.0
 20
943.38169650000054
 30
0.0
  0
LWPOLYLINE
  5
91
  8
4_6mmTOOL_CUTTHROUGH_INSIDE
 62
256
370
-1
 48
1.0
  6
BYLAYER
100
AcDbEntity
100
AcDbPolyline
 90
4
 70
1
 10
541.0
 20
844.38169650000054
 30
0.0
 10
541.0
 20
870.38169650000054
 30
0.0
 10
559.0
 20
870.38169650000054
 30
0.0
 10
559.0
 20
844.38169650000054
 30
0.0
  0
LWPOLYLINE
  5
92
  8
4_6mmTOOL_CUTTHROUGH_INSIDE
 62
256
370
-1
 48
1.0
  6
BYLAYER
100
AcDbEntity
100
AcDbPolyline
 90
4
 70
1
 10
363.0
 20
844.38169650000054
 30
0.0
 10
345.0
 20
844.38169650000054
 30
0.0
 10
344.99999000000389
 20
870.38169650000054
 30
0.0
 10
362.99999000000389
 20
870.38169650000054
 30
0.0
  0
LWPOLYLINE
  5
93
  8
4_6mmTOOL_CUTTHROUGH_INSIDE
 62
256
370
-1
 48
1.0
  6
BYLAYER
100
AcDbEntity
100
AcDbPolyline
 90
4
 70
1
 10
541.0
 20
544.38169650000054
 30
0.0
 10
541.0
 20
570.38169650000054
 30
0.0
 10
559.0
 20
570.38169650000054
 30
0.0
 10
559.0
 20
544.38169650000054
 30
0.0
  0
LWPOLYLINE
  5
94
  8
4_6mmTOOL_CUTTHROUGH_INSIDE
 62
256
370
-1
 48
1.0
  6
BYLAYER
100
AcDbEntity
100
AcDbPolyline
 90
4
 70
1
 10
363.0
 20
544.38169650000054
 30
0.0
 10
345.0
 20
544.38169650000054
 30
0.0
 10
345.0
 20
570.38169650000054
 30
0.0
 10
363.0
 20
570.38169650000054
 30
0.0
  0
LWPOLYLINE
  5
95
  8
4_6mmTOOL_CUTTHROUGH_INSIDE
 62
256
370
-1
 48
1.0
  6
BYLAYER
100
AcDbEntity
100
AcDbPolyline
 90
4
 70
1
 10
541.0
 20
270.38169650000054
 30
0.0
 10
559.0
 20
270.38169650000054
 30
0.0
 10
559.0
 20
244.38169650000054
 30
0.0
 10
541.0
 20
244.38169650000054
 30
0.0
  0
LWPOLYLINE
  5
96
  8
4_6mmTOOL_CUTTHROUGH_INSIDE
 62
256
370
-1
 48
1.0
  6
BYLAYER
100
AcDbEntity
100
AcDbPolyline
 90
4
 70
1
 10
363.0
 20
244.38169650000054
 30
0.0
 10
345.0
 20
244.38169650000054
 30
0.0
 10
345.0
 20
270.38169650000054
 30
0.0
 10
363.0
 20
270.38169650000054
 30
0.0
  0
LWPOLYLINE
  5
97
  8
4_6mmTOOL_CUTTHROUGH_INSIDE
 62
256
370
-1
 48
1.0
  6
BYLAYER
100
AcDbEntity
100
AcDbPolyline
 90
4
 70
1
 10
448.13709700000618
 20
-869.45626449999691
 30
0.0
 10
431.67291400000249
 20
-849.33337549999851
 30
0.0
 10
445.60414500000479
 20
-837.93509449999692
 30
0.0
 10
462.0683280000012
 20
-858.05798450000293
 30
0.0
  0
LWPOLYLINE
  5
98
  8
4_6mmTOOL_CUTTHROUGH_INSIDE
 62
256
370
-1
 48
1.0
  6
BYLAYER
100
AcDbEntity
100
AcDbPolyline
 90
4
 70
1
 10
448.13709700000618
 20
-1096.632720499998
 30
0.0
 10
462.0683280000012
 20
-1108.0310004999992
 30
0.0
 10
445.60414500000479
 20
-1128.1538904999979
 30
0.0
 10
431.67291400000249
 20
-1116.7556094999964
 30
0.0
  0
LWPOLYLINE
  5
99
  8
5_6mmTOOL_CUTTHROUGH_OUTSIDE
 62
256
370
-1
 48
1.0
  6
BYLAYER
100
AcDbEntity
100
AcDbPolyline
 90
54
 70
1
 10
587.57954500000051
 20
-983.04449249999743
 30
0.0
 10
420.20048300000053
 20
-778.56316150000202
 30
0.0
 10
416.33069700000488
 20
-781.72935049999796
 30
0.0
 10
409.99831900000572
 20
-773.98977749999904
 30
0.0
 10
427.79934399999911
 20
-759.42530149999948
 30
0.0
 10
411.33514900000591
 20
-739.30242249999719
 30
0.0
 10
361.28591500000039
 20
-780.2517955000003
 30
0.0
 10
386.61542700000427
 20
-811.21008750000328
 30
0.0
 10
390.48521299999993
 20
-808.04389850000007
 30
0.0
 10
396.81759099999908
 20
-815.783471499999
 30
0.0
 10
343.93051200000627
 20
-859.05471850000322
 30
0.0
 10
337.59813399999985
 20
-851.31514549999702
 30
0.0
 10
341.46792100000312
 20
-848.14895650000108
 30
0.0
 10
316.1384010000038
 20
-817.19067150000046
 30
0.0
 10
285.18010499999946
 20
-842.52018549999775
 30
0.0
 10
310.50961700000335
 20
-873.47847750000074
 30
0.0
 10
314.379402999999
 20
-870.31228849999752
 30
0.0
 10
320.71178100000543
 20
-878.05186149999645
 30
0.0
 10
267.82470200000535
 20
-921.32310850000067
 30
0.0
 10
261.49232400000619
 20
-913.58353550000174
 30
0.0
 10
265.36211100000219
 20
-910.41734649999853
 30
0.0
 10
240.03259900000558
 20
-879.45905450000282
 30
0.0
 10
189.9833540000036
 20
-920.40843750000204
 30
0.0
 10
206.4935850000038
 20
-940.53831950000313
 30
0.0
 10
224.28862200000003
 20
-925.96654249999847
 30
0.0
 10
230.62417700000515
 20
-933.70351549999759
 30
0.0
 10
226.75569100000575
 20
-936.87129249999998
 30
0.0
 10
264.54602900000464
 20
-983.02083950000087
 30
0.0
 10
226.75712300000305
 20
-1029.2068864999965
 30
0.0
 10
230.6268990000026
 20
-1032.3730884999968
 30
0.0
 10
224.29449700000259
 20
-1040.1126414999962
 30
0.0
 10
206.49352500000532
 20
-1025.5481165000019
 30
0.0
 10
190.03643800000282
 20
-1045.6616014999963
 30
0.0
 10
240.10880100000213
 20
-1086.6298995000034
 30
0.0
 10
265.43831300000602
 20
-1055.6716075000004
 30
0.0
 10
261.56852600000275
 20
-1052.5054184999972
 30
0.0
 10
267.9009040000019
 20
-1044.7658454999982
 30
0.0
 10
320.78798400000233
 20
-1088.0370925000025
 30
0.0
 10
314.45560600000317
 20
-1095.7766655000014
 30
0.0
 10
310.5858189999999
 20
-1092.6104764999982
 30
0.0
 10
285.25630700000329
 20
-1123.5687685000012
 30
0.0
 10
316.21460300000035
 20
-1148.8982834999988
 30
0.0
 10
341.54412299999967
 20
-1117.9399974999978
 30
0.0
 10
337.67433600000368
 20
-1114.7738085000019
 30
0.0
 10
344.00671400000283
 20
-1107.034235500003
 30
0.0
 10
396.89379300000292
 20
-1150.3054824999999
 30
0.0
 10
390.5614160000041
 20
-1158.0450554999989
 30
0.0
 10
386.69162900000083
 20
-1154.8788665000029
 30
0.0
 10
361.36211700000422
 20
-1185.8371584999986
 30
0.0
 10
411.41135100000247
 20
-1226.7865315000017
 30
0.0
 10
427.87554600000294
 20
-1206.6636524999994
 30
0.0
 10
410.07452000000194
 20
-1192.0991764999999
 30
0.0
 10
416.40689800000109
 20
-1184.359603500001
 30
0.0
 10
420.27668500000436
 20
-1187.5257924999969
 30
0.0
  0
MTEXT
  5
9A
100
AcDbEntity
100
AcDbMText
  8
1_3mmTOOL_2mmDEEP_CENTRE
 62
256
370
-1
 48
1.0
  6
BYLAYER
 10
-271.53502499999803
 20
-1067.4049585000027
 30
0.0
 40
40.0
 41
533.49150599999996
 71
1
 72
5
  1
{\W5.00197; }a/F1
  7
textstyle1
 50
0.0
 73
1
 44
1.0
  0
MTEXT
  5
9B
100
AcDbEntity
100
AcDbMText
  8
1_3mmTOOL_2mmDEEP_CENTRE
 62
256
370
-1
 48
1.0
  6
BYLAYER
 10
437.85289300000295
 20
192.0603995000055
 30
0.0
 40
40.0
 41
533.49150599999996
 71
1
 72
5
  1
{\W4.83531; }A/F3
  7
textstyle2
 50
90.0
 73
1
 44
1.0
  0
MTEXT
  5
9C
100
AcDbEntity
100
AcDbMText
  8
1_3mmTOOL_2mmDEEP_CENTRE
 62
256
370
-1
 48
1.0
  6
BYLAYER
 10
-159.76207199999774
 20
-270.64763749999838
 30
0.0
 40
40.0
 41
533.49150599999996
 71
1
 72
5
  1
{\W4.83531; }A/F7
  7
textstyle3
 50
90.0
 73
1
 44
1.0
  0
MTEXT
  5
9D
100
AcDbEntity
100
AcDbMText
  8
1_3mmTOOL_2mmDEEP_CENTRE
 62
256
370
-1
 48
1.0
  6
BYLAYER
 10
142.62577199999939
 20
-120.6603045000011
 30
0.0
 40
40.0
 41
533.49150599999996
 71
1
 72
5
  1
{\W4.83531; }a/F6
  7
textstyle4
 50
90.0
 73
1
 44
1.0
  0
MTEXT
  5
9E
100
AcDbEntity
100
AcDbMText
  8
1_3mmTOOL_2mmDEEP_CENTRE
 62
256
370
-1
 48
1.0
  6
BYLAYER
 10
510.0660249999998
 20
-720.25445749999221
 30
0.0
 40
40.0
 41
533.49150599999996
 71
1
 72
5
  1
{\W4.83531; }A/F6
  7
textstyle5
 50
270.0
 73
1
 44
1.0
  0
LWPOLYLINE
  5
9F
  8
5_6mmTOOL_CUTTHROUGH_OUTSIDE
 62
256
370
-1
 48
1.0
  6
BYLAYER
100
AcDbEntity
100
AcDbPolyline
 90
192
 70
1
 10
-327.25
 20
-566.86830349999946
 30
0.0
 10
-332.25
 20
-566.86830349999946
 30
0.0
 10
-332.25
 20
-556.36830349999946
 30
0.0
 10
-309.25
 20
-556.36830349999946
 30
0.0
 10
-309.25
 20
-475.30688050000026
 30
0.0
 10
-349.22600299999613
 20
-471.72079849999864
 30
0.0
 10
-349.22600299999613
 20
-428.4758084999994
 30
0.0
 10
-327.25
 20
-426.50443149999774
 30
0.0
 10
-327.25
 20
-256.73217450000084
 30
0.0
 10
-349.22600299999613
 20
-254.76079849999951
 30
0.0
 10
-349.22600299999613
 20
-211.51580850000028
 30
0.0
 10
-309.25
 20
-207.92972549999831
 30
0.0
 10
-309.25
 20
-126.86830349999946
 30
0.0
 10
-332.25
 20
-126.86830349999946
 30
0.0
 10
-332.25
 20
-116.36830349999946
 30
0.0
 10
-327.25
 20
-116.36830349999946
 30
0.0
 10
-327.25
 20
33.131696500000544
 30
0.0
 10
-332.25
 20
33.131696500000544
 30
0.0
 10
-332.25
 20
43.631696500000544
 30
0.0
 10
-309.25
 20
43.631696500000544
 30
0.0
 10
-309.25
 20
124.69311949999974
 30
0.0
 10
-349.22600299999613
 20
128.27920150000136
 30
0.0
 10
-349.22600299999613
 20
171.5241915000006
 30
0.0
 10
-327.25
 20
173.49556850000226
 30
0.0
 10
-327.25
 20
333.13169650000054
 30
0.0
 10
-332.25
 20
333.13169650000054
 30
0.0
 10
-332.25
 20
343.63169650000054
 30
0.0
 10
-309.25
 20
343.63169650000054
 30
0.0
 10
-309.25
 20
424.69311949999974
 30
0.0
 10
-349.22600299999613
 20
428.27920150000136
 30
0.0
 10
-349.22600299999613
 20
471.5241915000006
 30
0.0
 10
-327.25
 20
473.49556850000226
 30
0.0
 10
-327.25
 20
633.13169650000054
 30
0.0
 10
-332.25
 20
633.13169650000054
 30
0.0
 10
-332.25
 20
643.63169650000054
 30
0.0
 10
-309.25
 20
643.63169650000054
 30
0.0
 10
-309.25
 20
724.69311949999974
 30
0.0
 10
-349.22600299999613
 20
728.27920150000136
 30
0.0
 10
-349.22600299999613
 20
771.5241915000006
 30
0.0
 10
-327.25
 20
773.49556850000226
 30
0.0
 10
-327.24999299999763
 20
933.13169650000054
 30
0.0
 10
-332.24999299999763
 20
933.13169650000054
 30
0.0
 10
-332.24999299999763
 20
943.63169650000054
 30
0.0
 10
-309.24999299999763
 20
943.63169650000054
 30
0.0
 10
-309.25
 20
997.13169650000054
 30
0.0
 10
-378.91666499999701
 20
997.13169650000054
 30
0.0
 10
-378.91666499999701
 20
1007.6316965000005
 30
0.0
 10
-373.91666499999701
 20
1007.6316965000005
 30
0.0
 10
-373.91666499999701
 20
1047.1316965000005
 30
0.0
 10
-431.74999499999831
 20
1047.1316965000005
 30
0.0
 10
-431.75000499999442
 20
1007.6316965000005
 30
0.0
 10
-426.75000499999442
 20
1007.6316965000005
 30
0.0
 10
-426.75000499999442
 20
997.13169650000054
 30
0.0
 10
-477.25000499999442
 20
997.13169650000054
 30
0.0
 10
-477.25000499999442
 20
1007.6316965000005
 30
0.0
 10
-472.25000499999442
 20
1007.6316965000005
 30
0.0
 10
-472.25000499999442
 20
1047.1316965000005
 30
0.0
 10
-530.08333499999571
 20
1047.1316965000005
 30
0.0
 10
-530.08333499999571
 20
1007.6316965000005
 30
0.0
 10
-525.08333499999571
 20
1007.6316965000005
 30
0.0
 10
-525.08333499999571
 20
997.13169650000054
 30
0.0
 10
-594.75000999999611
 20
997.13169650000054
 30
0.0
 10
-594.75000299999374
 20
943.63169650000054
 30
0.0
 10
-571.74999299999763
 20
943.63169650000054
 30
0.0
 10
-571.74999299999763
 20
933.13169650000054
 30
0.0
 10
-576.74999299999763
 20
933.13169650000054
 30
0.0
 10
-576.75
 20
773.49556850000226
 30
0.0
 10
-554.7739969999966
 20
771.5241915000006
 30
0.0
 10
-554.7739969999966
 20
728.27920150000136
 30
0.0
 10
-594.75
 20
724.69311949999974
 30
0.0
 10
-594.75
 20
643.63169650000054
 30
0.0
 10
-571.75
 20
643.63169650000054
 30
0.0
 10
-571.75
 20
633.13169650000054
 30
0.0
 10
-576.75
 20
633.13169650000054
 30
0.0
 10
-576.75
 20
473.49556850000226
 30
0.0
 10
-554.7739969999966
 20
471.5241915000006
 30
0.0
 10
-554.7739969999966
 20
428.27920150000136
 30
0.0
 10
-594.75
 20
424.69311949999974
 30
0.0
 10
-594.75
 20
343.63169650000054
 30
0.0
 10
-571.75
 20
343.63169650000054
 30
0.0
 10
-571.75
 20
333.13169650000054
 30
0.0
 10
-576.75
 20
333.13169650000054
 30
0.0
 10
-576.75
 20
173.49556850000226
 30
0.0
 10
-554.7739969999966
 20
171.5241915000006
 30
0.0
 10
-554.7739969999966
 20
128.27920150000136
 30
0.0
 10
-594.75
 20
124.69311949999974
 30
0.0
 10
-594.75
 20
43.631696500000544
 30
0.0
 10
-571.75
 20
43.631696500000544
 30
0.0
 10
-571.75
 20
33.131696500000544
 30
0.0
 10
-576.75
 20
33.131696500000544
 30
0.0
 10
-576.75
 20
-116.36830349999946
 30
0.0
 10
-571.75
 20
-116.36830349999946
 30
0.0
 10
-571.75
 20
-126.86830349999946
 30
0.0
 10
-594.75
 20
-126.86830349999946
 30
0.0
 10
-594.75
 20
-207.92972549999831
 30
0.0
 10
-554.7739969999966
 20
-211.51580850000028
 30
0.0
 10
-554.7739969999966
 20
-254.76079849999951
 30
0.0
 10
-576.75
 20
-256.73217450000084
 30
0.0
 10
-576.75
 20
-426.50443149999774
 30
0.0
 10
-554.7739969999966
 20
-428.4758084999994
 30
0.0
 10
-554.7739969999966
 20
-471.72079849999864
 30
0.0
 10
-594.75
 20
-475.30688050000026
 30
0.0
 10
-594.75
 20
-556.36830349999946
 30
0.0
 10
-571.75
 20
-556.36830349999946
 30
0.0
 10
-571.75
 20
-566.86830349999946
 30
0.0
 10
-576.75
 20
-566.86830349999946
 30
0.0
 10
-576.75
 20
-726.50443149999774
 30
0.0
 10
-554.7739969999966
 20
-728.4758084999994
 30
0.0
 10
-554.7739969999966
 20
-771.72079849999864
 30
0.0
 10
-594.75
 20
-775.30688050000026
 30
0.0
 10
-594.75
 20
-856.36830349999946
 30
0.0
 10
-571.75
 20
-856.36830349999946
 30
0.0
 10
-571.75
 20
-866.86830349999946
 30
0.0
 10
-576.75
 20
-866.86830349999946
 30
0.0
 10
-576.75
 20
-1026.5044314999977
 30
0.0
 10
-554.7739969999966
 20
-1028.4758084999994
 30
0.0
 10
-554.7739969999966
 20
-1071.7207984999986
 30
0.0
 10
-594.75
 20
-1075.3068805000003
 30
0.0
 10
-594.75
 20
-1156.3683034999995
 30
0.0
 10
-571.75
 20
-1156.3683034999995
 30
0.0
 10
-571.75
 20
-1166.8683034999995
 30
0.0
 10
-576.75
 20
-1166.8683034999995
 30
0.0
 10
-576.75
 20
-1216.5995085000031
 30
0.0
 10
-559.00000999999611
 20
-1216.5995085000031
 30
0.0
 10
-559.00000999999611
 20
-1211.5995085000031
 30
0.0
 10
-548.50000999999611
 20
-1211.5995085000031
 30
0.0
 10
-548.50000999999611
 20
-1234.5995085000031
 30
0.0
 10
-508.99998999999661
 20
-1234.5995085000031
 30
0.0
 10
-508.99998999999661
 20
-1211.5995085000031
 30
0.0
 10
-498.49998999999661
 20
-1211.5995085000031
 30
0.0
 10
-498.49998999999661
 20
-1216.5970775000023
 30
0.0
 10
-480.75
 20
-1216.425321499999
 30
0.0
 10
-480.75
 20
-1154.2800064999974
 30
0.0
 10
-485.75
 20
-1154.2800064999974
 30
0.0
 10
-485.75
 20
-1143.7793464999995
 30
0.0
 10
-418.25311999999394
 20
-1143.9572584999987
 30
0.0
 10
-418.25311999999394
 20
-1154.4566005000015
 30
0.0
 10
-423.25311999999394
 20
-1154.4566005000015
 30
0.0
 10
-423.25311999999394
 20
-1216.3683034999995
 30
0.0
 10
-192.11387199999444
 20
-1216.3683034999995
 30
0.0
 10
-190.14249500000005
 20
-1194.3923005000033
 30
0.0
 10
-146.89750500000082
 20
-1194.3923005000033
 30
0.0
 10
-143.31142299999919
 20
-1234.3683034999995
 30
0.0
 10
-62.25
 20
-1234.3683034999995
 30
0.0
 10
-62.25
 20
-1211.3683034999995
 30
0.0
 10
-51.75
 20
-1211.3683034999995
 30
0.0
 10
-51.75
 20
-1216.3683034999995
 30
0.0
 10
97.75
 20
-1216.3683034999995
 30
0.0
 10
97.75
 20
-1211.3683034999995
 30
0.0
 10
108.25
 20
-1211.3683034999995
 30
0.0
 10
108.25
 20
-1234.3683135000028
 30
0.0
 10
183.8262109999996
 20
-1234.3683034999995
 30
0.0
 10
183.8262109999996
 20
-1170.2016385000024
 30
0.0
 10
144.3262109999996
 20
-1170.2016385000024
 30
0.0
 10
144.3262109999996
 20
-1175.2016385000024
 30
0.0
 10
133.8262109999996
 20
-1175.2016385000024
 30
0.0
 10
133.8262109999996
 20
-1106.3683085000011
 30
0.0
 10
144.3262109999996
 20
-1106.3683085000011
 30
0.0
 10
144.3262109999996
 20
-1111.3683085000011
 30
0.0
 10
183.8262109999996
 20
-1111.3682984999978
 30
0.0
 10
183.8262109999996
 20
-1071.8682984999978
 30
0.0
 10
144.3262109999996
 20
-1071.8682984999978
 30
0.0
 10
144.3262109999996
 20
-1076.8682984999978
 30
0.0
 10
133.8262109999996
 20
-1076.8682984999978
 30
0.0
 10
133.8262109999996
 20
-1008.0349684999965
 30
0.0
 10
144.3262109999996
 20
-1008.0349684999965
 30
0.0
 10
144.3262109999996
 20
-1013.0349684999965
 30
0.0
 10
183.8262109999996
 20
-1013.0349684999965
 30
0.0
 10
183.8262109999996
 20
-948.86829350000335
 30
0.0
 10
108.25
 20
-948.86830349999946
 30
0.0
 10
108.25
 20
-971.86830349999946
 30
0.0
 10
97.75
 20
-971.86830349999946
 30
0.0
 10
97.75
 20
-966.86830349999946
 30
0.0
 10
-51.75
 20
-966.86830349999946
 30
0.0
 10
-51.75
 20
-971.86830349999946
 30
0.0
 10
-62.25
 20
-971.86830349999946
 30
0.0
 10
-62.25
 20
-948.86830349999946
 30
0.0
 10
-143.31142299999919
 20
-948.86830349999946
 30
0.0
 10
-146.89750500000082
 20
-988.84430650000286
 30
0.0
 10
-190.14249500000005
 20
-988.84430650000286
 30
0.0
 10
-192.11387199999444
 20
-966.86830349999946
 30
0.0
 10
-316.75
 20
-966.86830349999946
 30
0.0
 10
-316.75
 20
-971.86830349999946
 30
0.0
 10
-327.25
 20
-971.86830349999946
 30
0.0
 10
-327.25
 20
-866.86830349999946
 30
0.0
 10
-332.25
 20
-866.86830349999946
 30
0.0
 10
-332.25
 20
-856.36830349999946
 30
0.0
 10
-309.25
 20
-856.36830349999946
 30
0.0
 10
-309.25
 20
-775.30688050000026
 30
0.0
 10
-349.22600299999613
 20
-771.72079849999864
 30
0.0
 10
-349.22600299999613
 20
-728.4758084999994
 30
0.0
 10
-327.25
 20
-726.50443149999774
 30
0.0
  0
LWPOLYLINE
  5
A0
  8
5_6mmTOOL_CUTTHROUGH_OUTSIDE
 62
256
370
-1
 48
1.0
  6
BYLAYER
100
AcDbEntity
100
AcDbPolyline
 90
128
 70
1
 10
576.75
 20
342.26782549999916
 30
0.0
 10
554.77399700000387
 20
344.23920150000049
 30
0.0
 10
554.77399700000387
 20
387.48419149999972
 30
0.0
 10
594.75
 20
391.07027450000169
 30
0.0
 10
594.75
 20
472.13169650000054
 30
0.0
 10
571.75
 20
472.13169650000054
 30
0.0
 10
571.75
 20
482.63169650000054
 30
0.0
 10
576.75
 20
482.63169650000054
 30
0.0
 10
576.75
 20
632.13169650000054
 30
0.0
 10
571.75
 20
632.13169650000054
 30
0.0
 10
571.75
 20
642.63169650000054
 30
0.0
 10
594.75
 20
642.63169650000054
 30
0.0
 10
594.75
 20
723.69311949999974
 30
0.0
 10
554.77399700000387
 20
727.27920150000136
 30
0.0
 10
554.77399700000387
 20
770.5241915000006
 30
0.0
 10
576.75
 20
772.49556850000226
 30
0.0
 10
576.75
 20
1003.6348165000018
 30
0.0
 10
514.83829700000206
 20
1003.6348165000018
 30
0.0
 10
514.83829700000206
 20
998.63481650000176
 30
0.0
 10
504.33895499999926
 20
998.63481650000176
 30
0.0
 10
504.16104300000006
 20
1066.1316965000005
 30
0.0
 10
514.66170300000522
 20
1066.1316965000005
 30
0.0
 10
514.66170300000522
 20
1061.1316965000005
 30
0.0
 10
576.80701799999952
 20
1061.1316965000005
 30
0.0
 10
576.97877400000289
 20
1078.8816864999972
 30
0.0
 10
571.98120500000368
 20
1078.8816864999972
 30
0.0
 10
571.98120500000368
 20
1089.3816864999972
 30
0.0
 10
594.98120500000368
 20
1089.3816864999972
 30
0.0
 10
594.98120500000368
 20
1128.8817064999967
 30
0.0
 10
571.98120500000368
 20
1128.8817064999967
 30
0.0
 10
571.98120500000368
 20
1139.3817064999967
 30
0.0
 10
576.98120500000368
 20
1139.3817064999967
 30
0.0
 10
576.98120500000368
 20
1157.1316965000005
 30
0.0
 10
527.25
 20
1157.1316965000005
 30
0.0
 10
527.25
 20
1152.1316965000005
 30
0.0
 10
516.75
 20
1152.1316965000005
 30
0.0
 10
516.75
 20
1175.1316965000005
 30
0.0
 10
435.68857700000081
 20
1175.1316965000005
 30
0.0
 10
432.10249499999918
 20
1135.1556934999971
 30
0.0
 10
388.85750499999995
 20
1135.1556934999971
 30
0.0
 10
386.88612800000556
 20
1157.1316965000005
 30
0.0
 10
227.25
 20
1157.1316965000005
 30
0.0
 10
227.25
 20
1152.1316965000005
 30
0.0
 10
216.75
 20
1152.1316965000005
 30
0.0
 10
216.75
 20
1175.1316965000005
 30
0.0
 10
135.68857700000081
 20
1175.1316965000005
 30
0.0
 10
132.10249499999918
 20
1135.1556934999971
 30
0.0
 10
88.857504999999946
 20
1135.1556934999971
 30
0.0
 10
86.886128000005556
 20
1157.1316965000005
 30
0.0
 10
-72.75
 20
1157.1316894999982
 30
0.0
 10
-72.75
 20
1152.1316894999982
 30
0.0
 10
-83.25
 20
1152.1316894999982
 30
0.0
 10
-83.25
 20
1175.1316995000016
 30
0.0
 10
-136.75
 20
1175.1317064999967
 30
0.0
 10
-136.75
 20
1105.4650315000035
 30
0.0
 10
-147.25
 20
1105.4650315000035
 30
0.0
 10
-147.25
 20
1110.4650315000035
 30
0.0
 10
-186.75
 20
1110.4650315000035
 30
0.0
 10
-186.75
 20
1052.6317015000022
 30
0.0
 10
-147.25
 20
1052.6317015000022
 30
0.0
 10
-147.25
 20
1057.6317015000022
 30
0.0
 10
-136.75
 20
1057.6317015000022
 30
0.0
 10
-136.75
 20
1007.1317015000022
 30
0.0
 10
-147.25
 20
1007.1317015000022
 30
0.0
 10
-147.25
 20
1012.1317015000022
 30
0.0
 10
-186.75
 20
1012.1316914999989
 30
0.0
 10
-186.75
 20
954.29836149999755
 30
0.0
 10
-147.25
 20
954.29836149999755
 30
0.0
 10
-147.25
 20
959.29836149999755
 30
0.0
 10
-136.75
 20
959.29836149999755
 30
0.0
 10
-136.75
 20
889.63169650000054
 30
0.0
 10
-83.25
 20
889.63168949999817
 30
0.0
 10
-83.25
 20
912.63168949999817
 30
0.0
 10
-72.75
 20
912.63168949999817
 30
0.0
 10
-72.75
 20
907.63168949999817
 30
0.0
 10
86.886128000005556
 20
907.63169650000054
 30
0.0
 10
88.857504999999946
 20
929.60769949999667
 30
0.0
 10
132.10249499999918
 20
929.60769949999667
 30
0.0
 10
135.68857700000081
 20
889.63169650000054
 30
0.0
 10
216.75
 20
889.63169650000054
 30
0.0
 10
216.75
 20
912.63169650000054
 30
0.0
 10
227.25
 20
912.63169650000054
 30
0.0
 10
227.25
 20
907.63169650000054
 30
0.0
 10
332.25
 20
907.63169650000054
 30
0.0
 10
332.25
 20
897.13169650000054
 30
0.0
 10
327.25
 20
897.13169650000054
 30
0.0
 10
327.25
 20
772.49556850000226
 30
0.0
 10
349.2260030000034
 20
770.5241915000006
 30
0.0
 10
349.2260030000034
 20
727.27920150000136
 30
0.0
 10
309.25
 20
723.69311949999974
 30
0.0
 10
309.25
 20
642.63169650000054
 30
0.0
 10
332.25
 20
642.63169650000054
 30
0.0
 10
332.25
 20
632.13169650000054
 30
0.0
 10
327.25
 20
632.13169650000054
 30
0.0
 10
327.25
 20
482.63169650000054
 30
0.0
 10
332.25
 20
482.63169650000054
 30
0.0
 10
332.25
 20
472.13169650000054
 30
0.0
 10
309.25
 20
472.13169650000054
 30
0.0
 10
309.25
 20
391.07027450000169
 30
0.0
 10
349.2260030000034
 20
387.48419149999972
 30
0.0
 10
349.2260030000034
 20
344.23920150000049
 30
0.0
 10
327.25
 20
342.26782549999916
 30
0.0
 10
327.25
 20
182.63169650000054
 30
0.0
 10
332.25
 20
182.63169650000054
 30
0.0
 10
332.25
 20
172.13169650000054
 30
0.0
 10
309.25
 20
172.13169650000054
 30
0.0
 10
309.24999000000389
 20
96.555485500000941
 30
0.0
 10
373.41666500000429
 20
96.555485500000941
 30
0.0
 10
373.41666500000429
 20
136.05548550000094
 30
0.0
 10
368.41666500000429
 20
136.05548550000094
 30
0.0
 10
368.41666500000429
 20
146.55548550000094
 30
0.0
 10
437.24999500000558
 20
146.55548550000094
 30
0.0
 10
437.24999500000558
 20
136.05548550000094
 30
0.0
 10
432.24999500000558
 20
136.05548550000094
 30
0.0
 10
432.24999500000558
 20
96.555485500000941
 30
0.0
 10
471.74999500000558
 20
96.555485500000941
 30
0.0
 10
471.75000500000169
 20
136.05548550000094
 30
0.0
 10
466.75000500000169
 20
136.05548550000094
 30
0.0
 10
466.75000500000169
 20
146.55548550000094
 30
0.0
 10
535.58333500000299
 20
146.55548550000094
 30
0.0
 10
535.58333500000299
 20
136.05548550000094
 30
0.0
 10
530.58333500000299
 20
136.05548550000094
 30
0.0
 10
530.58333500000299
 20
96.555485500000941
 30
0.0
 10
594.75
 20
96.555485500000941
 30
0.0
 10
594.75001000000339
 20
172.13169650000054
 30
0.0
 10
571.75
 20
172.13169650000054
 30
0.0
 10
571.75
 20
182.63169650000054
 30
0.0
 10
576.75
 20
182.63169650000054
 30
0.0
  0
LWPOLYLINE
  5
A1
  8
5_6mmTOOL_CUTTHROUGH_OUTSIDE
 62
256
370
-1
 48
1.0
  6
BYLAYER
100
AcDbEntity
100
AcDbPolyline
 90
136
 70
1
 10
289.44710499999928
 20
-149.16705450000154
 30
0.0
 10
284.44710499999928
 20
-149.16705450000154
 30
0.0
 10
284.44710499999928
 20
-138.66705450000154
 30
0.0
 10
307.44710499999928
 20
-138.66705450000154
 30
0.0
 10
307.44710499999928
 20
-57.605632500002685
 30
0.0
 10
267.47110200000316
 20
-54.019549500000721
 30
0.0
 10
267.47110200000316
 20
-10.774560500001826
 30
0.0
 10
289.44710499999928
 20
-8.8031835000001593
 30
0.0
 10
289.44710499999928
 20
150.83294549999846
 30
0.0
 10
284.44710499999928
 20
150.83294549999846
 30
0.0
 10
284.44710499999928
 20
161.33294549999846
 30
0.0
 10
307.44710499999928
 20
161.33294549999846
 30
0.0
 10
307.44710499999928
 20
242.39436749999732
 30
0.0
 10
267.47110200000316
 20
245.98045049999928
 30
0.0
 10
267.47110200000316
 20
289.22543949999817
 30
0.0
 10
289.44710499999928
 20
291.19681649999984
 30
0.0
 10
289.44710499999928
 20
450.83294549999846
 30
0.0
 10
284.44710499999928
 20
450.83294549999846
 30
0.0
 10
284.44710499999928
 20
461.33294549999846
 30
0.0
 10
307.44710499999928
 20
461.33294549999846
 30
0.0
 10
307.44710499999928
 20
542.39436749999732
 30
0.0
 10
267.47110200000316
 20
545.98045049999928
 30
0.0
 10
267.47110200000316
 20
589.22543949999817
 30
0.0
 10
289.44710499999928
 20
591.19681649999984
 30
0.0
 10
289.44711200000165
 20
750.83294549999846
 30
0.0
 10
284.44711200000165
 20
750.83294549999846
 30
0.0
 10
284.44711200000165
 20
761.33294549999846
 30
0.0
 10
307.44711200000165
 20
761.33294549999846
 30
0.0
 10
307.44710499999928
 20
814.83294549999846
 30
0.0
 10
237.78044000000227
 20
814.83294549999846
 30
0.0
 10
237.78044000000227
 20
825.33294549999846
 30
0.0
 10
242.78044000000227
 20
825.33294549999846
 30
0.0
 10
242.78044000000227
 20
864.83294549999846
 30
0.0
 10
184.94711000000098
 20
864.83294549999846
 30
0.0
 10
184.94710000000487
 20
825.33294549999846
 30
0.0
 10
189.94710000000487
 20
825.33294549999846
 30
0.0
 10
189.94710000000487
 20
814.83294549999846
 30
0.0
 10
139.44710000000487
 20
814.83294549999846
 30
0.0
 10
139.44710000000487
 20
825.33294549999846
 30
0.0
 10
144.44710000000487
 20
825.33294549999846
 30
0.0
 10
144.44710000000487
 20
864.83294549999846
 30
0.0
 10
86.613770000003569
 20
864.83294549999846
 30
0.0
 10
86.613770000003569
 20
825.33294549999846
 30
0.0
 10
91.613770000003569
 20
825.33294549999846
 30
0.0
 10
91.613770000003569
 20
814.83294549999846
 30
0.0
 10
21.947095000003173
 20
814.83294549999846
 30
0.0
 10
21.947102000005543
 20
761.33294549999846
 30
0.0
 10
44.947112000001653
 20
761.33294549999846
 30
0.0
 10
44.947112000001653
 20
750.83294549999846
 30
0.0
 10
39.947112000001653
 20
750.83294549999846
 30
0.0
 10
39.947104999999283
 20
591.19681649999984
 30
0.0
 10
61.923108000002685
 20
589.22543949999817
 30
0.0
 10
61.923108000002685
 20
545.98045049999928
 30
0.0
 10
21.947104999999283
 20
542.39436749999732
 30
0.0
 10
21.947104999999283
 20
461.33294549999846
 30
0.0
 10
44.947104999999283
 20
461.33294549999846
 30
0.0
 10
44.947104999999283
 20
450.83294549999846
 30
0.0
 10
39.947104999999283
 20
450.83294549999846
 30
0.0
 10
39.947104999999283
 20
291.19681649999984
 30
0.0
 10
61.923108000002685
 20
289.22543949999817
 30
0.0
 10
61.923108000002685
 20
245.98045049999928
 30
0.0
 10
21.947104999999283
 20
242.39436749999732
 30
0.0
 10
21.947104999999283
 20
161.33294549999846
 30
0.0
 10
44.947104999999283
 20
161.33294549999846
 30
0.0
 10
44.947104999999283
 20
150.83294549999846
 30
0.0
 10
39.947104999999283
 20
150.83294549999846
 30
0.0
 10
39.947104999999283
 20
-8.8031835000001593
 30
0.0
 10
61.923108000002685
 20
-10.774560500001826
 30
0.0
 10
61.923108000002685
 20
-54.019549500000721
 30
0.0
 10
21.947104999999283
 20
-57.605632500002685
 30
0.0
 10
21.947104999999283
 20
-138.66705450000154
 30
0.0
 10
44.947104999999283
 20
-138.66705450000154
 30
0.0
 10
44.947104999999283
 20
-149.16705450000154
 30
0.0
 10
39.947104999999283
 20
-149.16705450000154
 30
0.0
 10
39.947104999999283
 20
-308.80318350000016
 30
0.0
 10
61.923108000002685
 20
-310.77456050000183
 30
0.0
 10
61.923108000002685
 20
-354.01954950000072
 30
0.0
 10
21.947104999999283
 20
-357.60563250000268
 30
0.0
 10
21.947104999999283
 20
-438.66705450000154
 30
0.0
 10
44.947104999999283
 20
-438.66705450000154
 30
0.0
 10
44.947104999999283
 20
-449.16705450000154
 30
0.0
 10
39.947118000003684
 20
-449.16705450000154
 30
0.0
 10
39.955290000005334
 20
-611.24337250000099
 30
0.0
 10
44.450026000005892
 20
-614.91961949999677
 30
0.0
 10
59.01441600000544
 20
-597.11848450000252
 30
0.0
 10
67.141006000005291
 20
-603.76743149999675
 30
0.0
 10
63.974841000002925
 20
-607.63723649999883
 30
0.0
 10
79.06708300000173
 20
-619.98528349999833
 30
0.0
 10
82.233253000005789
 20
-616.1154755000025
 30
0.0
 10
90.359844999999041
 20
-622.76442349999706
 30
0.0
 10
75.795474000005925
 20
-640.56553949999943
 30
0.0
 10
89.741397000005236
 20
-651.97700449999684
 30
0.0
 10
62.666939000002458
 20
-685.06841449999774
 30
0.0
 10
76.33137600000191
 20
-696.24827150000056
 30
0.0
 10
79.497542000004614
 20
-692.37846649999847
 30
0.0
 10
87.624201999999059
 20
-699.02747049999743
 30
0.0
 10
73.059840000001714
 20
-716.82857550000335
 30
0.0
 10
103.63123500000074
 20
-741.84122850000131
 30
0.0
 10
118.19559700000536
 20
-724.04012350000266
 30
0.0
 10
126.32218900000589
 20
-730.68907149999723
 30
0.0
 10
123.15602300000319
 20
-734.55887649999931
 30
0.0
 10
194.40368300000409
 20
-792.85173450000002
 30
0.0
 10
197.56984899999952
 20
-788.98192949999793
 30
0.0
 10
205.69644100000005
 20
-795.63087749999977
 30
0.0
 10
191.13207200000033
 20
-813.43199050000112
 30
0.0
 10
249.625125999999
 20
-861.28934450000088
 30
0.0
 10
290.25758499999938
 20
-811.62684150000132
 30
0.0
 10
259.6861210000061
 20
-786.61413249999896
 30
0.0
 10
256.51995600000373
 20
-790.48393850000139
 30
0.0
 10
248.3933640000032
 20
-783.83499049999955
 30
0.0
 10
291.98091000000568
 20
-730.56067050000274
 30
0.0
 10
300.10750100000587
 20
-737.2096184999973
 30
0.0
 10
296.9413360000035
 20
-741.07942349999939
 30
0.0
 10
327.51280600000609
 20
-766.09212549999938
 30
0.0
 10
352.52551500000118
 20
-735.52066149999882
 30
0.0
 10
321.95405100000062
 20
-710.50795249999646
 30
0.0
 10
318.78788500000519
 20
-714.37775749999855
 30
0.0
 10
310.661294000005
 20
-707.72880949999671
 30
0.0
 10
354.2488400000002
 20
-654.45448949999991
 30
0.0
 10
362.37543100000039
 20
-661.10343750000175
 30
0.0
 10
359.2092660000053
 20
-664.9732434999969
 30
0.0
 10
389.78072900000552
 20
-689.98595249999926
 30
0.0
 10
430.41319400000066
 20
-640.32344249999733
 30
0.0
 10
371.92014100000233
 20
-592.46608849999757
 30
0.0
 10
357.35577800000465
 20
-610.26719349999621
 30
0.0
 10
349.22918700000446
 20
-603.61824550000165
 30
0.0
 10
352.39535199999955
 20
-599.74844049999956
 30
0.0
 10
289.43582900000183
 20
-548.23674049999681
 30
0.0
 10
289.44707700000436
 20
-449.16705450000154
 30
0.0
 10
284.44710499999928
 20
-449.16705450000154
 30
0.0
 10
284.44710499999928
 20
-438.66705450000154
 30
0.0
 10
307.44710499999928
 20
-438.66705450000154
 30
0.0
 10
307.44710499999928
 20
-357.60563250000268
 30
0.0
 10
267.47110200000316
 20
-354.01954950000072
 30
0.0
 10
267.47110200000316
 20
-310.77456050000183
 30
0.0
 10
289.44710499999928
 20
-308.80318350000016
 30
0.0
  0
LWPOLYLINE
  5
A2
  8
5_6mmTOOL_CUTTHROUGH_OUTSIDE
 62
256
370
-1
 48
1.0
  6
BYLAYER
100
AcDbEntity
100
AcDbPolyline
 90
116
 70
1
 10
-12.064988999998604
 20
-297.35264749999624
 30
0.0
 10
-17.064988999998604
 20
-297.35264749999624
 30
0.0
 10
-17.064988999998604
 20
-286.85264749999624
 30
0.0
 10
5.9350110000013956
 20
-286.85264749999624
 30
0.0
 10
5.9350110000013956
 20
-205.79122549999738
 30
0.0
 10
-34.040992999995069
 20
-202.20514250000269
 30
0.0
 10
-34.040992999995069
 20
-158.96015249999618
 30
0.0
 10
-12.064988999998604
 20
-156.98877650000213
 30
0.0
 10
-12.064988999998604
 20
2.6473525000037625
 30
0.0
 10
-17.064988999998604
 20
2.6473525000037625
 30
0.0
 10
-17.064988999998604
 20
13.147352500003763
 30
0.0
 10
5.9350110000013956
 20
13.147352500003763
 30
0.0
 10
5.9350110000013956
 20
94.208774500002619
 30
0.0
 10
-34.040992999995069
 20
97.794857499997306
 30
0.0
 10
-34.040992999995069
 20
141.03984750000382
 30
0.0
 10
-12.064988999998604
 20
143.01122349999787
 30
0.0
 10
-12.064988999998604
 20
302.64735250000376
 30
0.0
 10
-17.064988999998604
 20
302.64735250000376
 30
0.0
 10
-17.064988999998604
 20
313.14735250000376
 30
0.0
 10
5.9350110000013956
 20
313.14735250000376
 30
0.0
 10
5.9350110000013956
 20
394.20877450000262
 30
0.0
 10
-34.040992999995069
 20
397.79485749999731
 30
0.0
 10
-34.040992999995069
 20
441.03984750000382
 30
0.0
 10
-12.064988999998604
 20
443.01122349999787
 30
0.0
 10
-12.064981999996235
 20
602.647375499997
 30
0.0
 10
-17.064981999996235
 20
602.647375499997
 30
0.0
 10
-17.064982999996573
 20
613.147375499997
 30
0.0
 10
5.9350170000034268
 20
613.14737749999767
 30
0.0
 10
5.9350010000052862
 20
716.64737749999767
 30
0.0
 10
-63.73167399999511
 20
716.64737050000258
 30
0.0
 10
-63.731674999995448
 20
727.14737050000258
 30
0.0
 10
-58.731674999995448
 20
727.14737150000292
 30
0.0
 10
-58.731678999996802
 20
766.64737150000292
 30
0.0
 10
-116.5650089999981
 20
766.64736550000089
 30
0.0
 10
-116.56501500000013
 20
727.14736550000089
 30
0.0
 10
-111.56501500000013
 20
727.14736650000123
 30
0.0
 10
-111.56501399999979
 20
716.64736650000123
 30
0.0
 10
-162.06501399999979
 20
716.64736149999953
 30
0.0
 10
-162.06501500000013
 20
727.14736149999953
 30
0.0
 10
-157.06501500000013
 20
727.14736249999987
 30
0.0
 10
-157.06501899999421
 20
766.64736249999987
 30
0.0
 10
-214.89834899999551
 20
766.64735649999784
 30
0.0
 10
-214.89834499999415
 20
727.14735649999784
 30
0.0
 10
-209.89834499999415
 20
727.14735749999818
 30
0.0
 10
-209.89834399999381
 20
716.64735749999818
 30
0.0
 10
-279.56501700000081
 20
716.64735050000309
 30
0.0
 10
-279.56499999999505
 20
613.14735050000309
 30
0.0
 10
-256.56498999999894
 20
613.14735250000376
 30
0.0
 10
-256.5649889999986
 20
602.64735250000376
 30
0.0
 10
-261.5649889999986
 20
602.64735250000376
 30
0.0
 10
-261.5649889999986
 20
443.01122349999787
 30
0.0
 10
-239.5889859999952
 20
441.03984750000382
 30
0.0
 10
-239.5889859999952
 20
397.79485749999731
 30
0.0
 10
-279.5649889999986
 20
394.20877450000262
 30
0.0
 10
-279.5649889999986
 20
313.14735250000376
 30
0.0
 10
-256.5649889999986
 20
313.14735250000376
 30
0.0
 10
-256.5649889999986
 20
302.64735250000376
 30
0.0
 10
-261.5649889999986
 20
302.64735250000376
 30
0.0
 10
-261.5649889999986
 20
143.01122349999787
 30
0.0
 10
-239.5889859999952
 20
141.03984750000382
 30
0.0
 10
-239.5889859999952
 20
97.794857499997306
 30
0.0
 10
-279.5649889999986
 20
94.208774500002619
 30
0.0
 10
-279.5649889999986
 20
13.147352500003763
 30
0.0
 10
-256.5649889999986
 20
13.147352500003763
 30
0.0
 10
-256.5649889999986
 20
2.6473525000037625
 30
0.0
 10
-261.5649889999986
 20
2.6473525000037625
 30
0.0
 10
-261.5649889999986
 20
-156.98877650000213
 30
0.0
 10
-239.5889859999952
 20
-158.96015249999618
 30
0.0
 10
-239.5889859999952
 20
-202.20514250000269
 30
0.0
 10
-279.5649889999986
 20
-205.79122549999738
 30
0.0
 10
-279.5649889999986
 20
-286.85264749999624
 30
0.0
 10
-256.5649889999986
 20
-286.85264749999624
 30
0.0
 10
-256.5649889999986
 20
-297.35264749999624
 30
0.0
 10
-261.5649889999986
 20
-297.35264749999624
 30
0.0
 10
-261.5649889999986
 20
-456.98877650000213
 30
0.0
 10
-239.5889859999952
 20
-458.96015249999618
 30
0.0
 10
-239.5889859999952
 20
-502.20514250000269
 30
0.0
 10
-279.5649889999986
 20
-505.79122549999738
 30
0.0
 10
-279.5649889999986
 20
-586.85264749999624
 30
0.0
 10
-256.5649889999986
 20
-586.85264749999624
 30
0.0
 10
-256.5649889999986
 20
-597.35264749999624
 30
0.0
 10
-261.5649889999986
 20
-597.35264749999624
 30
0.0
 10
-261.5649889999986
 20
-746.85264749999624
 30
0.0
 10
-256.5649889999986
 20
-746.85264749999624
 30
0.0
 10
-256.5649889999986
 20
-757.35264749999624
 30
0.0
 10
-279.56499899999471
 20
-757.35264749999624
 30
0.0
 10
-279.56499799999438
 20
-782.92885850000312
 30
0.0
 10
-215.39833299999736
 20
-782.92885850000312
 30
0.0
 10
-215.39833299999736
 20
-743.42885850000312
 30
0.0
 10
-220.39833299999736
 20
-743.42885850000312
 30
0.0
 10
-220.39833299999736
 20
-732.92885850000312
 30
0.0
 10
-151.56500299999607
 20
-732.92885850000312
 30
0.0
 10
-151.56500299999607
 20
-743.42885850000312
 30
0.0
 10
-156.56500299999607
 20
-743.42885850000312
 30
0.0
 10
-156.56499299999996
 20
-782.92885850000312
 30
0.0
 10
-117.06499299999996
 20
-782.92885850000312
 30
0.0
 10
-117.06499299999996
 20
-743.42885850000312
 30
0.0
 10
-122.06499299999996
 20
-743.42885850000312
 30
0.0
 10
-122.06499299999996
 20
-732.92885850000312
 30
0.0
 10
-53.231662999998662
 20
-732.92885850000312
 30
0.0
 10
-53.231662999998662
 20
-743.42885850000312
 30
0.0
 10
-58.231662999998662
 20
-743.42885850000312
 30
0.0
 10
-58.231662999998662
 20
-782.92885850000312
 30
0.0
 10
5.9350279999998747
 20
-782.92885850000312
 30
0.0
 10
5.9365760000000591
 20
-757.34273450000182
 30
0.0
 10
-17.063408999994863
 20
-757.34273450000182
 30
0.0
 10
-17.063408999994863
 20
-746.84273450000182
 30
0.0
 10
-12.06341099999554
 20
-746.84273450000182
 30
0.0
 10
-12.064986999997927
 20
-597.35264749999624
 30
0.0
 10
-17.064988999998604
 20
-597.35264749999624
 30
0.0
 10
-17.064988999998604
 20
-586.85264749999624
 30
0.0
 10
5.9350110000013956
 20
-586.85264749999624
 30
0.0
 10
5.9350110000013956
 20
-505.79122549999738
 30
0.0
 10
-34.040992999995069
 20
-502.20514250000269
 30
0.0
 10
-34.040992999995069
 20
-458.96015249999618
 30
0.0
 10
-12.064988999998604
 20
-456.98877650000213
 30
0.0
  0
LWPOLYLINE
  5
A3
  8
4_6mmTOOL_CUTTHROUGH_INSIDE
 62
256
370
-1
 48
1.0
  6
BYLAYER
100
AcDbEntity
100
AcDbPolyline
 90
12
 70
1
 10
351.0
 20
981.38169650000054
 30
0.0
 10
321.0
 20
981.38169650000054
 30
0.0
 10
321.0
 20
993.38169650000054
 30
0.0
 10
326.0
 20
993.38169650000054
 30
0.0
 10
326.0
 20
1071.3816965000005
 30
0.0
 10
321.0
 20
1071.3816965000005
 30
0.0
 10
321.0
 20
1083.3816965000005
 30
0.0
 10
351.0
 20
1083.3816965000005
 30
0.0
 10
351.0
 20
1071.3816965000005
 30
0.0
 10
346.0
 20
1071.3816965000005
 30
0.0
 10
346.0
 20
993.38169650000054
 30
0.0
 10
351.0
 20
993.38169650000054
 30
0.0
  0
LWPOLYLINE
  5
A4
  8
4_6mmTOOL_CUTTHROUGH_INSIDE
 62
256
370
-1
 48
1.0
  6
BYLAYER
100
AcDbEntity
100
AcDbPolyline
 90
12
 70
1
 10
413.0
 20
692.38169650000054
 30
0.0
 10
401.0
 20
692.38169650000054
 30
0.0
 10
401.0
 20
722.38169650000054
 30
0.0
 10
413.0
 20
722.38169650000054
 30
0.0
 10
413.0
 20
717.38169650000054
 30
0.0
 10
491.0
 20
717.38169650000054
 30
0.0
 10
491.0
 20
722.38169650000054
 30
0.0
 10
503.0
 20
722.38169650000054
 30
0.0
 10
503.0
 20
692.38169650000054
 30
0.0
 10
491.0
 20
692.38169650000054
 30
0.0
 10
491.0
 20
697.38169650000054
 30
0.0
 10
413.0
 20
697.38169650000054
 30
0.0
  0
LWPOLYLINE
  5
A5
  8
4_6mmTOOL_CUTTHROUGH_INSIDE
 62
256
370
-1
 48
1.0
  6
BYLAYER
100
AcDbEntity
100
AcDbPolyline
 90
12
 70
1
 10
-175.81500699999742
 20
662.89736049999919
 30
0.0
 10
-187.81500699999742
 20
662.89735949999886
 30
0.0
 10
-187.81500999999844
 20
692.89735949999886
 30
0.0
 10
-175.81500999999844
 20
692.89736049999919
 30
0.0
 10
-175.8150089999981
 20
687.89736049999919
 30
0.0
 10
-97.815008999998099
 20
687.89736750000156
 30
0.0
 10
-97.815009999998438
 20
692.89736750000156
 30
0.0
 10
-85.815009999998438
 20
692.8973685000019
 30
0.0
 10
-85.815006999997422
 20
662.8973685000019
 30
0.0
 10
-97.815006999997422
 20
662.89736750000156
 30
0.0
 10
-97.815006999997422
 20
667.89736750000156
 30
0.0
 10
-175.81500699999742
 20
667.89736049999919
 30
0.0
  0
LWPOLYLINE
  5
A6
  8
4_6mmTOOL_CUTTHROUGH_INSIDE
 62
256
370
-1
 48
1.0
  6
BYLAYER
100
AcDbEntity
100
AcDbPolyline
 90
12
 70
1
 10
-413.0
 20
93.381696500000544
 30
0.0
 10
-413.0
 20
98.381696500000544
 30
0.0
 10
-491.0
 20
98.381696500000544
 30
0.0
 10
-491.0
 20
93.381696500000544
 30
0.0
 10
-503.0
 20
93.381696500000544
 30
0.0
 10
-503.0
 20
123.38169650000054
 30
0.0
 10
-491.0
 20
123.38169650000054
 30
0.0
 10
-491.0
 20
118.38169650000054
 30
0.0
 10
-413.0
 20
118.38169650000054
 30
0.0
 10
-413.0
 20
123.38169650000054
 30
0.0
 10
-401.0
 20
123.38169650000054
 30
0.0
 10
-401.0
 20
93.381696500000544
 30
0.0
  0
LWPOLYLINE
  5
A7
  8
4_6mmTOOL_CUTTHROUGH_INSIDE
 62
256
370
-1
 48
1.0
  6
BYLAYER
100
AcDbEntity
100
AcDbPolyline
 90
12
 70
1
 10
-423.0
 20
-206.61830349999946
 30
0.0
 10
-423.0
 20
-201.61830349999946
 30
0.0
 10
-481.0
 20
-201.61830349999946
 30
0.0
 10
-481.0
 20
-206.61830349999946
 30
0.0
 10
-493.0
 20
-206.61830349999946
 30
0.0
 10
-493.0
 20
-176.61830349999946
 30
0.0
 10
-481.0
 20
-176.61830349999946
 30
0.0
 10
-481.0
 20
-181.61830349999946
 30
0.0
 10
-423.0
 20
-181.61830349999946
 30
0.0
 10
-423.0
 20
-176.61830349999946
 30
0.0
 10
-411.0
 20
-176.61830349999946
 30
0.0
 10
-411.0
 20
-206.61830349999946
 30
0.0
  0
LWPOLYLINE
  5
A8
  8
4_6mmTOOL_CUTTHROUGH_INSIDE
 62
256
370
-1
 48
1.0
  6
BYLAYER
100
AcDbEntity
100
AcDbPolyline
 90
12
 70
1
 10
125.69710499999928
 20
-358.91705450000154
 30
0.0
 10
125.69710499999928
 20
-363.91705450000154
 30
0.0
 10
203.69710499999928
 20
-363.91705450000154
 30
0.0
 10
203.69710499999928
 20
-358.91705450000154
 30
0.0
 10
215.69710499999928
 20
-358.91705450000154
 30
0.0
 10
215.69710499999928
 20
-388.91705450000154
 30
0.0
 10
203.69710499999928
 20
-388.91705450000154
 30
0.0
 10
203.69710499999928
 20
-383.91705450000154
 30
0.0
 10
125.69710499999928
 20
-383.91705450000154
 30
0.0
 10
125.69710499999928
 20
-388.91705450000154
 30
0.0
 10
113.69710499999928
 20
-388.91705450000154
 30
0.0
 10
113.69710499999928
 20
-358.91705450000154
 30
0.0
  0
LWPOLYLINE
  5
A9
  8
4_6mmTOOL_CUTTHROUGH_INSIDE
 62
256
370
-1
 48
1.0
  6
BYLAYER
100
AcDbEntity
100
AcDbPolyline
 90
12
 70
1
 10
134.53633000000264
 20
-563.33313150000322
 30
0.0
 10
143.82386300000508
 20
-570.9319295000023
 30
0.0
 10
140.65769800000271
 20
-574.80173449999711
 30
0.0
 10
170.06822000000102
 20
-598.86459450000257
 30
0.0
 10
173.23438500000339
 20
-594.99478850000014
 30
0.0
 10
182.52191800000583
 20
-602.59358649999922
 30
0.0
 10
163.52492400000483
 20
-625.81241949999821
 30
0.0
 10
154.23739100000239
 20
-618.21362149999914
 30
0.0
 10
157.40355700000509
 20
-614.34381649999705
 30
0.0
 10
127.99303499999951
 20
-590.28095649999887
 30
0.0
 10
124.82686900000408
 20
-594.15076250000129
 30
0.0
 10
115.53933600000164
 20
-586.55196450000221
 30
0.0
  0
LWPOLYLINE
  5
AA
  8
4_6mmTOOL_CUTTHROUGH_INSIDE
 62
256
370
-1
 48
1.0
  6
BYLAYER
100
AcDbEntity
100
AcDbPolyline
 90
12
 70
1
 10
238.47162400000525
 20
-614.74883150000096
 30
0.0
 10
261.69045700000424
 20
-633.74582550000196
 30
0.0
 10
254.0916600000055
 20
-643.03335949999746
 30
0.0
 10
250.22185400000308
 20
-639.86719350000203
 30
0.0
 10
213.49433200000203
 20
-684.7569375000021
 30
0.0
 10
217.36413700000412
 20
-687.92310349999752
 30
0.0
 10
209.76534000000538
 20
-697.21063649999996
 30
0.0
 10
186.54650699999911
 20
-678.21364249999897
 30
0.0
 10
194.14530400000513
 20
-668.92610849999619
 30
0.0
 10
198.01511000000028
 20
-672.09227449999889
 30
0.0
 10
234.74263200000132
 20
-627.20253049999883
 30
0.0
 10
230.87282699999923
 20
-624.0363645000034
 30
0.0
  0
LWPOLYLINE
  5
AB
  8
4_6mmTOOL_CUTTHROUGH_INSIDE
 62
256
370
-1
 48
1.0
  6
BYLAYER
100
AcDbEntity
100
AcDbPolyline
 90
12
 70
1
 10
-413.0
 20
-960.61830349999946
 30
0.0
 10
-401.0
 20
-960.61830349999946
 30
0.0
 10
-401.0
 20
-990.61830349999946
 30
0.0
 10
-413.0
 20
-990.61830349999946
 30
0.0
 10
-413.0
 20
-985.61830349999946
 30
0.0
 10
-491.0
 20
-985.61830349999946
 30
0.0
 10
-491.0
 20
-990.61830349999946
 30
0.0
 10
-503.0
 20
-990.61830349999946
 30
0.0
 10
-503.0
 20
-960.61830349999946
 30
0.0
 10
-491.0
 20
-960.61830349999946
 30
0.0
 10
-491.0
 20
-965.61830349999946
 30
0.0
 10
-413.0
 20
-965.61830349999946
 30
0.0
  0
LWPOLYLINE
  5
AC
  8
4_6mmTOOL_CUTTHROUGH_INSIDE
 62
256
370
-1
 48
1.0
  6
BYLAYER
100
AcDbEntity
100
AcDbPolyline
 90
12
 70
1
 10
-142.0
 20
-1040.6183034999995
 30
0.0
 10
-112.0
 20
-1040.6183034999995
 30
0.0
 10
-112.0
 20
-1052.6183034999995
 30
0.0
 10
-117.0
 20
-1052.6183034999995
 30
0.0
 10
-117.0
 20
-1130.6183034999995
 30
0.0
 10
-112.0
 20
-1130.6183034999995
 30
0.0
 10
-112.0
 20
-1142.6183034999995
 30
0.0
 10
-142.0
 20
-1142.6183034999995
 30
0.0
 10
-142.0
 20
-1130.6183034999995
 30
0.0
 10
-137.0
 20
-1130.6183034999995
 30
0.0
 10
-137.0
 20
-1052.6183034999995
 30
0.0
 10
-142.0
 20
-1052.6183034999995
 30
0.0
  0
LWPOLYLINE
  5
AD
  8
4_6mmTOOL_CUTTHROUGH_INSIDE
 62
256
370
-1
 48
1.0
  6
BYLAYER
100
AcDbEntity
100
AcDbPolyline
 90
12
 70
1
 10
365.08613800000603
 20
-998.04446849999658
 30
0.0
 10
365.08613800000603
 20
-968.04446849999658
 30
0.0
 10
377.08613800000603
 20
-968.04446849999658
 30
0.0
 10
377.08613800000603
 20
-973.04446849999658
 30
0.0
 10
435.08613800000603
 20
-973.04446849999658
 30
0.0
 10
435.08613800000603
 20
-968.04446849999658
 30
0.0
 10
447.08613800000603
 20
-968.04446849999658
 30
0.0
 10
447.08613800000603
 20
-998.04446849999658
 30
0.0
 10
435.08613800000603
 20
-998.04446849999658
 30
0.0
 10
435.08613800000603
 20
-993.04446849999658
 30
0.0
 10
377.08613800000603
 20
-993.04446849999658
 30
0.0
 10
377.08613800000603
 20
-998.04446849999658
 30
0.0
  0
ENDSEC
  0
SECTION
  2
OBJECTS
  0
DICTIONARY
  5
C
100
AcDbDictionary
280
0
281
1
  3
ACAD_GROUP
350
D
  3
ACAD_LAYOUT
350
1A
  3
ACAD_MLINESTYLE
350
17
  3
ACAD_PLOTSETTINGS
350
19
  3
ACAD_PLOTSTYLENAME
350
E
  3
AcDbVariableDictionary
350
AE
  3
QCAD_OBJECTS
350
AF
  0
DICTIONARY
  5
D
100
AcDbDictionary
280
0
281
1
  0
ACDBDICTIONARYWDFLT
  5
E
100
AcDbDictionary
281
1
  3
Normal
350
F
100
AcDbDictionaryWithDefault
340
F
  0
ACDBPLACEHOLDER
  5
F
  0
DICTIONARY
  5
17
100
AcDbDictionary
280
0
281
1
  3
Standard
350
18
  0
MLINESTYLE
  5
18
100
AcDbMlineStyle
  2
STANDARD
 70
0
  3

 62
256
 51
90.0
 52
90.0
 71
2
 49
0.5
 62
256
  6
BYLAYER
 49
-0.5
 62
256
  6
BYLAYER
  0
DICTIONARY
  5
19
100
AcDbDictionary
280
0
281
1
  0
DICTIONARY
  5
1A
100
AcDbDictionary
281
1
  3
Layout1
350
1E
  3
Layout2
350
26
  3
Model
350
22
  0
LAYOUT
  5
1E
100
AcDbPlotSettings
  1

  2
none_device
  4

  6

 40
0.0
 41
0.0
 42
0.0
 43
0.0
 44
0.0
 45
0.0
 46
0.0
 47
0.0
 48
0.0
 49
0.0
140
0.0
141
0.0
142
1.0
143
1.0
 70
688
 72
0
 73
0
 74
5
  7

 75
16
147
1.0
148
0.0
149
0.0
100
AcDbLayout
  1
Layout1
 70
1
 71
1
 10
0.0
 20
0.0
 11
420.0
 21
297.0
 12
0.0
 22
0.0
 32
0.0
 14
100000000000000000000.0
 24
100000000000000000000.0
 34
100000000000000000000.0
 15
-100000000000000000000.0
 25
-100000000000000000000.0
 35
-100000000000000000000.0
146
0.0
 13
0.0
 23
0.0
 33
0.0
 16
1.0
 26
0.0
 36
0.0
 17
0.0
 27
1.0
 37
0.0
 76
0
330
1B
  0
LAYOUT
  5
22
100
AcDbPlotSettings
  1

  2
none_device
  4

  6

 40
0.0
 41
0.0
 42
0.0
 43
0.0
 44
0.0
 45
0.0
 46
0.0
 47
0.0
 48
0.0
 49
0.0
140
0.0
141
0.0
142
1.0
143
1.0
 70
1712
 72
0
 73
0
 74
0
  7

 75
0
147
1.0
148
0.0
149
0.0
100
AcDbLayout
  1
Model
 70
1
 71
0
 10
0.0
 20
0.0
 11
12.0
 21
9.0
 12
0.0
 22
0.0
 32
0.0
 14
0.0
 24
0.0
 34
0.0
 15
0.0
 25
0.0
 35
0.0
146
0.0
 13
0.0
 23
0.0
 33
0.0
 16
1.0
 26
0.0
 36
0.0
 17
0.0
 27
1.0
 37
0.0
 76
0
330
1F
  0
LAYOUT
  5
26
100
AcDbPlotSettings
  1

  2
none_device
  4

  6

 40
0.0
 41
0.0
 42
0.0
 43
0.0
 44
0.0
 45
0.0
 46
0.0
 47
0.0
 48
0.0
 49
0.0
140
0.0
141
0.0
142
1.0
143
1.0
 70
688
 72
0
 73
0
 74
5
  7

 75
16
147
1.0
148
0.0
149
0.0
100
AcDbLayout
  1
Layout2
 70
1
 71
2
 10
0.0
 20
0.0
 11
12.0
 21
9.0
 12
0.0
 22
0.0
 32
0.0
 14
0.0
 24
0.0
 34
0.0
 15
0.0
 25
0.0
 35
0.0
146
0.0
 13
0.0
 23
0.0
 33
0.0
 16
1.0
 26
0.0
 36
0.0
 17
0.0
 27
1.0
 37
0.0
 76
0
330
23
  0
DICTIONARY
  5
AE
100
AcDbDictionary
281
1
  3
DIMASSOC
350
B1
  3
HIDETEXT
350
B0
  0
DICTIONARYVAR
  5
B0
100
DictionaryVariables
280
0
  1
2
  0
DICTIONARYVAR
  5
B1
100
DictionaryVariables
280
0
  1
1
  0
DICTIONARY
  5
AF
100
AcDbDictionary
281
1
  3
ColorSettings/BackgroundColor
350
B2
  3
ColorSettings/ColorMode
350
B3
  3
Grid/DisplayGrid00
350
B4
  3
Grid/DisplayGrid01
350
B5
  3
Grid/DisplayGrid02
350
B6
  3
Grid/DisplayGrid03
350
B7
  3
Grid/GridSpacingX00
350
B8
  3
Grid/GridSpacingX01
350
B9
  3
Grid/GridSpacingX02
350
BA
  3
Grid/GridSpacingX03
350
BB
  3
Grid/GridSpacingY00
350
BC
  3
Grid/GridSpacingY01
350
BD
  3
Grid/GridSpacingY02
350
BE
  3
Grid/GridSpacingY03
350
BF
  3
Grid/IsometricGrid00
350
C0
  3
Grid/IsometricGrid01
350
C1
  3
Grid/IsometricGrid02
350
C2
  3
Grid/IsometricGrid03
350
C3
  3
Grid/IsometricProjection00
350
C4
  3
Grid/IsometricProjection01
350
C5
  3
Grid/IsometricProjection02
350
C6
  3
Grid/IsometricProjection03
350
C7
  3
Grid/MetaGridSpacingX00
350
C8
  3
Grid/MetaGridSpacingX01
350
C9
  3
Grid/MetaGridSpacingX02
350
CA
  3
Grid/MetaGridSpacingX03
350
CB
  3
Grid/MetaGridSpacingY00
350
CC
  3
Grid/MetaGridSpacingY01
350
CD
  3
Grid/MetaGridSpacingY02
350
CE
  3
Grid/MetaGridSpacingY03
350
CF
  3
MultiPageSettings/Columns
350
D0
  3
MultiPageSettings/GlueMarginsBottom
350
D1
  3
MultiPageSettings/GlueMarginsLeft
350
D2
  3
MultiPageSettings/GlueMarginsRight
350
D3
  3
MultiPageSettings/GlueMarginsTop
350
D4
  3
MultiPageSettings/PrintCropMarks
350
D5
  3
MultiPageSettings/Rows
350
D6
  3
PageSettings/OffsetX
350
D7
  3
PageSettings/OffsetY
350
D8
  3
PageSettings/PageOrientation
350
D9
  3
PageSettings/PaperHeight
350
DA
  3
PageSettings/PaperWidth
350
DB
  3
PageSettings/Scale
350
DC
  3
PageSettings/ShowPaperBorders
350
DD
  3
UnitSettings/PaperUnit
350
DE
  0
XRECORD
  5
B2
330
AF
100
AcDbXrecord
280
1
1000
White
  0
XRECORD
  5
B3
330
AF
100
AcDbXrecord
280
1
1000
FullColor
  0
XRECORD
  5
B4
330
AF
100
AcDbXrecord
280
1
290
1
  0
XRECORD
  5
B5
330
AF
100
AcDbXrecord
280
1
290
1
  0
XRECORD
  5
B6
330
AF
100
AcDbXrecord
280
1
290
1
  0
XRECORD
  5
B7
330
AF
100
AcDbXrecord
280
1
290
1
  0
XRECORD
  5
B8
330
AF
100
AcDbXrecord
280
1
1000
auto
  0
XRECORD
  5
B9
330
AF
100
AcDbXrecord
280
1
1000
auto
  0
XRECORD
  5
BA
330
AF
100
AcDbXrecord
280
1
1000
auto
  0
XRECORD
  5
BB
330
AF
100
AcDbXrecord
280
1
1000
auto
  0
XRECORD
  5
BC
330
AF
100
AcDbXrecord
280
1
1000
auto
  0
XRECORD
  5
BD
330
AF
100
AcDbXrecord
280
1
1000
auto
  0
XRECORD
  5
BE
330
AF
100
AcDbXrecord
280
1
1000
auto
  0
XRECORD
  5
BF
330
AF
100
AcDbXrecord
280
1
1000
auto
  0
XRECORD
  5
C0
330
AF
100
AcDbXrecord
280
1
290
0
  0
XRECORD
  5
C1
330
AF
100
AcDbXrecord
280
1
290
0
  0
XRECORD
  5
C2
330
AF
100
AcDbXrecord
280
1
290
0
  0
XRECORD
  5
C3
330
AF
100
AcDbXrecord
280
1
290
0
  0
XRECORD
  5
C4
330
AF
100
AcDbXrecord
280
1
 90
0
  0
XRECORD
  5
C5
330
AF
100
AcDbXrecord
280
1
 90
0
  0
XRECORD
  5
C6
330
AF
100
AcDbXrecord
280
1
 90
0
  0
XRECORD
  5
C7
330
AF
100
AcDbXrecord
280
1
 90
0
  0
XRECORD
  5
C8
330
AF
100
AcDbXrecord
280
1
1000
auto
  0
XRECORD
  5
C9
330
AF
100
AcDbXrecord
280
1
1000
auto
  0
XRECORD
  5
CA
330
AF
100
AcDbXrecord
280
1
1000
auto
  0
XRECORD
  5
CB
330
AF
100
AcDbXrecord
280
1
1000
auto
  0
XRECORD
  5
CC
330
AF
100
AcDbXrecord
280
1
1000
auto
  0
XRECORD
  5
CD
330
AF
100
AcDbXrecord
280
1
1000
auto
  0
XRECORD
  5
CE
330
AF
100
AcDbXrecord
280
1
1000
auto
  0
XRECORD
  5
CF
330
AF
100
AcDbXrecord
280
1
1000
auto
  0
XRECORD
  5
D0
330
AF
100
AcDbXrecord
280
1
 90
1
  0
XRECORD
  5
D1
330
AF
100
AcDbXrecord
280
1
 40
0.5
  0
XRECORD
  5
D2
330
AF
100
AcDbXrecord
280
1
 40
0.5
  0
XRECORD
  5
D3
330
AF
100
AcDbXrecord
280
1
 40
0.5
  0
XRECORD
  5
D4
330
AF
100
AcDbXrecord
280
1
 40
0.5
  0
XRECORD
  5
D5
330
AF
100
AcDbXrecord
280
1
290
0
  0
XRECORD
  5
D6
330
AF
100
AcDbXrecord
280
1
 90
1
  0
XRECORD
  5
D7
330
AF
100
AcDbXrecord
280
1
 40
0.0
  0
XRECORD
  5
D8
330
AF
100
AcDbXrecord
280
1
 40
0.0
  0
XRECORD
  5
D9
330
AF
100
AcDbXrecord
280
1
1000
Portrait
  0
XRECORD
  5
DA
330
AF
100
AcDbXrecord
280
1
 40
11.692913385826801
  0
XRECORD
  5
DB
330
AF
100
AcDbXrecord
280
1
 40
8.2677165354330704
  0
XRECORD
  5
DC
330
AF
100
AcDbXrecord
280
1
1000
1:1
  0
XRECORD
  5
DD
330
AF
100
AcDbXrecord
280
1
290
1
  0
XRECORD
  5
DE
330
AF
100
AcDbXrecord
280
1
 90
1
  0
ENDSEC
  0
EOF
