999
dxfrw 0.5.13
0
SECTION
2
HEADER
9
$ACADVER
1
AC1009
9
$DWGCODEPAGE
3
ANSI_1252
9
$INSBASE
10
0
20
0
30
0
9
$EXTMIN
10
39044.0000028
20
26084.0000044
30
0
9
$EXTMAX
10
56722.4456554
20
33845.9444291
30
0
9
$LIMMIN
10
0
20
0
9
$LIMMAX
10
12
20
9
9
$ORTHOMODE
70
0
9
$LTSCALE
40
1
9
$TEXTSTYLE
7
STANDARD
9
$CLAYER
8
0
9
$DIMASZ
40
0.18
9
$DIMLFAC
40
1
9
$DIMSCALE
40
1
9
$DIMEXO
40
0.0625
9
$DIMEXE
40
0.18
9
$DIMTXT
40
0.18
9
$DIMTSZ
40
0
9
$DIMUNIT
70
2
9
$DIMSTYLE
2
STANDARD
9
$DIMGAP
40
0.09
9
$DIMTIH
70
1
9
$LUNITS
70
2
9
$LUPREC
70
4
9
$AUNITS
70
0
9
$AUPREC
70
0
9
$GRIDMODE
70
0
9
$SNAPSTYLE
70
0
9
$PLIMMIN
10
0
20
0
9
$PLIMMAX
10
12
20
9
0
ENDSEC
0
SECTION
2
CLASSES
0
ENDSEC
0
SECTION
2
TABLES
0
TABLE
2
VPORT
70
1
0
VPORT
2
*ACTIVE
70
0
10
0
20
0
11
1
21
1
12
23361.0143048
22
14938.2863473
13
0
23
0
14
10
24
10
15
10
25
10
16
0
26
0
36
1
17
0
27
0
37
0
40
5097.87150591
41
2.29302987198
42
50
43
0
44
0
50
0
51
0
71
0
72
100
73
1
74
3
75
0
76
0
77
0
78
0
0
ENDTAB
0
TABLE
2
LTYPE
70
4
0
LTYPE
2
BYBLOCK
70
0
3

72
65
73
0
40
0
0
LTYPE
2
BYLAYER
70
0
3

72
65
73
0
40
0
0
LTYPE
2
CONTINUOUS
70
0
3
Solid line
72
65
73
0
40
0
0
LTYPE
2
DOT
70
0
3
Dot . . . . . . . . . . . . . . . . . . . . . .
72
65
73
2
40
6.35
49
0
49
-6.35
0
LTYPE
2
DOT2
70
0
3
Dot (.5x) .....................................
72
65
73
2
40
3.175
49
0
49
-3.175
0
LTYPE
2
DOTX2
70
0
3
Dot (2x) .  .  .  .  .  .  .  .  .  .  .  .  .
72
65
73
2
40
12.7
49
0
49
-12.7
0
LTYPE
2
DASHED
70
0
3
Dot . . . . . . . . . . . . . . . . . . . . . .
72
65
73
2
40
19.05
49
12.7
49
-6.35
0
LTYPE
2
DASHED2
70
0
3
Dashed (.5x) _ _ _ _ _ _ _ _ _ _ _ _ _ _ _ _ _
72
65
73
2
40
9.525
49
6.35
49
-3.175
0
LTYPE
2
DASHEDX2
70
0
3
Dashed (2x) ____  ____  ____  ____  ____  ___
72
65
73
2
40
38.1
49
25.4
49
-12.7
0
LTYPE
2
DASHDOT
70
0
3
Dash dot __ . __ . __ . __ . __ . __ . __ . __
72
65
73
4
40
25.4
49
12.7
49
-6.35
49
0
49
-6.35
0
LTYPE
2
DASHDOT2
70
0
3
Dash dot (.5x) _._._._._._._._._._._._._._._.
72
65
73
4
40
12.7
49
6.35
49
-3.175
49
0
49
-3.175
0
LTYPE
2
DASHDOTX2
70
0
3
Dash dot (2x) ____  .  ____  .  ____  .  ___
72
65
73
4
40
50.8
49
25.4
49
-12.7
49
0
49
-12.7
0
LTYPE
2
DIVIDE
70
0
3
Divide ____ . . ____ . . ____ . . ____ . . ____
72
65
73
6
40
31.75
49
12.7
49
-6.35
49
0
49
-6.35
49
0
49
-6.35
0
LTYPE
2
DIVIDE2
70
0
3
Divide (.5x) __..__..__..__..__..__..__..__.._
72
65
73
6
40
15.875
49
6.35
49
-3.175
49
0
49
-3.175
49
0
49
-3.175
0
LTYPE
2
DIVIDEX2
70
0
3
Divide (2x) ________  .  .  ________  .  .  _
72
65
73
6
40
63.5
49
25.4
49
-12.7
49
0
49
-12.7
49
0
49
-12.7
0
LTYPE
2
BORDER
70
0
3
Border __ __ . __ __ . __ __ . __ __ . __ __ .
72
65
73
6
40
44.45
49
12.7
49
-6.35
49
12.7
49
-6.35
49
0
49
-6.35
0
LTYPE
2
BORDER2
70
0
3
Border (.5x) __.__.__.__.__.__.__.__.__.__.__.
72
65
73
6
40
22.225
49
6.35
49
-3.175
49
6.35
49
-3.175
49
0
49
-3.175
0
LTYPE
2
BORDERX2
70
0
3
Border (2x) ____  ____  .  ____  ____  .  ___
72
65
73
6
40
88.9
49
25.4
49
-12.7
49
25.4
49
-12.7
49
0
49
-12.7
0
LTYPE
2
CENTER
70
0
3
Center ____ _ ____ _ ____ _ ____ _ ____ _ ____
72
65
73
4
40
50.8
49
31.75
49
-6.35
49
6.35
49
-6.35
0
LTYPE
2
CENTER2
70
0
3
Center (.5x) ___ _ ___ _ ___ _ ___ _ ___ _ ___
72
65
73
4
40
28.575
49
19.05
49
-3.175
49
3.175
49
-3.175
0
LTYPE
2
CENTERX2
70
0
3
Center (2x) ________  __  ________  __  _____
72
65
73
4
40
101.6
49
63.5
49
-12.7
49
12.7
49
-12.7
0
ENDTAB
0
TABLE
2
LAYER
70
1
0
LAYER
2
0
70
0
62
7
6
CONTINUOUS
0
LAYER
2
00_SHEET_BIRCHPLYWOOD_2440X1220X18
70
0
62
74
6
CONTINUOUS
0
LAYER
2
0_SHEET_SUPERPLYOSB_2440X1220X18
70
0
62
1
6
CONTINUOUS
0
LAYER
2
1_3MMTOOL_2MMDEEP_CENTRE
70
0
62
2
6
CONTINUOUS
0
LAYER
2
2_ROUT_7MMDEEP
70
0
62
6
6
CONTINUOUS
0
LAYER
2
3_6MMTOOL_CUTTHROUGH_INSIDE
70
0
62
4
6
CONTINUOUS
0
LAYER
2
6__CUTTHROUGH_OUTSIDE
70
0
62
5
6
CONTINUOUS
0
ENDTAB
0
TABLE
2
STYLE
70
3
0
STYLE
2
STANDARD
70
0
40
0
41
1
50
0
71
0
42
1
3
STANDARD
4

0
ENDTAB
0
TABLE
2
VIEW
70
0
0
ENDTAB
0
TABLE
2
UCS
70
0
0
ENDTAB
0
TABLE
2
APPID
70
1
0
APPID
2
ACAD
70
0
0
APPID
2
LIBRECAD
70
0
0
ENDTAB
0
TABLE
2
DIMSTYLE
70
1
0
DIMSTYLE
2
STANDARD
70
0
3

4

5

6

7

40
1
41
0.18
42
0.0625
43
0.38
44
0.18
45
0
46
0
47
0
48
0
140
0.18
141
0.09
142
0
143
25.4
144
1
145
0
146
1
147
0.09
71
0
72
0
73
0
74
1
75
0
76
0
77
0
78
0
170
0
171
2
172
0
173
0
174
0
175
0
176
0
177
0
178
0
0
ENDTAB
0
ENDSEC
0
SECTION
2
BLOCKS
0
BLOCK
8
0
2
$MODEL_SPACE
70
0
10
0
20
0
30
0
3
$MODEL_SPACE
1

0
ENDBLK
8
0
0
BLOCK
8
0
2
$PAPER_SPACE
70
0
10
0
20
0
30
0
3
$PAPER_SPACE
1

0
ENDBLK
8
0
0
ENDSEC
0
SECTION
2
ENTITIES
0
POLYLINE
5
31
8
3_6MMTOOL_CUTTHROUGH_INSIDE
6
BYLAYER
62
256
66
1
10
0
20
0
30
0
70
1
0
VERTEX
5
32
8
3_6MMTOOL_CUTTHROUGH_INSIDE
6
BYLAYER
62
256
10
39102.7939196
20
28438.4912742
30
0
0
VERTEX
5
33
8
3_6MMTOOL_CUTTHROUGH_INSIDE
6
BYLAYER
62
256
10
39076.7939196
20
28438.4912742
30
0
0
VERTEX
5
34
8
3_6MMTOOL_CUTTHROUGH_INSIDE
6
BYLAYER
62
256
10
39076.7939196
20
28456.4912742
30
0
0
VERTEX
5
35
8
3_6MMTOOL_CUTTHROUGH_INSIDE
6
BYLAYER
62
256
10
39102.7939196
20
28456.4912742
30
0
0
SEQEND
5
36
8
3_6MMTOOL_CUTTHROUGH_INSIDE
6
BYLAYER
62
256
0
POLYLINE
5
37
8
3_6MMTOOL_CUTTHROUGH_INSIDE
6
BYLAYER
62
256
66
1
10
0
20
0
30
0
70
1
0
VERTEX
5
38
8
3_6MMTOOL_CUTTHROUGH_INSIDE
6
BYLAYER
62
256
10
39102.7939196
20
28242.4912742
30
0
0
VERTEX
5
39
8
3_6MMTOOL_CUTTHROUGH_INSIDE
6
BYLAYER
62
256
10
39076.7939196
20
28242.4912742
30
0
0
VERTEX
5
3A
8
3_6MMTOOL_CUTTHROUGH_INSIDE
6
BYLAYER
62
256
10
39076.7939196
20
28260.4912742
30
0
0
VERTEX
5
3B
8
3_6MMTOOL_CUTTHROUGH_INSIDE
6
BYLAYER
62
256
10
39102.7939196
20
28260.4912742
30
0
0
SEQEND
5
3C
8
3_6MMTOOL_CUTTHROUGH_INSIDE
6
BYLAYER
62
256
0
POLYLINE
5
3D
8
3_6MMTOOL_CUTTHROUGH_INSIDE
6
BYLAYER
62
256
66
1
10
0
20
0
30
0
70
1
0
VERTEX
5
3E
8
3_6MMTOOL_CUTTHROUGH_INSIDE
6
BYLAYER
62
256
10
39352.7939196
20
28438.4912742
30
0
0
VERTEX
5
3F
8
3_6MMTOOL_CUTTHROUGH_INSIDE
6
BYLAYER
62
256
10
39326.7939196
20
28438.4912742
30
0
0
VERTEX
5
40
8
3_6MMTOOL_CUTTHROUGH_INSIDE
6
BYLAYER
62
256
10
39326.7939196
20
28456.4912742
30
0
0
VERTEX
5
41
8
3_6MMTOOL_CUTTHROUGH_INSIDE
6
BYLAYER
62
256
10
39352.7939196
20
28456.4912742
30
0
0
SEQEND
5
42
8
3_6MMTOOL_CUTTHROUGH_INSIDE
6
BYLAYER
62
256
0
POLYLINE
5
43
8
3_6MMTOOL_CUTTHROUGH_INSIDE
6
BYLAYER
62
256
66
1
10
0
20
0
30
0
70
1
0
VERTEX
5
44
8
3_6MMTOOL_CUTTHROUGH_INSIDE
6
BYLAYER
62
256
10
39602.7939196
20
28438.4912742
30
0
0
VERTEX
5
45
8
3_6MMTOOL_CUTTHROUGH_INSIDE
6
BYLAYER
62
256
10
39576.7939196
20
28438.4912742
30
0
0
VERTEX
5
46
8
3_6MMTOOL_CUTTHROUGH_INSIDE
6
BYLAYER
62
256
10
39576.7939196
20
28456.4912742
30
0
0
VERTEX
5
47
8
3_6MMTOOL_CUTTHROUGH_INSIDE
6
BYLAYER
62
256
10
39602.7939196
20
28456.4912742
30
0
0
SEQEND
5
48
8
3_6MMTOOL_CUTTHROUGH_INSIDE
6
BYLAYER
62
256
0
POLYLINE
5
49
8
3_6MMTOOL_CUTTHROUGH_INSIDE
6
BYLAYER
62
256
66
1
10
0
20
0
30
0
70
1
0
VERTEX
5
4A
8
3_6MMTOOL_CUTTHROUGH_INSIDE
6
BYLAYER
62
256
10
39352.7939196
20
28242.4912742
30
0
0
VERTEX
5
4B
8
3_6MMTOOL_CUTTHROUGH_INSIDE
6
BYLAYER
62
256
10
39326.7939196
20
28242.4912742
30
0
0
VERTEX
5
4C
8
3_6MMTOOL_CUTTHROUGH_INSIDE
6
BYLAYER
62
256
10
39326.7939196
20
28260.4912742
30
0
0
VERTEX
5
4D
8
3_6MMTOOL_CUTTHROUGH_INSIDE
6
BYLAYER
62
256
10
39352.7939196
20
28260.4912742
30
0
0
SEQEND
5
4E
8
3_6MMTOOL_CUTTHROUGH_INSIDE
6
BYLAYER
62
256
0
POLYLINE
5
4F
8
6__CUTTHROUGH_OUTSIDE
6
BYLAYER
62
256
66
1
10
0
20
0
30
0
70
1
0
VERTEX
5
50
8
6__CUTTHROUGH_OUTSIDE
6
BYLAYER
62
256
10
39167.2721822
20
27876.0809363
30
0
0
VERTEX
5
51
8
6__CUTTHROUGH_OUTSIDE
6
BYLAYER
62
256
10
39073.2721822
20
27876.0809362
30
0
0
VERTEX
5
52
8
6__CUTTHROUGH_OUTSIDE
6
BYLAYER
62
256
10
39073.2721822
20
27926.080936
30
0
0
VERTEX
5
53
8
6__CUTTHROUGH_OUTSIDE
6
BYLAYER
62
256
10
39091.2721822
20
27926.080936
30
0
0
VERTEX
5
54
8
6__CUTTHROUGH_OUTSIDE
6
BYLAYER
62
256
10
39091.2721822
20
27920.7476029
30
0
0
VERTEX
5
55
8
6__CUTTHROUGH_OUTSIDE
6
BYLAYER
62
256
10
39086.2721822
20
27920.7476029
30
0
0
VERTEX
5
56
8
6__CUTTHROUGH_OUTSIDE
6
BYLAYER
62
256
10
39086.2721822
20
27909.5299055
30
0
0
VERTEX
5
57
8
6__CUTTHROUGH_OUTSIDE
6
BYLAYER
62
256
10
39167.2721822
20
27902.8632389
30
0
0
SEQEND
5
58
8
6__CUTTHROUGH_OUTSIDE
6
BYLAYER
62
256
0
POLYLINE
5
59
8
6__CUTTHROUGH_OUTSIDE
6
BYLAYER
62
256
66
1
10
0
20
0
30
0
70
1
0
VERTEX
5
5A
8
6__CUTTHROUGH_OUTSIDE
6
BYLAYER
62
256
10
39167.2721822
20
27794.0809363
30
0
0
VERTEX
5
5B
8
6__CUTTHROUGH_OUTSIDE
6
BYLAYER
62
256
10
39073.2721822
20
27794.0809362
30
0
0
VERTEX
5
5C
8
6__CUTTHROUGH_OUTSIDE
6
BYLAYER
62
256
10
39073.2721822
20
27844.080936
30
0
0
VERTEX
5
5D
8
6__CUTTHROUGH_OUTSIDE
6
BYLAYER
62
256
10
39091.2721822
20
27844.080936
30
0
0
VERTEX
5
5E
8
6__CUTTHROUGH_OUTSIDE
6
BYLAYER
62
256
10
39091.2721822
20
27838.7476029
30
0
0
VERTEX
5
5F
8
6__CUTTHROUGH_OUTSIDE
6
BYLAYER
62
256
10
39086.2721822
20
27838.7476029
30
0
0
VERTEX
5
60
8
6__CUTTHROUGH_OUTSIDE
6
BYLAYER
62
256
10
39086.2721822
20
27827.5299055
30
0
0
VERTEX
5
61
8
6__CUTTHROUGH_OUTSIDE
6
BYLAYER
62
256
10
39167.2721822
20
27820.8632389
30
0
0
SEQEND
5
62
8
6__CUTTHROUGH_OUTSIDE
6
BYLAYER
62
256
0
POLYLINE
5
63
8
6__CUTTHROUGH_OUTSIDE
6
BYLAYER
62
256
66
1
10
0
20
0
30
0
70
1
0
VERTEX
5
64
8
6__CUTTHROUGH_OUTSIDE
6
BYLAYER
62
256
10
39167.2721822
20
27713.2809363
30
0
0
VERTEX
5
65
8
6__CUTTHROUGH_OUTSIDE
6
BYLAYER
62
256
10
39073.2721822
20
27713.2809362
30
0
0
VERTEX
5
66
8
6__CUTTHROUGH_OUTSIDE
6
BYLAYER
62
256
10
39073.2721822
20
27763.280936
30
0
0
VERTEX
5
67
8
6__CUTTHROUGH_OUTSIDE
6
BYLAYER
62
256
10
39091.2721822
20
27763.280936
30
0
0
VERTEX
5
68
8
6__CUTTHROUGH_OUTSIDE
6
BYLAYER
62
256
10
39091.2721822
20
27757.9476029
30
0
0
VERTEX
5
69
8
6__CUTTHROUGH_OUTSIDE
6
BYLAYER
62
256
10
39086.2721822
20
27757.9476029
30
0
0
VERTEX
5
6A
8
6__CUTTHROUGH_OUTSIDE
6
BYLAYER
62
256
10
39086.2721822
20
27746.7299055
30
0
0
VERTEX
5
6B
8
6__CUTTHROUGH_OUTSIDE
6
BYLAYER
62
256
10
39167.2721822
20
27740.0632389
30
0
0
SEQEND
5
6C
8
6__CUTTHROUGH_OUTSIDE
6
BYLAYER
62
256
0
POLYLINE
5
6D
8
3_6MMTOOL_CUTTHROUGH_INSIDE
6
BYLAYER
62
256
66
1
10
0
20
0
30
0
70
1
0
VERTEX
5
6E
8
3_6MMTOOL_CUTTHROUGH_INSIDE
6
BYLAYER
62
256
10
39602.7939196
20
28242.4912742
30
0
0
VERTEX
5
6F
8
3_6MMTOOL_CUTTHROUGH_INSIDE
6
BYLAYER
62
256
10
39576.7939196
20
28242.4912742
30
0
0
VERTEX
5
70
8
3_6MMTOOL_CUTTHROUGH_INSIDE
6
BYLAYER
62
256
10
39576.7939196
20
28260.4912742
30
0
0
VERTEX
5
71
8
3_6MMTOOL_CUTTHROUGH_INSIDE
6
BYLAYER
62
256
10
39602.7939196
20
28260.4912742
30
0
0
SEQEND
5
72
8
3_6MMTOOL_CUTTHROUGH_INSIDE
6
BYLAYER
62
256
0
POLYLINE
5
73
8
6__CUTTHROUGH_OUTSIDE
6
BYLAYER
62
256
66
1
10
0
20
0
30
0
70
1
0
VERTEX
5
74
8
6__CUTTHROUGH_OUTSIDE
6
BYLAYER
62
256
10
39167.2721822
20
27630.7809363
30
0
0
VERTEX
5
75
8
6__CUTTHROUGH_OUTSIDE
6
BYLAYER
62
256
10
39073.2721822
20
27630.7809362
30
0
0
VERTEX
5
76
8
6__CUTTHROUGH_OUTSIDE
6
BYLAYER
62
256
10
39073.2721822
20
27680.780936
30
0
0
VERTEX
5
77
8
6__CUTTHROUGH_OUTSIDE
6
BYLAYER
62
256
10
39091.2721822
20
27680.780936
30
0
0
VERTEX
5
78
8
6__CUTTHROUGH_OUTSIDE
6
BYLAYER
62
256
10
39091.2721822
20
27675.4476029
30
0
0
VERTEX
5
79
8
6__CUTTHROUGH_OUTSIDE
6
BYLAYER
62
256
10
39086.2721822
20
27675.4476029
30
0
0
VERTEX
5
7A
8
6__CUTTHROUGH_OUTSIDE
6
BYLAYER
62
256
10
39086.2721822
20
27664.2299055
30
0
0
VERTEX
5
7B
8
6__CUTTHROUGH_OUTSIDE
6
BYLAYER
62
256
10
39167.2721822
20
27657.5632389
30
0
0
SEQEND
5
7C
8
6__CUTTHROUGH_OUTSIDE
6
BYLAYER
62
256
0
POLYLINE
5
7D
8
3_6MMTOOL_CUTTHROUGH_INSIDE
6
BYLAYER
62
256
66
1
10
0
20
0
30
0
70
1
0
VERTEX
5
7E
8
3_6MMTOOL_CUTTHROUGH_INSIDE
6
BYLAYER
62
256
10
39312.6792138
20
27895.6912783
30
0
0
VERTEX
5
7F
8
3_6MMTOOL_CUTTHROUGH_INSIDE
6
BYLAYER
62
256
10
39286.6792138
20
27895.6912783
30
0
0
VERTEX
5
80
8
3_6MMTOOL_CUTTHROUGH_INSIDE
6
BYLAYER
62
256
10
39286.6792138
20
27913.6912783
30
0
0
VERTEX
5
81
8
3_6MMTOOL_CUTTHROUGH_INSIDE
6
BYLAYER
62
256
10
39312.6792138
20
27913.6912783
30
0
0
SEQEND
5
82
8
3_6MMTOOL_CUTTHROUGH_INSIDE
6
BYLAYER
62
256
0
POLYLINE
5
83
8
3_6MMTOOL_CUTTHROUGH_INSIDE
6
BYLAYER
62
256
66
1
10
0
20
0
30
0
70
1
0
VERTEX
5
84
8
3_6MMTOOL_CUTTHROUGH_INSIDE
6
BYLAYER
62
256
10
39312.6792138
20
27699.6912783
30
0
0
VERTEX
5
85
8
3_6MMTOOL_CUTTHROUGH_INSIDE
6
BYLAYER
62
256
10
39286.6792138
20
27699.6912783
30
0
0
VERTEX
5
86
8
3_6MMTOOL_CUTTHROUGH_INSIDE
6
BYLAYER
62
256
10
39286.6792138
20
27717.6912783
30
0
0
VERTEX
5
87
8
3_6MMTOOL_CUTTHROUGH_INSIDE
6
BYLAYER
62
256
10
39312.6792138
20
27717.6912783
30
0
0
SEQEND
5
88
8
3_6MMTOOL_CUTTHROUGH_INSIDE
6
BYLAYER
62
256
0
POLYLINE
5
89
8
3_6MMTOOL_CUTTHROUGH_INSIDE
6
BYLAYER
62
256
66
1
10
0
20
0
30
0
70
1
0
VERTEX
5
8A
8
3_6MMTOOL_CUTTHROUGH_INSIDE
6
BYLAYER
62
256
10
39562.6792138
20
27895.6912783
30
0
0
VERTEX
5
8B
8
3_6MMTOOL_CUTTHROUGH_INSIDE
6
BYLAYER
62
256
10
39536.6792138
20
27895.6912783
30
0
0
VERTEX
5
8C
8
3_6MMTOOL_CUTTHROUGH_INSIDE
6
BYLAYER
62
256
10
39536.6792138
20
27913.6912783
30
0
0
VERTEX
5
8D
8
3_6MMTOOL_CUTTHROUGH_INSIDE
6
BYLAYER
62
256
10
39562.6792138
20
27913.6912783
30
0
0
SEQEND
5
8E
8
3_6MMTOOL_CUTTHROUGH_INSIDE
6
BYLAYER
62
256
0
POLYLINE
5
8F
8
3_6MMTOOL_CUTTHROUGH_INSIDE
6
BYLAYER
62
256
66
1
10
0
20
0
30
0
70
1
0
VERTEX
5
90
8
3_6MMTOOL_CUTTHROUGH_INSIDE
6
BYLAYER
62
256
10
39562.6792138
20
27699.6912783
30
0
0
VERTEX
5
91
8
3_6MMTOOL_CUTTHROUGH_INSIDE
6
BYLAYER
62
256
10
39536.6792138
20
27699.6912783
30
0
0
VERTEX
5
92
8
3_6MMTOOL_CUTTHROUGH_INSIDE
6
BYLAYER
62
256
10
39536.6792138
20
27717.6912783
30
0
0
VERTEX
5
93
8
3_6MMTOOL_CUTTHROUGH_INSIDE
6
BYLAYER
62
256
10
39562.6792138
20
27717.6912783
30
0
0
SEQEND
5
94
8
3_6MMTOOL_CUTTHROUGH_INSIDE
6
BYLAYER
62
256
0
POLYLINE
5
95
8
3_6MMTOOL_CUTTHROUGH_INSIDE
6
BYLAYER
62
256
66
1
10
0
20
0
30
0
70
1
0
VERTEX
5
96
8
3_6MMTOOL_CUTTHROUGH_INSIDE
6
BYLAYER
62
256
10
39812.6792138
20
27895.6912783
30
0
0
VERTEX
5
97
8
3_6MMTOOL_CUTTHROUGH_INSIDE
6
BYLAYER
62
256
10
39786.6792138
20
27895.6912783
30
0
0
VERTEX
5
98
8
3_6MMTOOL_CUTTHROUGH_INSIDE
6
BYLAYER
62
256
10
39786.6792138
20
27913.6912783
30
0
0
VERTEX
5
99
8
3_6MMTOOL_CUTTHROUGH_INSIDE
6
BYLAYER
62
256
10
39812.6792138
20
27913.6912783
30
0
0
SEQEND
5
9A
8
3_6MMTOOL_CUTTHROUGH_INSIDE
6
BYLAYER
62
256
0
POLYLINE
5
9B
8
3_6MMTOOL_CUTTHROUGH_INSIDE
6
BYLAYER
62
256
66
1
10
0
20
0
30
0
70
1
0
VERTEX
5
9C
8
3_6MMTOOL_CUTTHROUGH_INSIDE
6
BYLAYER
62
256
10
39812.6792138
20
27699.6912783
30
0
0
VERTEX
5
9D
8
3_6MMTOOL_CUTTHROUGH_INSIDE
6
BYLAYER
62
256
10
39786.6792138
20
27699.6912783
30
0
0
VERTEX
5
9E
8
3_6MMTOOL_CUTTHROUGH_INSIDE
6
BYLAYER
62
256
10
39786.6792138
20
27717.6912783
30
0
0
VERTEX
5
9F
8
3_6MMTOOL_CUTTHROUGH_INSIDE
6
BYLAYER
62
256
10
39812.6792138
20
27717.6912783
30
0
0
SEQEND
5
A0
8
3_6MMTOOL_CUTTHROUGH_INSIDE
6
BYLAYER
62
256
0
POLYLINE
5
A1
8
6__CUTTHROUGH_OUTSIDE
6
BYLAYER
62
256
66
1
10
0
20
0
30
0
70
1
0
VERTEX
5
A2
8
6__CUTTHROUGH_OUTSIDE
6
BYLAYER
62
256
10
39828.5491145
20
27388.2165149
30
0
0
VERTEX
5
A3
8
6__CUTTHROUGH_OUTSIDE
6
BYLAYER
62
256
10
39825.4115612
20
27353.2405116
30
0
0
VERTEX
5
A4
8
6__CUTTHROUGH_OUTSIDE
6
BYLAYER
62
256
10
39780.2266673
20
27353.2405116
30
0
0
VERTEX
5
A5
8
6__CUTTHROUGH_OUTSIDE
6
BYLAYER
62
256
10
39777.0891145
20
27388.2165149
30
0
0
SEQEND
5
A6
8
6__CUTTHROUGH_OUTSIDE
6
BYLAYER
62
256
0
POLYLINE
5
A7
8
6__CUTTHROUGH_OUTSIDE
6
BYLAYER
62
256
66
1
10
0
20
0
30
0
70
1
0
VERTEX
5
A8
8
6__CUTTHROUGH_OUTSIDE
6
BYLAYER
62
256
10
39828.5491145
20
27448.2165149
30
0
0
VERTEX
5
A9
8
6__CUTTHROUGH_OUTSIDE
6
BYLAYER
62
256
10
39825.4115612
20
27413.2405116
30
0
0
VERTEX
5
AA
8
6__CUTTHROUGH_OUTSIDE
6
BYLAYER
62
256
10
39780.2266673
20
27413.2405116
30
0
0
VERTEX
5
AB
8
6__CUTTHROUGH_OUTSIDE
6
BYLAYER
62
256
10
39777.0891145
20
27448.2165149
30
0
0
SEQEND
5
AC
8
6__CUTTHROUGH_OUTSIDE
6
BYLAYER
62
256
0
POLYLINE
5
AD
8
6__CUTTHROUGH_OUTSIDE
6
BYLAYER
62
256
66
1
10
0
20
0
30
0
70
1
0
VERTEX
5
AE
8
6__CUTTHROUGH_OUTSIDE
6
BYLAYER
62
256
10
39828.9491145
20
27503.4165149
30
0
0
VERTEX
5
AF
8
6__CUTTHROUGH_OUTSIDE
6
BYLAYER
62
256
10
39825.8115612
20
27468.4405116
30
0
0
VERTEX
5
B0
8
6__CUTTHROUGH_OUTSIDE
6
BYLAYER
62
256
10
39780.6266673
20
27468.4405116
30
0
0
VERTEX
5
B1
8
6__CUTTHROUGH_OUTSIDE
6
BYLAYER
62
256
10
39777.4891145
20
27503.4165149
30
0
0
SEQEND
5
B2
8
6__CUTTHROUGH_OUTSIDE
6
BYLAYER
62
256
0
POLYLINE
5
B3
8
6__CUTTHROUGH_OUTSIDE
6
BYLAYER
62
256
66
1
10
0
20
0
30
0
70
1
0
VERTEX
5
B4
8
6__CUTTHROUGH_OUTSIDE
6
BYLAYER
62
256
10
39903.5491145
20
27388.2165149
30
0
0
VERTEX
5
B5
8
6__CUTTHROUGH_OUTSIDE
6
BYLAYER
62
256
10
39900.4115612
20
27353.2405116
30
0
0
VERTEX
5
B6
8
6__CUTTHROUGH_OUTSIDE
6
BYLAYER
62
256
10
39855.2266673
20
27353.2405116
30
0
0
VERTEX
5
B7
8
6__CUTTHROUGH_OUTSIDE
6
BYLAYER
62
256
10
39852.0891145
20
27388.2165149
30
0
0
SEQEND
5
B8
8
6__CUTTHROUGH_OUTSIDE
6
BYLAYER
62
256
0
POLYLINE
5
B9
8
6__CUTTHROUGH_OUTSIDE
6
BYLAYER
62
256
66
1
10
0
20
0
30
0
70
1
0
VERTEX
5
BA
8
6__CUTTHROUGH_OUTSIDE
6
BYLAYER
62
256
10
39902.3491145
20
27448.2165149
30
0
0
VERTEX
5
BB
8
6__CUTTHROUGH_OUTSIDE
6
BYLAYER
62
256
10
39899.2115612
20
27413.2405116
30
0
0
VERTEX
5
BC
8
6__CUTTHROUGH_OUTSIDE
6
BYLAYER
62
256
10
39854.0266673
20
27413.2405116
30
0
0
VERTEX
5
BD
8
6__CUTTHROUGH_OUTSIDE
6
BYLAYER
62
256
10
39850.8891145
20
27448.2165149
30
0
0
SEQEND
5
BE
8
6__CUTTHROUGH_OUTSIDE
6
BYLAYER
62
256
0
POLYLINE
5
BF
8
6__CUTTHROUGH_OUTSIDE
6
BYLAYER
62
256
66
1
10
0
20
0
30
0
70
1
0
VERTEX
5
C0
8
6__CUTTHROUGH_OUTSIDE
6
BYLAYER
62
256
10
39899.2115612
20
27468.4405116
30
0
0
VERTEX
5
C1
8
6__CUTTHROUGH_OUTSIDE
6
BYLAYER
62
256
10
39854.0266673
20
27468.4405116
30
0
0
VERTEX
5
C2
8
6__CUTTHROUGH_OUTSIDE
6
BYLAYER
62
256
10
39850.8891145
20
27503.4165149
30
0
0
VERTEX
5
C3
8
6__CUTTHROUGH_OUTSIDE
6
BYLAYER
62
256
10
39902.3491145
20
27503.4165149
30
0
0
SEQEND
5
C4
8
6__CUTTHROUGH_OUTSIDE
6
BYLAYER
62
256
0
POLYLINE
5
C5
8
3_6MMTOOL_CUTTHROUGH_INSIDE
6
BYLAYER
62
256
66
1
10
0
20
0
30
0
70
0
0
VERTEX
5
C6
8
3_6MMTOOL_CUTTHROUGH_INSIDE
6
BYLAYER
62
256
10
39996.4008922
20
28257.1770471
30
0
0
VERTEX
5
C7
8
3_6MMTOOL_CUTTHROUGH_INSIDE
6
BYLAYER
62
256
10
39893.1656543
20
28257.1770471
30
0
0
SEQEND
5
C8
8
3_6MMTOOL_CUTTHROUGH_INSIDE
6
BYLAYER
62
256
0
ARC
5
C9
8
3_6MMTOOL_CUTTHROUGH_INSIDE
6
BYLAYER
62
256
10
39893.1656543
20
28269.6770471
40
12.5
50
90
51
270
0
ARC
5
CA
8
3_6MMTOOL_CUTTHROUGH_INSIDE
6
BYLAYER
62
256
10
39996.4008922
20
28269.6770471
40
12.5
50
270
51
90
0
POLYLINE
5
CB
8
3_6MMTOOL_CUTTHROUGH_INSIDE
6
BYLAYER
62
256
66
1
10
0
20
0
30
0
70
0
0
VERTEX
5
CC
8
3_6MMTOOL_CUTTHROUGH_INSIDE
6
BYLAYER
62
256
10
39893.1656543
20
28282.1770471
30
0
0
VERTEX
5
CD
8
3_6MMTOOL_CUTTHROUGH_INSIDE
6
BYLAYER
62
256
10
39996.4008922
20
28282.1770471
30
0
0
SEQEND
5
CE
8
3_6MMTOOL_CUTTHROUGH_INSIDE
6
BYLAYER
62
256
0
TEXT
5
CF
8
1_3MMTOOL_2MMDEEP_CENTRE
6
BYLAYER
62
256
10
39075.7542029
20
28366.9999864
30
0
40
40
1
{\W5.00197; }a/F1
50
0
41
1
51
0
7
STANDARD
71
0
11
39075.7542029
21
28366.9999864
31
0
210
0
220
0
230
1
73
3
0
TEXT
5
D0
8
1_3MMTOOL_2MMDEEP_CENTRE
6
BYLAYER
62
256
10
39814.2457971
20
27783.0000136
30
0
40
40
1
{\W5.00197; }A/F1
50
180
41
1
51
0
7
STANDARD
71
0
11
39814.2457971
21
27783.0000136
31
0
210
0
220
0
230
1
73
3
0
TEXT
5
D1
8
1_3MMTOOL_2MMDEEP_CENTRE
6
BYLAYER
62
256
10
39224.9999864
20
27678.2457971
30
0
40
40
1
{\W3.33531; }STEP UP
50
-90
41
1
51
0
7
STANDARD
71
0
11
39224.9999864
21
27678.2457971
31
0
210
0
220
0
230
1
73
3
0
TEXT
5
D2
8
1_3MMTOOL_2MMDEEP_CENTRE
6
BYLAYER
62
256
10
39830.7457971
20
27483.0000136
30
0
40
40
1
{\W3.33531; }STEP UP
50
180
41
1
51
0
7
STANDARD
71
0
11
39830.7457971
21
27483.0000136
31
0
210
0
220
0
230
1
73
3
0
POLYLINE
5
D3
8
6__CUTTHROUGH_OUTSIDE
6
BYLAYER
62
256
66
1
10
0
20
0
30
0
70
1
0
VERTEX
5
D4
8
6__CUTTHROUGH_OUTSIDE
6
BYLAYER
62
256
10
39614.5439197
20
27966.9412783
30
0
0
VERTEX
5
D5
8
6__CUTTHROUGH_OUTSIDE
6
BYLAYER
62
256
10
39555.0439197
20
27966.9412783
30
0
0
VERTEX
5
D6
8
6__CUTTHROUGH_OUTSIDE
6
BYLAYER
62
256
10
39555.0439196
20
28056.4412783
30
0
0
VERTEX
5
D7
8
6__CUTTHROUGH_OUTSIDE
6
BYLAYER
62
256
10
39560.0439196
20
28056.4412783
30
0
0
VERTEX
5
D8
8
6__CUTTHROUGH_OUTSIDE
6
BYLAYER
62
256
10
39560.0439196
20
28066.9412783
30
0
0
VERTEX
5
D9
8
6__CUTTHROUGH_OUTSIDE
6
BYLAYER
62
256
10
39531.5439196
20
28066.9412783
30
0
0
VERTEX
5
DA
8
6__CUTTHROUGH_OUTSIDE
6
BYLAYER
62
256
10
39531.5439196
20
28056.4412783
30
0
0
VERTEX
5
DB
8
6__CUTTHROUGH_OUTSIDE
6
BYLAYER
62
256
10
39536.5439196
20
28056.4412783
30
0
0
VERTEX
5
DC
8
6__CUTTHROUGH_OUTSIDE
6
BYLAYER
62
256
10
39536.5439197
20
27966.9412783
30
0
0
VERTEX
5
DD
8
6__CUTTHROUGH_OUTSIDE
6
BYLAYER
62
256
10
39494.9715139
20
27966.9412783
30
0
0
VERTEX
5
DE
8
6__CUTTHROUGH_OUTSIDE
6
BYLAYER
62
256
10
39405.0862198
20
28224.7412742
30
0
0
VERTEX
5
DF
8
6__CUTTHROUGH_OUTSIDE
6
BYLAYER
62
256
10
39274.5016195
20
28224.7412742
30
0
0
VERTEX
5
E0
8
6__CUTTHROUGH_OUTSIDE
6
BYLAYER
62
256
10
39184.6163254
20
27966.9412783
30
0
0
VERTEX
5
E1
8
6__CUTTHROUGH_OUTSIDE
6
BYLAYER
62
256
10
39143.0439197
20
27966.9412783
30
0
0
VERTEX
5
E2
8
6__CUTTHROUGH_OUTSIDE
6
BYLAYER
62
256
10
39143.0439197
20
28056.4412783
30
0
0
VERTEX
5
E3
8
6__CUTTHROUGH_OUTSIDE
6
BYLAYER
62
256
10
39148.0439197
20
28056.4412783
30
0
0
VERTEX
5
E4
8
6__CUTTHROUGH_OUTSIDE
6
BYLAYER
62
256
10
39148.0439197
20
28066.9412783
30
0
0
VERTEX
5
E5
8
6__CUTTHROUGH_OUTSIDE
6
BYLAYER
62
256
10
39119.5439197
20
28066.9412783
30
0
0
VERTEX
5
E6
8
6__CUTTHROUGH_OUTSIDE
6
BYLAYER
62
256
10
39119.5439197
20
28056.4412783
30
0
0
VERTEX
5
E7
8
6__CUTTHROUGH_OUTSIDE
6
BYLAYER
62
256
10
39124.5439197
20
28056.4412783
30
0
0
VERTEX
5
E8
8
6__CUTTHROUGH_OUTSIDE
6
BYLAYER
62
256
10
39124.5439197
20
27966.9412783
30
0
0
VERTEX
5
E9
8
6__CUTTHROUGH_OUTSIDE
6
BYLAYER
62
256
10
39065.0439197
20
27966.9412783
30
0
0
VERTEX
5
EA
8
6__CUTTHROUGH_OUTSIDE
6
BYLAYER
62
256
10
39065.0439196
20
28474.2412742
30
0
0
VERTEX
5
EB
8
6__CUTTHROUGH_OUTSIDE
6
BYLAYER
62
256
10
39114.5439196
20
28474.2412742
30
0
0
VERTEX
5
EC
8
6__CUTTHROUGH_OUTSIDE
6
BYLAYER
62
256
10
39114.5439196
20
28469.2412742
30
0
0
VERTEX
5
ED
8
6__CUTTHROUGH_OUTSIDE
6
BYLAYER
62
256
10
39125.0439196
20
28469.2412742
30
0
0
VERTEX
5
EE
8
6__CUTTHROUGH_OUTSIDE
6
BYLAYER
62
256
10
39125.0439196
20
28492.2412742
30
0
0
VERTEX
5
EF
8
6__CUTTHROUGH_OUTSIDE
6
BYLAYER
62
256
10
39206.1053422
20
28492.2412742
30
0
0
VERTEX
5
F0
8
6__CUTTHROUGH_OUTSIDE
6
BYLAYER
62
256
10
39209.6914249
20
28452.2652709
30
0
0
VERTEX
5
F1
8
6__CUTTHROUGH_OUTSIDE
6
BYLAYER
62
256
10
39252.9364144
20
28452.2652709
30
0
0
VERTEX
5
F2
8
6__CUTTHROUGH_OUTSIDE
6
BYLAYER
62
256
10
39254.9077911
20
28474.2412742
30
0
0
VERTEX
5
F3
8
6__CUTTHROUGH_OUTSIDE
6
BYLAYER
62
256
10
39424.6800481
20
28474.2412742
30
0
0
VERTEX
5
F4
8
6__CUTTHROUGH_OUTSIDE
6
BYLAYER
62
256
10
39426.6514249
20
28452.2652709
30
0
0
VERTEX
5
F5
8
6__CUTTHROUGH_OUTSIDE
6
BYLAYER
62
256
10
39469.8964144
20
28452.2652709
30
0
0
VERTEX
5
F6
8
6__CUTTHROUGH_OUTSIDE
6
BYLAYER
62
256
10
39473.482497
20
28492.2412742
30
0
0
VERTEX
5
F7
8
6__CUTTHROUGH_OUTSIDE
6
BYLAYER
62
256
10
39554.5439196
20
28492.2412742
30
0
0
VERTEX
5
F8
8
6__CUTTHROUGH_OUTSIDE
6
BYLAYER
62
256
10
39554.5439196
20
28469.2412742
30
0
0
VERTEX
5
F9
8
6__CUTTHROUGH_OUTSIDE
6
BYLAYER
62
256
10
39565.0439196
20
28469.2412742
30
0
0
VERTEX
5
FA
8
6__CUTTHROUGH_OUTSIDE
6
BYLAYER
62
256
10
39565.0439196
20
28474.2412742
30
0
0
VERTEX
5
FB
8
6__CUTTHROUGH_OUTSIDE
6
BYLAYER
62
256
10
39614.5439196
20
28474.2412742
30
0
0
SEQEND
5
FC
8
6__CUTTHROUGH_OUTSIDE
6
BYLAYER
62
256
0
POLYLINE
5
FD
8
6__CUTTHROUGH_OUTSIDE
6
BYLAYER
62
256
66
1
10
0
20
0
30
0
70
1
0
VERTEX
5
FE
8
6__CUTTHROUGH_OUTSIDE
6
BYLAYER
62
256
10
39668.4156543
20
28233.5119766
30
0
0
VERTEX
5
FF
8
6__CUTTHROUGH_OUTSIDE
6
BYLAYER
62
256
10
39668.4156543
20
28483.0119766
30
0
0
VERTEX
5
100
8
6__CUTTHROUGH_OUTSIDE
6
BYLAYER
62
256
10
40217.9156543
20
28483.0119766
30
0
0
VERTEX
5
101
8
6__CUTTHROUGH_OUTSIDE
6
BYLAYER
62
256
10
40217.9156543
20
28233.5119766
30
0
0
SEQEND
5
102
8
6__CUTTHROUGH_OUTSIDE
6
BYLAYER
62
256
0
POLYLINE
5
103
8
6__CUTTHROUGH_OUTSIDE
6
BYLAYER
62
256
66
1
10
0
20
0
30
0
70
1
0
VERTEX
5
104
8
6__CUTTHROUGH_OUTSIDE
6
BYLAYER
62
256
10
39824.4292138
20
27681.9412783
30
0
0
VERTEX
5
105
8
6__CUTTHROUGH_OUTSIDE
6
BYLAYER
62
256
10
39774.9292138
20
27681.9412783
30
0
0
VERTEX
5
106
8
6__CUTTHROUGH_OUTSIDE
6
BYLAYER
62
256
10
39774.9292138
20
27686.9412783
30
0
0
VERTEX
5
107
8
6__CUTTHROUGH_OUTSIDE
6
BYLAYER
62
256
10
39764.4292138
20
27686.9412783
30
0
0
VERTEX
5
108
8
6__CUTTHROUGH_OUTSIDE
6
BYLAYER
62
256
10
39764.4292138
20
27663.9412783
30
0
0
VERTEX
5
109
8
6__CUTTHROUGH_OUTSIDE
6
BYLAYER
62
256
10
39683.3677912
20
27663.9412783
30
0
0
VERTEX
5
10A
8
6__CUTTHROUGH_OUTSIDE
6
BYLAYER
62
256
10
39679.7817086
20
27703.9172816
30
0
0
VERTEX
5
10B
8
6__CUTTHROUGH_OUTSIDE
6
BYLAYER
62
256
10
39636.536719
20
27703.9172816
30
0
0
VERTEX
5
10C
8
6__CUTTHROUGH_OUTSIDE
6
BYLAYER
62
256
10
39634.5653423
20
27681.9412783
30
0
0
VERTEX
5
10D
8
6__CUTTHROUGH_OUTSIDE
6
BYLAYER
62
256
10
39464.7930853
20
27681.9412783
30
0
0
VERTEX
5
10E
8
6__CUTTHROUGH_OUTSIDE
6
BYLAYER
62
256
10
39462.8217086
20
27703.9172816
30
0
0
VERTEX
5
10F
8
6__CUTTHROUGH_OUTSIDE
6
BYLAYER
62
256
10
39419.576719
20
27703.9172816
30
0
0
VERTEX
5
110
8
6__CUTTHROUGH_OUTSIDE
6
BYLAYER
62
256
10
39415.9906364
20
27663.9412783
30
0
0
VERTEX
5
111
8
6__CUTTHROUGH_OUTSIDE
6
BYLAYER
62
256
10
39334.9292138
20
27663.9412783
30
0
0
VERTEX
5
112
8
6__CUTTHROUGH_OUTSIDE
6
BYLAYER
62
256
10
39334.9292138
20
27686.9412783
30
0
0
VERTEX
5
113
8
6__CUTTHROUGH_OUTSIDE
6
BYLAYER
62
256
10
39324.4292138
20
27686.9412783
30
0
0
VERTEX
5
114
8
6__CUTTHROUGH_OUTSIDE
6
BYLAYER
62
256
10
39324.4292138
20
27681.9412783
30
0
0
VERTEX
5
115
8
6__CUTTHROUGH_OUTSIDE
6
BYLAYER
62
256
10
39274.9292138
20
27681.9412783
30
0
0
VERTEX
5
116
8
6__CUTTHROUGH_OUTSIDE
6
BYLAYER
62
256
10
39274.9292138
20
28189.2412742
30
0
0
VERTEX
5
117
8
6__CUTTHROUGH_OUTSIDE
6
BYLAYER
62
256
10
39334.4292138
20
28189.2412742
30
0
0
VERTEX
5
118
8
6__CUTTHROUGH_OUTSIDE
6
BYLAYER
62
256
10
39334.4292138
20
28099.7412742
30
0
0
VERTEX
5
119
8
6__CUTTHROUGH_OUTSIDE
6
BYLAYER
62
256
10
39329.4292138
20
28099.7412742
30
0
0
VERTEX
5
11A
8
6__CUTTHROUGH_OUTSIDE
6
BYLAYER
62
256
10
39329.4292138
20
28089.2412742
30
0
0
VERTEX
5
11B
8
6__CUTTHROUGH_OUTSIDE
6
BYLAYER
62
256
10
39357.9292138
20
28089.2412742
30
0
0
VERTEX
5
11C
8
6__CUTTHROUGH_OUTSIDE
6
BYLAYER
62
256
10
39357.9292138
20
28099.7412742
30
0
0
VERTEX
5
11D
8
6__CUTTHROUGH_OUTSIDE
6
BYLAYER
62
256
10
39352.9292138
20
28099.7412742
30
0
0
VERTEX
5
11E
8
6__CUTTHROUGH_OUTSIDE
6
BYLAYER
62
256
10
39352.9292138
20
28189.2412742
30
0
0
VERTEX
5
11F
8
6__CUTTHROUGH_OUTSIDE
6
BYLAYER
62
256
10
39394.5016195
20
28189.2412742
30
0
0
VERTEX
5
120
8
6__CUTTHROUGH_OUTSIDE
6
BYLAYER
62
256
10
39484.3869136
20
27931.4412783
30
0
0
VERTEX
5
121
8
6__CUTTHROUGH_OUTSIDE
6
BYLAYER
62
256
10
39614.9715139
20
27931.4412783
30
0
0
VERTEX
5
122
8
6__CUTTHROUGH_OUTSIDE
6
BYLAYER
62
256
10
39704.856808
20
28189.2412742
30
0
0
VERTEX
5
123
8
6__CUTTHROUGH_OUTSIDE
6
BYLAYER
62
256
10
39746.4292138
20
28189.2412742
30
0
0
VERTEX
5
124
8
6__CUTTHROUGH_OUTSIDE
6
BYLAYER
62
256
10
39746.4292138
20
28099.7412742
30
0
0
VERTEX
5
125
8
6__CUTTHROUGH_OUTSIDE
6
BYLAYER
62
256
10
39741.4292138
20
28099.7412742
30
0
0
VERTEX
5
126
8
6__CUTTHROUGH_OUTSIDE
6
BYLAYER
62
256
10
39741.4292138
20
28089.2412742
30
0
0
VERTEX
5
127
8
6__CUTTHROUGH_OUTSIDE
6
BYLAYER
62
256
10
39769.9292138
20
28089.2412742
30
0
0
VERTEX
5
128
8
6__CUTTHROUGH_OUTSIDE
6
BYLAYER
62
256
10
39769.9292138
20
28099.7412742
30
0
0
VERTEX
5
129
8
6__CUTTHROUGH_OUTSIDE
6
BYLAYER
62
256
10
39764.9292138
20
28099.7412742
30
0
0
VERTEX
5
12A
8
6__CUTTHROUGH_OUTSIDE
6
BYLAYER
62
256
10
39764.9292138
20
28189.2412742
30
0
0
VERTEX
5
12B
8
6__CUTTHROUGH_OUTSIDE
6
BYLAYER
62
256
10
39824.4292138
20
28189.2412742
30
0
0
SEQEND
5
12C
8
6__CUTTHROUGH_OUTSIDE
6
BYLAYER
62
256
0
POLYLINE
5
12D
8
6__CUTTHROUGH_OUTSIDE
6
BYLAYER
62
256
66
1
10
0
20
0
30
0
70
1
0
VERTEX
5
12E
8
6__CUTTHROUGH_OUTSIDE
6
BYLAYER
62
256
10
39854.4156542
20
27662.0866618
30
0
0
VERTEX
5
12F
8
6__CUTTHROUGH_OUTSIDE
6
BYLAYER
62
256
10
39854.4156543
20
27721.5866618
30
0
0
VERTEX
5
130
8
6__CUTTHROUGH_OUTSIDE
6
BYLAYER
62
256
10
39957.9156543
20
27721.5866618
30
0
0
VERTEX
5
131
8
6__CUTTHROUGH_OUTSIDE
6
BYLAYER
62
256
10
39957.9156543
20
27716.5866618
30
0
0
VERTEX
5
132
8
6__CUTTHROUGH_OUTSIDE
6
BYLAYER
62
256
10
39968.4156543
20
27716.5866618
30
0
0
VERTEX
5
133
8
6__CUTTHROUGH_OUTSIDE
6
BYLAYER
62
256
10
39968.4156543
20
27745.0866618
30
0
0
VERTEX
5
134
8
6__CUTTHROUGH_OUTSIDE
6
BYLAYER
62
256
10
39957.9156543
20
27745.0866618
30
0
0
VERTEX
5
135
8
6__CUTTHROUGH_OUTSIDE
6
BYLAYER
62
256
10
39957.9156543
20
27740.0866618
30
0
0
VERTEX
5
136
8
6__CUTTHROUGH_OUTSIDE
6
BYLAYER
62
256
10
39854.4156543
20
27740.0866618
30
0
0
VERTEX
5
137
8
6__CUTTHROUGH_OUTSIDE
6
BYLAYER
62
256
10
39854.4156543
20
28133.5866618
30
0
0
VERTEX
5
138
8
6__CUTTHROUGH_OUTSIDE
6
BYLAYER
62
256
10
39957.9156543
20
28133.5866618
30
0
0
VERTEX
5
139
8
6__CUTTHROUGH_OUTSIDE
6
BYLAYER
62
256
10
39957.9156543
20
28128.5866618
30
0
0
VERTEX
5
13A
8
6__CUTTHROUGH_OUTSIDE
6
BYLAYER
62
256
10
39968.4156543
20
28128.5866618
30
0
0
VERTEX
5
13B
8
6__CUTTHROUGH_OUTSIDE
6
BYLAYER
62
256
10
39968.4156543
20
28157.0866618
30
0
0
VERTEX
5
13C
8
6__CUTTHROUGH_OUTSIDE
6
BYLAYER
62
256
10
39957.9156543
20
28157.0866618
30
0
0
VERTEX
5
13D
8
6__CUTTHROUGH_OUTSIDE
6
BYLAYER
62
256
10
39957.9156543
20
28152.0866618
30
0
0
VERTEX
5
13E
8
6__CUTTHROUGH_OUTSIDE
6
BYLAYER
62
256
10
39854.4156543
20
28152.0866618
30
0
0
VERTEX
5
13F
8
6__CUTTHROUGH_OUTSIDE
6
BYLAYER
62
256
10
39854.4156542
20
28211.5866618
30
0
0
VERTEX
5
140
8
6__CUTTHROUGH_OUTSIDE
6
BYLAYER
62
256
10
40217.9156543
20
28211.5866618
30
0
0
VERTEX
5
141
8
6__CUTTHROUGH_OUTSIDE
6
BYLAYER
62
256
10
40217.9156543
20
27662.0866618
30
0
0
SEQEND
5
142
8
6__CUTTHROUGH_OUTSIDE
6
BYLAYER
62
256
0
POLYLINE
5
143
8
6__CUTTHROUGH_OUTSIDE
6
BYLAYER
62
256
66
1
10
0
20
0
30
0
70
1
0
VERTEX
5
144
8
6__CUTTHROUGH_OUTSIDE
6
BYLAYER
62
256
10
39927.5171265
20
27537.9527058
30
0
0
VERTEX
5
145
8
6__CUTTHROUGH_OUTSIDE
6
BYLAYER
62
256
10
39736.5171265
20
27537.9527058
30
0
0
VERTEX
5
146
8
6__CUTTHROUGH_OUTSIDE
6
BYLAYER
62
256
10
39736.5171265
20
27527.4527058
30
0
0
VERTEX
5
147
8
6__CUTTHROUGH_OUTSIDE
6
BYLAYER
62
256
10
39741.5171265
20
27527.4527058
30
0
0
VERTEX
5
148
8
6__CUTTHROUGH_OUTSIDE
6
BYLAYER
62
256
10
39741.5171265
20
27315.1527099
30
0
0
VERTEX
5
149
8
6__CUTTHROUGH_OUTSIDE
6
BYLAYER
62
256
10
39736.5171265
20
27315.1527099
30
0
0
VERTEX
5
14A
8
6__CUTTHROUGH_OUTSIDE
6
BYLAYER
62
256
10
39736.5171265
20
27304.6527099
30
0
0
VERTEX
5
14B
8
6__CUTTHROUGH_OUTSIDE
6
BYLAYER
62
256
10
39877.5171265
20
27304.6527099
30
0
0
VERTEX
5
14C
8
6__CUTTHROUGH_OUTSIDE
6
BYLAYER
62
256
10
39877.5171265
20
27205.1527099
30
0
0
VERTEX
5
14D
8
6__CUTTHROUGH_OUTSIDE
6
BYLAYER
62
256
10
39736.5171265
20
27205.1527099
30
0
0
VERTEX
5
14E
8
6__CUTTHROUGH_OUTSIDE
6
BYLAYER
62
256
10
39736.5171265
20
27194.6527099
30
0
0
VERTEX
5
14F
8
6__CUTTHROUGH_OUTSIDE
6
BYLAYER
62
256
10
39741.5171265
20
27194.6527099
30
0
0
VERTEX
5
150
8
6__CUTTHROUGH_OUTSIDE
6
BYLAYER
62
256
10
39741.5171266
20
27112.1527201
30
0
0
VERTEX
5
151
8
6__CUTTHROUGH_OUTSIDE
6
BYLAYER
62
256
10
39711.0171266
20
27112.1527199
30
0
0
VERTEX
5
152
8
6__CUTTHROUGH_OUTSIDE
6
BYLAYER
62
256
10
39711.0171265
20
27135.1527199
30
0
0
VERTEX
5
153
8
6__CUTTHROUGH_OUTSIDE
6
BYLAYER
62
256
10
39700.5171265
20
27135.1527199
30
0
0
VERTEX
5
154
8
6__CUTTHROUGH_OUTSIDE
6
BYLAYER
62
256
10
39700.5171265
20
27130.1527199
30
0
0
VERTEX
5
155
8
6__CUTTHROUGH_OUTSIDE
6
BYLAYER
62
256
10
39628.0171265
20
27130.1527199
30
0
0
VERTEX
5
156
8
6__CUTTHROUGH_OUTSIDE
6
BYLAYER
62
256
10
39628.0171265
20
27385.1527099
30
0
0
VERTEX
5
157
8
6__CUTTHROUGH_OUTSIDE
6
BYLAYER
62
256
10
39617.5171265
20
27385.1527099
30
0
0
VERTEX
5
158
8
6__CUTTHROUGH_OUTSIDE
6
BYLAYER
62
256
10
39617.5171265
20
27380.1527099
30
0
0
VERTEX
5
159
8
6__CUTTHROUGH_OUTSIDE
6
BYLAYER
62
256
10
39548.0171265
20
27380.1527099
30
0
0
VERTEX
5
15A
8
6__CUTTHROUGH_OUTSIDE
6
BYLAYER
62
256
10
39548.0171265
20
27385.1527099
30
0
0
VERTEX
5
15B
8
6__CUTTHROUGH_OUTSIDE
6
BYLAYER
62
256
10
39537.5171265
20
27385.1527099
30
0
0
VERTEX
5
15C
8
6__CUTTHROUGH_OUTSIDE
6
BYLAYER
62
256
10
39537.5171265
20
27362.1527099
30
0
0
VERTEX
5
15D
8
6__CUTTHROUGH_OUTSIDE
6
BYLAYER
62
256
10
39458.0171265
20
27362.1527099
30
0
0
VERTEX
5
15E
8
6__CUTTHROUGH_OUTSIDE
6
BYLAYER
62
256
10
39458.0171265
20
27385.1527099
30
0
0
VERTEX
5
15F
8
6__CUTTHROUGH_OUTSIDE
6
BYLAYER
62
256
10
39447.5171265
20
27385.1527099
30
0
0
VERTEX
5
160
8
6__CUTTHROUGH_OUTSIDE
6
BYLAYER
62
256
10
39447.5171265
20
27380.1527099
30
0
0
VERTEX
5
161
8
6__CUTTHROUGH_OUTSIDE
6
BYLAYER
62
256
10
39378.0171265
20
27380.1527099
30
0
0
VERTEX
5
162
8
6__CUTTHROUGH_OUTSIDE
6
BYLAYER
62
256
10
39378.0171265
20
27637.4527058
30
0
0
VERTEX
5
163
8
6__CUTTHROUGH_OUTSIDE
6
BYLAYER
62
256
10
39927.5171265
20
27637.4527058
30
0
0
SEQEND
5
164
8
6__CUTTHROUGH_OUTSIDE
6
BYLAYER
62
256
0
POLYLINE
5
165
8
6__CUTTHROUGH_OUTSIDE
6
BYLAYER
62
256
66
1
10
0
20
0
30
0
70
1
0
VERTEX
5
166
8
6__CUTTHROUGH_OUTSIDE
6
BYLAYER
62
256
10
39572.2080571
20
27345.927498
30
0
0
VERTEX
5
167
8
6__CUTTHROUGH_OUTSIDE
6
BYLAYER
62
256
10
39572.2080571
20
27273.427498
30
0
0
VERTEX
5
168
8
6__CUTTHROUGH_OUTSIDE
6
BYLAYER
62
256
10
39567.2080571
20
27273.427498
30
0
0
VERTEX
5
169
8
6__CUTTHROUGH_OUTSIDE
6
BYLAYER
62
256
10
39567.2080571
20
27262.927498
30
0
0
VERTEX
5
16A
8
6__CUTTHROUGH_OUTSIDE
6
BYLAYER
62
256
10
39590.2080571
20
27262.9274979
30
0
0
VERTEX
5
16B
8
6__CUTTHROUGH_OUTSIDE
6
BYLAYER
62
256
10
39590.208057
20
27232.4274979
30
0
0
VERTEX
5
16C
8
6__CUTTHROUGH_OUTSIDE
6
BYLAYER
62
256
10
39507.7080671
20
27232.427498
30
0
0
VERTEX
5
16D
8
6__CUTTHROUGH_OUTSIDE
6
BYLAYER
62
256
10
39507.7080671
20
27237.427498
30
0
0
VERTEX
5
16E
8
6__CUTTHROUGH_OUTSIDE
6
BYLAYER
62
256
10
39497.2080671
20
27237.427498
30
0
0
VERTEX
5
16F
8
6__CUTTHROUGH_OUTSIDE
6
BYLAYER
62
256
10
39497.2080671
20
27096.427498
30
0
0
VERTEX
5
170
8
6__CUTTHROUGH_OUTSIDE
6
BYLAYER
62
256
10
39397.7080671
20
27096.427498
30
0
0
VERTEX
5
171
8
6__CUTTHROUGH_OUTSIDE
6
BYLAYER
62
256
10
39397.7080671
20
27237.427498
30
0
0
VERTEX
5
172
8
6__CUTTHROUGH_OUTSIDE
6
BYLAYER
62
256
10
39387.2080671
20
27237.427498
30
0
0
VERTEX
5
173
8
6__CUTTHROUGH_OUTSIDE
6
BYLAYER
62
256
10
39387.2080671
20
27232.427498
30
0
0
VERTEX
5
174
8
6__CUTTHROUGH_OUTSIDE
6
BYLAYER
62
256
10
39174.9080712
20
27232.427498
30
0
0
VERTEX
5
175
8
6__CUTTHROUGH_OUTSIDE
6
BYLAYER
62
256
10
39174.9080712
20
27237.427498
30
0
0
VERTEX
5
176
8
6__CUTTHROUGH_OUTSIDE
6
BYLAYER
62
256
10
39164.4080712
20
27237.427498
30
0
0
VERTEX
5
177
8
6__CUTTHROUGH_OUTSIDE
6
BYLAYER
62
256
10
39164.4080712
20
27046.427498
30
0
0
VERTEX
5
178
8
6__CUTTHROUGH_OUTSIDE
6
BYLAYER
62
256
10
39064.9080712
20
27046.427498
30
0
0
VERTEX
5
179
8
6__CUTTHROUGH_OUTSIDE
6
BYLAYER
62
256
10
39064.9080712
20
27595.927498
30
0
0
VERTEX
5
17A
8
6__CUTTHROUGH_OUTSIDE
6
BYLAYER
62
256
10
39322.2080672
20
27595.927498
30
0
0
VERTEX
5
17B
8
6__CUTTHROUGH_OUTSIDE
6
BYLAYER
62
256
10
39322.2080672
20
27526.427498
30
0
0
VERTEX
5
17C
8
6__CUTTHROUGH_OUTSIDE
6
BYLAYER
62
256
10
39317.2080672
20
27526.427498
30
0
0
VERTEX
5
17D
8
6__CUTTHROUGH_OUTSIDE
6
BYLAYER
62
256
10
39317.2080672
20
27515.927498
30
0
0
VERTEX
5
17E
8
6__CUTTHROUGH_OUTSIDE
6
BYLAYER
62
256
10
39340.2080672
20
27515.927498
30
0
0
VERTEX
5
17F
8
6__CUTTHROUGH_OUTSIDE
6
BYLAYER
62
256
10
39340.2080672
20
27436.427498
30
0
0
VERTEX
5
180
8
6__CUTTHROUGH_OUTSIDE
6
BYLAYER
62
256
10
39317.2080672
20
27436.427498
30
0
0
VERTEX
5
181
8
6__CUTTHROUGH_OUTSIDE
6
BYLAYER
62
256
10
39317.2080672
20
27425.927498
30
0
0
VERTEX
5
182
8
6__CUTTHROUGH_OUTSIDE
6
BYLAYER
62
256
10
39322.2080672
20
27425.927498
30
0
0
VERTEX
5
183
8
6__CUTTHROUGH_OUTSIDE
6
BYLAYER
62
256
10
39322.2080672
20
27356.427498
30
0
0
VERTEX
5
184
8
6__CUTTHROUGH_OUTSIDE
6
BYLAYER
62
256
10
39317.2080672
20
27356.427498
30
0
0
VERTEX
5
185
8
6__CUTTHROUGH_OUTSIDE
6
BYLAYER
62
256
10
39317.2080672
20
27345.927498
30
0
0
SEQEND
5
186
8
6__CUTTHROUGH_OUTSIDE
6
BYLAYER
62
256
0
POLYLINE
5
187
8
6__CUTTHROUGH_OUTSIDE
6
BYLAYER
62
256
66
1
10
0
20
0
30
0
70
1
0
VERTEX
5
188
8
6__CUTTHROUGH_OUTSIDE
6
BYLAYER
62
256
10
40037.7156543
20
27575.0601217
30
0
0
VERTEX
5
189
8
6__CUTTHROUGH_OUTSIDE
6
BYLAYER
62
256
10
40042.7156543
20
27575.0601217
30
0
0
VERTEX
5
18A
8
6__CUTTHROUGH_OUTSIDE
6
BYLAYER
62
256
10
40042.7156543
20
27585.5601217
30
0
0
VERTEX
5
18B
8
6__CUTTHROUGH_OUTSIDE
6
BYLAYER
62
256
10
40022.5692077
20
27585.5601217
30
0
0
VERTEX
5
18C
8
6__CUTTHROUGH_OUTSIDE
6
BYLAYER
62
256
10
40019.7156543
20
27588.4136751
30
0
0
VERTEX
5
18D
8
6__CUTTHROUGH_OUTSIDE
6
BYLAYER
62
256
10
40019.7156543
20
27608.2065683
30
0
0
VERTEX
5
18E
8
6__CUTTHROUGH_OUTSIDE
6
BYLAYER
62
256
10
40022.5692077
20
27611.0601217
30
0
0
VERTEX
5
18F
8
6__CUTTHROUGH_OUTSIDE
6
BYLAYER
62
256
10
40037.7156543
20
27611.0601217
30
0
0
VERTEX
5
190
8
6__CUTTHROUGH_OUTSIDE
6
BYLAYER
62
256
10
40037.7156543
20
27623.0601217
30
0
0
VERTEX
5
191
8
6__CUTTHROUGH_OUTSIDE
6
BYLAYER
62
256
10
40087.2156543
20
27623.0601217
30
0
0
VERTEX
5
192
8
6__CUTTHROUGH_OUTSIDE
6
BYLAYER
62
256
10
40087.2156543
20
27611.0601217
30
0
0
VERTEX
5
193
8
6__CUTTHROUGH_OUTSIDE
6
BYLAYER
62
256
10
40102.3621009
20
27611.0601217
30
0
0
VERTEX
5
194
8
6__CUTTHROUGH_OUTSIDE
6
BYLAYER
62
256
10
40105.2156543
20
27608.2065683
30
0
0
VERTEX
5
195
8
6__CUTTHROUGH_OUTSIDE
6
BYLAYER
62
256
10
40105.2156543
20
27588.4136751
30
0
0
VERTEX
5
196
8
6__CUTTHROUGH_OUTSIDE
6
BYLAYER
62
256
10
40102.3621009
20
27585.5601217
30
0
0
VERTEX
5
197
8
6__CUTTHROUGH_OUTSIDE
6
BYLAYER
62
256
10
40082.2156543
20
27585.5601217
30
0
0
VERTEX
5
198
8
6__CUTTHROUGH_OUTSIDE
6
BYLAYER
62
256
10
40082.2156543
20
27575.0601217
30
0
0
VERTEX
5
199
8
6__CUTTHROUGH_OUTSIDE
6
BYLAYER
62
256
10
40087.2156543
20
27575.0601217
30
0
0
VERTEX
5
19A
8
6__CUTTHROUGH_OUTSIDE
6
BYLAYER
62
256
10
40087.2156543
20
27371.5601217
30
0
0
VERTEX
5
19B
8
6__CUTTHROUGH_OUTSIDE
6
BYLAYER
62
256
10
40082.2156543
20
27371.5601217
30
0
0
VERTEX
5
19C
8
6__CUTTHROUGH_OUTSIDE
6
BYLAYER
62
256
10
40082.2156543
20
27361.0601217
30
0
0
VERTEX
5
19D
8
6__CUTTHROUGH_OUTSIDE
6
BYLAYER
62
256
10
40102.3621009
20
27361.0601217
30
0
0
VERTEX
5
19E
8
6__CUTTHROUGH_OUTSIDE
6
BYLAYER
62
256
10
40105.2156543
20
27358.2065683
30
0
0
VERTEX
5
19F
8
6__CUTTHROUGH_OUTSIDE
6
BYLAYER
62
256
10
40105.2156543
20
27338.4136751
30
0
0
VERTEX
5
1A0
8
6__CUTTHROUGH_OUTSIDE
6
BYLAYER
62
256
10
40102.3621009
20
27335.5601217
30
0
0
VERTEX
5
1A1
8
6__CUTTHROUGH_OUTSIDE
6
BYLAYER
62
256
10
40082.2156543
20
27335.5601217
30
0
0
VERTEX
5
1A2
8
6__CUTTHROUGH_OUTSIDE
6
BYLAYER
62
256
10
40082.2156543
20
27325.0601217
30
0
0
VERTEX
5
1A3
8
6__CUTTHROUGH_OUTSIDE
6
BYLAYER
62
256
10
40087.2156543
20
27325.0601217
30
0
0
VERTEX
5
1A4
8
6__CUTTHROUGH_OUTSIDE
6
BYLAYER
62
256
10
40087.2156543
20
27121.5601217
30
0
0
VERTEX
5
1A5
8
6__CUTTHROUGH_OUTSIDE
6
BYLAYER
62
256
10
40082.2156543
20
27121.5601217
30
0
0
VERTEX
5
1A6
8
6__CUTTHROUGH_OUTSIDE
6
BYLAYER
62
256
10
40082.2156543
20
27111.0601217
30
0
0
VERTEX
5
1A7
8
6__CUTTHROUGH_OUTSIDE
6
BYLAYER
62
256
10
40102.3621009
20
27111.0601217
30
0
0
VERTEX
5
1A8
8
6__CUTTHROUGH_OUTSIDE
6
BYLAYER
62
256
10
40105.2156543
20
27108.2065683
30
0
0
VERTEX
5
1A9
8
6__CUTTHROUGH_OUTSIDE
6
BYLAYER
62
256
10
40105.2156543
20
27088.4136751
30
0
0
VERTEX
5
1AA
8
6__CUTTHROUGH_OUTSIDE
6
BYLAYER
62
256
10
40102.3621009
20
27085.5601217
30
0
0
VERTEX
5
1AB
8
6__CUTTHROUGH_OUTSIDE
6
BYLAYER
62
256
10
40087.2156543
20
27085.5601217
30
0
0
VERTEX
5
1AC
8
6__CUTTHROUGH_OUTSIDE
6
BYLAYER
62
256
10
40087.2156543
20
27073.5601217
30
0
0
VERTEX
5
1AD
8
6__CUTTHROUGH_OUTSIDE
6
BYLAYER
62
256
10
40037.7156543
20
27073.5601217
30
0
0
VERTEX
5
1AE
8
6__CUTTHROUGH_OUTSIDE
6
BYLAYER
62
256
10
40037.7156543
20
27085.5601217
30
0
0
VERTEX
5
1AF
8
6__CUTTHROUGH_OUTSIDE
6
BYLAYER
62
256
10
40022.5692077
20
27085.5601217
30
0
0
VERTEX
5
1B0
8
6__CUTTHROUGH_OUTSIDE
6
BYLAYER
62
256
10
40019.7156543
20
27088.4136751
30
0
0
VERTEX
5
1B1
8
6__CUTTHROUGH_OUTSIDE
6
BYLAYER
62
256
10
40019.7156543
20
27108.2065683
30
0
0
VERTEX
5
1B2
8
6__CUTTHROUGH_OUTSIDE
6
BYLAYER
62
256
10
40022.5692077
20
27111.0601217
30
0
0
VERTEX
5
1B3
8
6__CUTTHROUGH_OUTSIDE
6
BYLAYER
62
256
10
40042.7156543
20
27111.0601217
30
0
0
VERTEX
5
1B4
8
6__CUTTHROUGH_OUTSIDE
6
BYLAYER
62
256
10
40042.7156543
20
27121.5601217
30
0
0
VERTEX
5
1B5
8
6__CUTTHROUGH_OUTSIDE
6
BYLAYER
62
256
10
40037.7156543
20
27121.5601217
30
0
0
VERTEX
5
1B6
8
6__CUTTHROUGH_OUTSIDE
6
BYLAYER
62
256
10
40037.7156543
20
27325.0601217
30
0
0
VERTEX
5
1B7
8
6__CUTTHROUGH_OUTSIDE
6
BYLAYER
62
256
10
40042.7156543
20
27325.0601217
30
0
0
VERTEX
5
1B8
8
6__CUTTHROUGH_OUTSIDE
6
BYLAYER
62
256
10
40042.7156543
20
27335.5601217
30
0
0
VERTEX
5
1B9
8
6__CUTTHROUGH_OUTSIDE
6
BYLAYER
62
256
10
40022.5692077
20
27335.5601217
30
0
0
VERTEX
5
1BA
8
6__CUTTHROUGH_OUTSIDE
6
BYLAYER
62
256
10
40019.7156543
20
27338.4136751
30
0
0
VERTEX
5
1BB
8
6__CUTTHROUGH_OUTSIDE
6
BYLAYER
62
256
10
40019.7156543
20
27358.2065683
30
0
0
VERTEX
5
1BC
8
6__CUTTHROUGH_OUTSIDE
6
BYLAYER
62
256
10
40022.5692077
20
27361.0601217
30
0
0
VERTEX
5
1BD
8
6__CUTTHROUGH_OUTSIDE
6
BYLAYER
62
256
10
40042.7156543
20
27361.0601217
30
0
0
VERTEX
5
1BE
8
6__CUTTHROUGH_OUTSIDE
6
BYLAYER
62
256
10
40042.7156543
20
27371.5601217
30
0
0
VERTEX
5
1BF
8
6__CUTTHROUGH_OUTSIDE
6
BYLAYER
62
256
10
40037.7156543
20
27371.5601217
30
0
0
SEQEND
5
1C0
8
6__CUTTHROUGH_OUTSIDE
6
BYLAYER
62
256
0
POLYLINE
5
1C1
8
6__CUTTHROUGH_OUTSIDE
6
BYLAYER
62
256
66
1
10
0
20
0
30
0
70
1
0
VERTEX
5
1C2
8
6__CUTTHROUGH_OUTSIDE
6
BYLAYER
62
256
10
40150.4156543
20
27575.0601217
30
0
0
VERTEX
5
1C3
8
6__CUTTHROUGH_OUTSIDE
6
BYLAYER
62
256
10
40155.4156543
20
27575.0601217
30
0
0
VERTEX
5
1C4
8
6__CUTTHROUGH_OUTSIDE
6
BYLAYER
62
256
10
40155.4156543
20
27585.5601217
30
0
0
VERTEX
5
1C5
8
6__CUTTHROUGH_OUTSIDE
6
BYLAYER
62
256
10
40135.2692077
20
27585.5601217
30
0
0
VERTEX
5
1C6
8
6__CUTTHROUGH_OUTSIDE
6
BYLAYER
62
256
10
40132.4156543
20
27588.4136751
30
0
0
VERTEX
5
1C7
8
6__CUTTHROUGH_OUTSIDE
6
BYLAYER
62
256
10
40132.4156543
20
27608.2065683
30
0
0
VERTEX
5
1C8
8
6__CUTTHROUGH_OUTSIDE
6
BYLAYER
62
256
10
40135.2692077
20
27611.0601217
30
0
0
VERTEX
5
1C9
8
6__CUTTHROUGH_OUTSIDE
6
BYLAYER
62
256
10
40150.4156543
20
27611.0601217
30
0
0
VERTEX
5
1CA
8
6__CUTTHROUGH_OUTSIDE
6
BYLAYER
62
256
10
40150.4156543
20
27623.0601217
30
0
0
VERTEX
5
1CB
8
6__CUTTHROUGH_OUTSIDE
6
BYLAYER
62
256
10
40199.9156543
20
27623.0601217
30
0
0
VERTEX
5
1CC
8
6__CUTTHROUGH_OUTSIDE
6
BYLAYER
62
256
10
40199.9156543
20
27611.0601217
30
0
0
VERTEX
5
1CD
8
6__CUTTHROUGH_OUTSIDE
6
BYLAYER
62
256
10
40215.0621009
20
27611.0601217
30
0
0
VERTEX
5
1CE
8
6__CUTTHROUGH_OUTSIDE
6
BYLAYER
62
256
10
40217.9156543
20
27608.2065683
30
0
0
VERTEX
5
1CF
8
6__CUTTHROUGH_OUTSIDE
6
BYLAYER
62
256
10
40217.9156543
20
27588.4136751
30
0
0
VERTEX
5
1D0
8
6__CUTTHROUGH_OUTSIDE
6
BYLAYER
62
256
10
40215.0621009
20
27585.5601217
30
0
0
VERTEX
5
1D1
8
6__CUTTHROUGH_OUTSIDE
6
BYLAYER
62
256
10
40194.9156543
20
27585.5601217
30
0
0
VERTEX
5
1D2
8
6__CUTTHROUGH_OUTSIDE
6
BYLAYER
62
256
10
40194.9156543
20
27575.0601217
30
0
0
VERTEX
5
1D3
8
6__CUTTHROUGH_OUTSIDE
6
BYLAYER
62
256
10
40199.9156543
20
27575.0601217
30
0
0
VERTEX
5
1D4
8
6__CUTTHROUGH_OUTSIDE
6
BYLAYER
62
256
10
40199.9156543
20
27371.5601217
30
0
0
VERTEX
5
1D5
8
6__CUTTHROUGH_OUTSIDE
6
BYLAYER
62
256
10
40194.9156543
20
27371.5601217
30
0
0
VERTEX
5
1D6
8
6__CUTTHROUGH_OUTSIDE
6
BYLAYER
62
256
10
40194.9156543
20
27361.0601217
30
0
0
VERTEX
5
1D7
8
6__CUTTHROUGH_OUTSIDE
6
BYLAYER
62
256
10
40215.0621009
20
27361.0601217
30
0
0
VERTEX
5
1D8
8
6__CUTTHROUGH_OUTSIDE
6
BYLAYER
62
256
10
40217.9156543
20
27358.2065683
30
0
0
VERTEX
5
1D9
8
6__CUTTHROUGH_OUTSIDE
6
BYLAYER
62
256
10
40217.9156543
20
27338.4136751
30
0
0
VERTEX
5
1DA
8
6__CUTTHROUGH_OUTSIDE
6
BYLAYER
62
256
10
40215.0621009
20
27335.5601217
30
0
0
VERTEX
5
1DB
8
6__CUTTHROUGH_OUTSIDE
6
BYLAYER
62
256
10
40194.9156543
20
27335.5601217
30
0
0
VERTEX
5
1DC
8
6__CUTTHROUGH_OUTSIDE
6
BYLAYER
62
256
10
40194.9156543
20
27325.0601217
30
0
0
VERTEX
5
1DD
8
6__CUTTHROUGH_OUTSIDE
6
BYLAYER
62
256
10
40199.9156543
20
27325.0601217
30
0
0
VERTEX
5
1DE
8
6__CUTTHROUGH_OUTSIDE
6
BYLAYER
62
256
10
40199.9156543
20
27121.5601217
30
0
0
VERTEX
5
1DF
8
6__CUTTHROUGH_OUTSIDE
6
BYLAYER
62
256
10
40194.9156543
20
27121.5601217
30
0
0
VERTEX
5
1E0
8
6__CUTTHROUGH_OUTSIDE
6
BYLAYER
62
256
10
40194.9156543
20
27111.0601217
30
0
0
VERTEX
5
1E1
8
6__CUTTHROUGH_OUTSIDE
6
BYLAYER
62
256
10
40215.0621009
20
27111.0601217
30
0
0
VERTEX
5
1E2
8
6__CUTTHROUGH_OUTSIDE
6
BYLAYER
62
256
10
40217.9156543
20
27108.2065683
30
0
0
VERTEX
5
1E3
8
6__CUTTHROUGH_OUTSIDE
6
BYLAYER
62
256
10
40217.9156543
20
27088.4136751
30
0
0
VERTEX
5
1E4
8
6__CUTTHROUGH_OUTSIDE
6
BYLAYER
62
256
10
40215.0621009
20
27085.5601217
30
0
0
VERTEX
5
1E5
8
6__CUTTHROUGH_OUTSIDE
6
BYLAYER
62
256
10
40199.9156543
20
27085.5601217
30
0
0
VERTEX
5
1E6
8
6__CUTTHROUGH_OUTSIDE
6
BYLAYER
62
256
10
40199.9156543
20
27073.5601217
30
0
0
VERTEX
5
1E7
8
6__CUTTHROUGH_OUTSIDE
6
BYLAYER
62
256
10
40150.4156543
20
27073.5601217
30
0
0
VERTEX
5
1E8
8
6__CUTTHROUGH_OUTSIDE
6
BYLAYER
62
256
10
40150.4156543
20
27085.5601217
30
0
0
VERTEX
5
1E9
8
6__CUTTHROUGH_OUTSIDE
6
BYLAYER
62
256
10
40135.2692077
20
27085.5601217
30
0
0
VERTEX
5
1EA
8
6__CUTTHROUGH_OUTSIDE
6
BYLAYER
62
256
10
40132.4156543
20
27088.4136751
30
0
0
VERTEX
5
1EB
8
6__CUTTHROUGH_OUTSIDE
6
BYLAYER
62
256
10
40132.4156543
20
27108.2065683
30
0
0
VERTEX
5
1EC
8
6__CUTTHROUGH_OUTSIDE
6
BYLAYER
62
256
10
40135.2692077
20
27111.0601217
30
0
0
VERTEX
5
1ED
8
6__CUTTHROUGH_OUTSIDE
6
BYLAYER
62
256
10
40155.4156543
20
27111.0601217
30
0
0
VERTEX
5
1EE
8
6__CUTTHROUGH_OUTSIDE
6
BYLAYER
62
256
10
40155.4156543
20
27121.5601217
30
0
0
VERTEX
5
1EF
8
6__CUTTHROUGH_OUTSIDE
6
BYLAYER
62
256
10
40150.4156543
20
27121.5601217
30
0
0
VERTEX
5
1F0
8
6__CUTTHROUGH_OUTSIDE
6
BYLAYER
62
256
10
40150.4156543
20
27325.0601217
30
0
0
VERTEX
5
1F1
8
6__CUTTHROUGH_OUTSIDE
6
BYLAYER
62
256
10
40155.4156543
20
27325.0601217
30
0
0
VERTEX
5
1F2
8
6__CUTTHROUGH_OUTSIDE
6
BYLAYER
62
256
10
40155.4156543
20
27335.5601217
30
0
0
VERTEX
5
1F3
8
6__CUTTHROUGH_OUTSIDE
6
BYLAYER
62
256
10
40135.2692077
20
27335.5601217
30
0
0
VERTEX
5
1F4
8
6__CUTTHROUGH_OUTSIDE
6
BYLAYER
62
256
10
40132.4156543
20
27338.4136751
30
0
0
VERTEX
5
1F5
8
6__CUTTHROUGH_OUTSIDE
6
BYLAYER
62
256
10
40132.4156543
20
27358.2065683
30
0
0
VERTEX
5
1F6
8
6__CUTTHROUGH_OUTSIDE
6
BYLAYER
62
256
10
40135.2692077
20
27361.0601217
30
0
0
VERTEX
5
1F7
8
6__CUTTHROUGH_OUTSIDE
6
BYLAYER
62
256
10
40155.4156543
20
27361.0601217
30
0
0
VERTEX
5
1F8
8
6__CUTTHROUGH_OUTSIDE
6
BYLAYER
62
256
10
40155.4156543
20
27371.5601217
30
0
0
VERTEX
5
1F9
8
6__CUTTHROUGH_OUTSIDE
6
BYLAYER
62
256
10
40150.4156543
20
27371.5601217
30
0
0
SEQEND
5
1FA
8
6__CUTTHROUGH_OUTSIDE
6
BYLAYER
62
256
0
POLYLINE
5
1FB
8
3_6MMTOOL_CUTTHROUGH_INSIDE
6
BYLAYER
62
256
66
1
10
0
20
0
30
0
70
1
0
VERTEX
5
1FC
8
3_6MMTOOL_CUTTHROUGH_INSIDE
6
BYLAYER
62
256
10
39148.7939196
20
28298.4912742
30
0
0
VERTEX
5
1FD
8
3_6MMTOOL_CUTTHROUGH_INSIDE
6
BYLAYER
62
256
10
39118.7939196
20
28298.4912742
30
0
0
VERTEX
5
1FE
8
3_6MMTOOL_CUTTHROUGH_INSIDE
6
BYLAYER
62
256
10
39118.7939196
20
28310.4912742
30
0
0
VERTEX
5
1FF
8
3_6MMTOOL_CUTTHROUGH_INSIDE
6
BYLAYER
62
256
10
39123.7939196
20
28310.4912742
30
0
0
VERTEX
5
200
8
3_6MMTOOL_CUTTHROUGH_INSIDE
6
BYLAYER
62
256
10
39123.7939196
20
28388.4912742
30
0
0
VERTEX
5
201
8
3_6MMTOOL_CUTTHROUGH_INSIDE
6
BYLAYER
62
256
10
39118.7939196
20
28388.4912742
30
0
0
VERTEX
5
202
8
3_6MMTOOL_CUTTHROUGH_INSIDE
6
BYLAYER
62
256
10
39118.7939196
20
28400.4912742
30
0
0
VERTEX
5
203
8
3_6MMTOOL_CUTTHROUGH_INSIDE
6
BYLAYER
62
256
10
39148.7939196
20
28400.4912742
30
0
0
VERTEX
5
204
8
3_6MMTOOL_CUTTHROUGH_INSIDE
6
BYLAYER
62
256
10
39148.7939196
20
28388.4912742
30
0
0
VERTEX
5
205
8
3_6MMTOOL_CUTTHROUGH_INSIDE
6
BYLAYER
62
256
10
39143.7939196
20
28388.4912742
30
0
0
VERTEX
5
206
8
3_6MMTOOL_CUTTHROUGH_INSIDE
6
BYLAYER
62
256
10
39143.7939196
20
28310.4912742
30
0
0
VERTEX
5
207
8
3_6MMTOOL_CUTTHROUGH_INSIDE
6
BYLAYER
62
256
10
39148.7939196
20
28310.4912742
30
0
0
SEQEND
5
208
8
3_6MMTOOL_CUTTHROUGH_INSIDE
6
BYLAYER
62
256
0
POLYLINE
5
209
8
3_6MMTOOL_CUTTHROUGH_INSIDE
6
BYLAYER
62
256
66
1
10
0
20
0
30
0
70
1
0
VERTEX
5
20A
8
3_6MMTOOL_CUTTHROUGH_INSIDE
6
BYLAYER
62
256
10
39560.7939196
20
28298.4912742
30
0
0
VERTEX
5
20B
8
3_6MMTOOL_CUTTHROUGH_INSIDE
6
BYLAYER
62
256
10
39530.7939196
20
28298.4912742
30
0
0
VERTEX
5
20C
8
3_6MMTOOL_CUTTHROUGH_INSIDE
6
BYLAYER
62
256
10
39530.7939196
20
28310.4912742
30
0
0
VERTEX
5
20D
8
3_6MMTOOL_CUTTHROUGH_INSIDE
6
BYLAYER
62
256
10
39535.7939196
20
28310.4912742
30
0
0
VERTEX
5
20E
8
3_6MMTOOL_CUTTHROUGH_INSIDE
6
BYLAYER
62
256
10
39535.7939196
20
28388.4912742
30
0
0
VERTEX
5
20F
8
3_6MMTOOL_CUTTHROUGH_INSIDE
6
BYLAYER
62
256
10
39530.7939196
20
28388.4912742
30
0
0
VERTEX
5
210
8
3_6MMTOOL_CUTTHROUGH_INSIDE
6
BYLAYER
62
256
10
39530.7939196
20
28400.4912742
30
0
0
VERTEX
5
211
8
3_6MMTOOL_CUTTHROUGH_INSIDE
6
BYLAYER
62
256
10
39560.7939196
20
28400.4912742
30
0
0
VERTEX
5
212
8
3_6MMTOOL_CUTTHROUGH_INSIDE
6
BYLAYER
62
256
10
39560.7939196
20
28388.4912742
30
0
0
VERTEX
5
213
8
3_6MMTOOL_CUTTHROUGH_INSIDE
6
BYLAYER
62
256
10
39555.7939196
20
28388.4912742
30
0
0
VERTEX
5
214
8
3_6MMTOOL_CUTTHROUGH_INSIDE
6
BYLAYER
62
256
10
39555.7939196
20
28310.4912742
30
0
0
VERTEX
5
215
8
3_6MMTOOL_CUTTHROUGH_INSIDE
6
BYLAYER
62
256
10
39560.7939196
20
28310.4912742
30
0
0
SEQEND
5
216
8
3_6MMTOOL_CUTTHROUGH_INSIDE
6
BYLAYER
62
256
0
POLYLINE
5
217
8
3_6MMTOOL_CUTTHROUGH_INSIDE
6
BYLAYER
62
256
66
1
10
0
20
0
30
0
70
1
0
VERTEX
5
218
8
3_6MMTOOL_CUTTHROUGH_INSIDE
6
BYLAYER
62
256
10
39859.1656543
20
28409.2619766
30
0
0
VERTEX
5
219
8
3_6MMTOOL_CUTTHROUGH_INSIDE
6
BYLAYER
62
256
10
39847.1656543
20
28409.2619766
30
0
0
VERTEX
5
21A
8
3_6MMTOOL_CUTTHROUGH_INSIDE
6
BYLAYER
62
256
10
39847.1656543
20
28414.2619766
30
0
0
VERTEX
5
21B
8
3_6MMTOOL_CUTTHROUGH_INSIDE
6
BYLAYER
62
256
10
39739.1656543
20
28414.2619766
30
0
0
VERTEX
5
21C
8
3_6MMTOOL_CUTTHROUGH_INSIDE
6
BYLAYER
62
256
10
39739.1656543
20
28409.2619766
30
0
0
VERTEX
5
21D
8
3_6MMTOOL_CUTTHROUGH_INSIDE
6
BYLAYER
62
256
10
39727.1656543
20
28409.2619766
30
0
0
VERTEX
5
21E
8
3_6MMTOOL_CUTTHROUGH_INSIDE
6
BYLAYER
62
256
10
39727.1656543
20
28439.2619766
30
0
0
VERTEX
5
21F
8
3_6MMTOOL_CUTTHROUGH_INSIDE
6
BYLAYER
62
256
10
39739.1656543
20
28439.2619766
30
0
0
VERTEX
5
220
8
3_6MMTOOL_CUTTHROUGH_INSIDE
6
BYLAYER
62
256
10
39739.1656543
20
28434.2619766
30
0
0
VERTEX
5
221
8
3_6MMTOOL_CUTTHROUGH_INSIDE
6
BYLAYER
62
256
10
39847.1656543
20
28434.2619766
30
0
0
VERTEX
5
222
8
3_6MMTOOL_CUTTHROUGH_INSIDE
6
BYLAYER
62
256
10
39847.1656543
20
28439.2619766
30
0
0
VERTEX
5
223
8
3_6MMTOOL_CUTTHROUGH_INSIDE
6
BYLAYER
62
256
10
39859.1656543
20
28439.2619766
30
0
0
SEQEND
5
224
8
3_6MMTOOL_CUTTHROUGH_INSIDE
6
BYLAYER
62
256
0
POLYLINE
5
225
8
3_6MMTOOL_CUTTHROUGH_INSIDE
6
BYLAYER
62
256
66
1
10
0
20
0
30
0
70
1
0
VERTEX
5
226
8
3_6MMTOOL_CUTTHROUGH_INSIDE
6
BYLAYER
62
256
10
39752.1656543
20
28315.2619766
30
0
0
VERTEX
5
227
8
3_6MMTOOL_CUTTHROUGH_INSIDE
6
BYLAYER
62
256
10
39722.1656543
20
28315.2619766
30
0
0
VERTEX
5
228
8
3_6MMTOOL_CUTTHROUGH_INSIDE
6
BYLAYER
62
256
10
39722.1656543
20
28327.2619766
30
0
0
VERTEX
5
229
8
3_6MMTOOL_CUTTHROUGH_INSIDE
6
BYLAYER
62
256
10
39727.1656543
20
28327.2619766
30
0
0
VERTEX
5
22A
8
3_6MMTOOL_CUTTHROUGH_INSIDE
6
BYLAYER
62
256
10
39727.1656543
20
28371.2619766
30
0
0
VERTEX
5
22B
8
3_6MMTOOL_CUTTHROUGH_INSIDE
6
BYLAYER
62
256
10
39739.1656543
20
28371.2619766
30
0
0
VERTEX
5
22C
8
3_6MMTOOL_CUTTHROUGH_INSIDE
6
BYLAYER
62
256
10
39739.1656543
20
28366.2619766
30
0
0
VERTEX
5
22D
8
3_6MMTOOL_CUTTHROUGH_INSIDE
6
BYLAYER
62
256
10
39847.1656543
20
28366.2619766
30
0
0
VERTEX
5
22E
8
3_6MMTOOL_CUTTHROUGH_INSIDE
6
BYLAYER
62
256
10
39847.1656543
20
28371.2619766
30
0
0
VERTEX
5
22F
8
3_6MMTOOL_CUTTHROUGH_INSIDE
6
BYLAYER
62
256
10
39859.1656543
20
28371.2619766
30
0
0
VERTEX
5
230
8
3_6MMTOOL_CUTTHROUGH_INSIDE
6
BYLAYER
62
256
10
39859.1656543
20
28341.2619766
30
0
0
VERTEX
5
231
8
3_6MMTOOL_CUTTHROUGH_INSIDE
6
BYLAYER
62
256
10
39847.1656543
20
28341.2619766
30
0
0
VERTEX
5
232
8
3_6MMTOOL_CUTTHROUGH_INSIDE
6
BYLAYER
62
256
10
39847.1656543
20
28346.2619766
30
0
0
VERTEX
5
233
8
3_6MMTOOL_CUTTHROUGH_INSIDE
6
BYLAYER
62
256
10
39747.1656543
20
28346.2619766
30
0
0
VERTEX
5
234
8
3_6MMTOOL_CUTTHROUGH_INSIDE
6
BYLAYER
62
256
10
39747.1656543
20
28327.2619766
30
0
0
VERTEX
5
235
8
3_6MMTOOL_CUTTHROUGH_INSIDE
6
BYLAYER
62
256
10
39752.1656543
20
28327.2619766
30
0
0
SEQEND
5
236
8
3_6MMTOOL_CUTTHROUGH_INSIDE
6
BYLAYER
62
256
0
POLYLINE
5
237
8
3_6MMTOOL_CUTTHROUGH_INSIDE
6
BYLAYER
62
256
66
1
10
0
20
0
30
0
70
1
0
VERTEX
5
238
8
3_6MMTOOL_CUTTHROUGH_INSIDE
6
BYLAYER
62
256
10
40027.1656543
20
28409.2619766
30
0
0
VERTEX
5
239
8
3_6MMTOOL_CUTTHROUGH_INSIDE
6
BYLAYER
62
256
10
40027.1656543
20
28439.2619766
30
0
0
VERTEX
5
23A
8
3_6MMTOOL_CUTTHROUGH_INSIDE
6
BYLAYER
62
256
10
40039.1656543
20
28439.2619766
30
0
0
VERTEX
5
23B
8
3_6MMTOOL_CUTTHROUGH_INSIDE
6
BYLAYER
62
256
10
40039.1656543
20
28434.2619766
30
0
0
VERTEX
5
23C
8
3_6MMTOOL_CUTTHROUGH_INSIDE
6
BYLAYER
62
256
10
40147.1656543
20
28434.2619766
30
0
0
VERTEX
5
23D
8
3_6MMTOOL_CUTTHROUGH_INSIDE
6
BYLAYER
62
256
10
40147.1656543
20
28439.2619766
30
0
0
VERTEX
5
23E
8
3_6MMTOOL_CUTTHROUGH_INSIDE
6
BYLAYER
62
256
10
40159.1656543
20
28439.2619766
30
0
0
VERTEX
5
23F
8
3_6MMTOOL_CUTTHROUGH_INSIDE
6
BYLAYER
62
256
10
40159.1656543
20
28409.2619766
30
0
0
VERTEX
5
240
8
3_6MMTOOL_CUTTHROUGH_INSIDE
6
BYLAYER
62
256
10
40147.1656543
20
28409.2619766
30
0
0
VERTEX
5
241
8
3_6MMTOOL_CUTTHROUGH_INSIDE
6
BYLAYER
62
256
10
40147.1656543
20
28414.2619766
30
0
0
VERTEX
5
242
8
3_6MMTOOL_CUTTHROUGH_INSIDE
6
BYLAYER
62
256
10
40039.1656543
20
28414.2619766
30
0
0
VERTEX
5
243
8
3_6MMTOOL_CUTTHROUGH_INSIDE
6
BYLAYER
62
256
10
40039.1656543
20
28409.2619766
30
0
0
SEQEND
5
244
8
3_6MMTOOL_CUTTHROUGH_INSIDE
6
BYLAYER
62
256
0
POLYLINE
5
245
8
3_6MMTOOL_CUTTHROUGH_INSIDE
6
BYLAYER
62
256
66
1
10
0
20
0
30
0
70
1
0
VERTEX
5
246
8
3_6MMTOOL_CUTTHROUGH_INSIDE
6
BYLAYER
62
256
10
40134.1656543
20
28315.2619766
30
0
0
VERTEX
5
247
8
3_6MMTOOL_CUTTHROUGH_INSIDE
6
BYLAYER
62
256
10
40134.1656543
20
28327.2619766
30
0
0
VERTEX
5
248
8
3_6MMTOOL_CUTTHROUGH_INSIDE
6
BYLAYER
62
256
10
40139.1656543
20
28327.2619766
30
0
0
VERTEX
5
249
8
3_6MMTOOL_CUTTHROUGH_INSIDE
6
BYLAYER
62
256
10
40139.1656543
20
28346.2619766
30
0
0
VERTEX
5
24A
8
3_6MMTOOL_CUTTHROUGH_INSIDE
6
BYLAYER
62
256
10
40039.1656543
20
28346.2619766
30
0
0
VERTEX
5
24B
8
3_6MMTOOL_CUTTHROUGH_INSIDE
6
BYLAYER
62
256
10
40039.1656543
20
28341.2619766
30
0
0
VERTEX
5
24C
8
3_6MMTOOL_CUTTHROUGH_INSIDE
6
BYLAYER
62
256
10
40027.1656543
20
28341.2619766
30
0
0
VERTEX
5
24D
8
3_6MMTOOL_CUTTHROUGH_INSIDE
6
BYLAYER
62
256
10
40027.1656543
20
28371.2619766
30
0
0
VERTEX
5
24E
8
3_6MMTOOL_CUTTHROUGH_INSIDE
6
BYLAYER
62
256
10
40039.1656543
20
28371.2619766
30
0
0
VERTEX
5
24F
8
3_6MMTOOL_CUTTHROUGH_INSIDE
6
BYLAYER
62
256
10
40039.1656543
20
28366.2619766
30
0
0
VERTEX
5
250
8
3_6MMTOOL_CUTTHROUGH_INSIDE
6
BYLAYER
62
256
10
40147.1656543
20
28366.2619766
30
0
0
VERTEX
5
251
8
3_6MMTOOL_CUTTHROUGH_INSIDE
6
BYLAYER
62
256
10
40147.1656543
20
28371.2619766
30
0
0
VERTEX
5
252
8
3_6MMTOOL_CUTTHROUGH_INSIDE
6
BYLAYER
62
256
10
40159.1656543
20
28371.2619766
30
0
0
VERTEX
5
253
8
3_6MMTOOL_CUTTHROUGH_INSIDE
6
BYLAYER
62
256
10
40159.1656543
20
28327.2619766
30
0
0
VERTEX
5
254
8
3_6MMTOOL_CUTTHROUGH_INSIDE
6
BYLAYER
62
256
10
40164.1656543
20
28327.2619766
30
0
0
VERTEX
5
255
8
3_6MMTOOL_CUTTHROUGH_INSIDE
6
BYLAYER
62
256
10
40164.1656543
20
28315.2619766
30
0
0
SEQEND
5
256
8
3_6MMTOOL_CUTTHROUGH_INSIDE
6
BYLAYER
62
256
0
POLYLINE
5
257
8
3_6MMTOOL_CUTTHROUGH_INSIDE
6
BYLAYER
62
256
66
1
10
0
20
0
30
0
70
1
0
VERTEX
5
258
8
3_6MMTOOL_CUTTHROUGH_INSIDE
6
BYLAYER
62
256
10
40057.1656543
20
28127.8366618
30
0
0
VERTEX
5
259
8
3_6MMTOOL_CUTTHROUGH_INSIDE
6
BYLAYER
62
256
10
40057.1656543
20
28157.8366618
30
0
0
VERTEX
5
25A
8
3_6MMTOOL_CUTTHROUGH_INSIDE
6
BYLAYER
62
256
10
40069.1656543
20
28157.8366618
30
0
0
VERTEX
5
25B
8
3_6MMTOOL_CUTTHROUGH_INSIDE
6
BYLAYER
62
256
10
40069.1656543
20
28152.8366618
30
0
0
VERTEX
5
25C
8
3_6MMTOOL_CUTTHROUGH_INSIDE
6
BYLAYER
62
256
10
40127.1656543
20
28152.8366618
30
0
0
VERTEX
5
25D
8
3_6MMTOOL_CUTTHROUGH_INSIDE
6
BYLAYER
62
256
10
40127.1656543
20
28157.8366618
30
0
0
VERTEX
5
25E
8
3_6MMTOOL_CUTTHROUGH_INSIDE
6
BYLAYER
62
256
10
40139.1656543
20
28157.8366618
30
0
0
VERTEX
5
25F
8
3_6MMTOOL_CUTTHROUGH_INSIDE
6
BYLAYER
62
256
10
40139.1656543
20
28127.8366618
30
0
0
VERTEX
5
260
8
3_6MMTOOL_CUTTHROUGH_INSIDE
6
BYLAYER
62
256
10
40127.1656543
20
28127.8366618
30
0
0
VERTEX
5
261
8
3_6MMTOOL_CUTTHROUGH_INSIDE
6
BYLAYER
62
256
10
40127.1656543
20
28132.8366618
30
0
0
VERTEX
5
262
8
3_6MMTOOL_CUTTHROUGH_INSIDE
6
BYLAYER
62
256
10
40069.1656543
20
28132.8366618
30
0
0
VERTEX
5
263
8
3_6MMTOOL_CUTTHROUGH_INSIDE
6
BYLAYER
62
256
10
40069.1656543
20
28127.8366618
30
0
0
SEQEND
5
264
8
3_6MMTOOL_CUTTHROUGH_INSIDE
6
BYLAYER
62
256
0
POLYLINE
5
265
8
3_6MMTOOL_CUTTHROUGH_INSIDE
6
BYLAYER
62
256
66
1
10
0
20
0
30
0
70
1
0
VERTEX
5
266
8
3_6MMTOOL_CUTTHROUGH_INSIDE
6
BYLAYER
62
256
10
40057.1656543
20
27715.8366618
30
0
0
VERTEX
5
267
8
3_6MMTOOL_CUTTHROUGH_INSIDE
6
BYLAYER
62
256
10
40057.1656543
20
27745.8366618
30
0
0
VERTEX
5
268
8
3_6MMTOOL_CUTTHROUGH_INSIDE
6
BYLAYER
62
256
10
40069.1656543
20
27745.8366618
30
0
0
VERTEX
5
269
8
3_6MMTOOL_CUTTHROUGH_INSIDE
6
BYLAYER
62
256
10
40069.1656543
20
27740.8366618
30
0
0
VERTEX
5
26A
8
3_6MMTOOL_CUTTHROUGH_INSIDE
6
BYLAYER
62
256
10
40127.1656543
20
27740.8366618
30
0
0
VERTEX
5
26B
8
3_6MMTOOL_CUTTHROUGH_INSIDE
6
BYLAYER
62
256
10
40127.1656543
20
27745.8366618
30
0
0
VERTEX
5
26C
8
3_6MMTOOL_CUTTHROUGH_INSIDE
6
BYLAYER
62
256
10
40139.1656543
20
27745.8366618
30
0
0
VERTEX
5
26D
8
3_6MMTOOL_CUTTHROUGH_INSIDE
6
BYLAYER
62
256
10
40139.1656543
20
27715.8366618
30
0
0
VERTEX
5
26E
8
3_6MMTOOL_CUTTHROUGH_INSIDE
6
BYLAYER
62
256
10
40127.1656543
20
27715.8366618
30
0
0
VERTEX
5
26F
8
3_6MMTOOL_CUTTHROUGH_INSIDE
6
BYLAYER
62
256
10
40127.1656543
20
27720.8366618
30
0
0
VERTEX
5
270
8
3_6MMTOOL_CUTTHROUGH_INSIDE
6
BYLAYER
62
256
10
40069.1656543
20
27720.8366618
30
0
0
VERTEX
5
271
8
3_6MMTOOL_CUTTHROUGH_INSIDE
6
BYLAYER
62
256
10
40069.1656543
20
27715.8366618
30
0
0
SEQEND
5
272
8
3_6MMTOOL_CUTTHROUGH_INSIDE
6
BYLAYER
62
256
0
POLYLINE
5
273
8
3_6MMTOOL_CUTTHROUGH_INSIDE
6
BYLAYER
62
256
66
1
10
0
20
0
30
0
70
1
0
VERTEX
5
274
8
3_6MMTOOL_CUTTHROUGH_INSIDE
6
BYLAYER
62
256
10
39770.6792138
20
27755.6912783
30
0
0
VERTEX
5
275
8
3_6MMTOOL_CUTTHROUGH_INSIDE
6
BYLAYER
62
256
10
39740.6792138
20
27755.6912783
30
0
0
VERTEX
5
276
8
3_6MMTOOL_CUTTHROUGH_INSIDE
6
BYLAYER
62
256
10
39740.6792138
20
27767.6912783
30
0
0
VERTEX
5
277
8
3_6MMTOOL_CUTTHROUGH_INSIDE
6
BYLAYER
62
256
10
39745.6792138
20
27767.6912783
30
0
0
VERTEX
5
278
8
3_6MMTOOL_CUTTHROUGH_INSIDE
6
BYLAYER
62
256
10
39745.6792138
20
27845.6912783
30
0
0
VERTEX
5
279
8
3_6MMTOOL_CUTTHROUGH_INSIDE
6
BYLAYER
62
256
10
39740.6792138
20
27845.6912783
30
0
0
VERTEX
5
27A
8
3_6MMTOOL_CUTTHROUGH_INSIDE
6
BYLAYER
62
256
10
39740.6792138
20
27857.6912783
30
0
0
VERTEX
5
27B
8
3_6MMTOOL_CUTTHROUGH_INSIDE
6
BYLAYER
62
256
10
39770.6792138
20
27857.6912783
30
0
0
VERTEX
5
27C
8
3_6MMTOOL_CUTTHROUGH_INSIDE
6
BYLAYER
62
256
10
39770.6792138
20
27845.6912783
30
0
0
VERTEX
5
27D
8
3_6MMTOOL_CUTTHROUGH_INSIDE
6
BYLAYER
62
256
10
39765.6792138
20
27845.6912783
30
0
0
VERTEX
5
27E
8
3_6MMTOOL_CUTTHROUGH_INSIDE
6
BYLAYER
62
256
10
39765.6792138
20
27767.6912783
30
0
0
VERTEX
5
27F
8
3_6MMTOOL_CUTTHROUGH_INSIDE
6
BYLAYER
62
256
10
39770.6792138
20
27767.6912783
30
0
0
SEQEND
5
280
8
3_6MMTOOL_CUTTHROUGH_INSIDE
6
BYLAYER
62
256
0
POLYLINE
5
281
8
3_6MMTOOL_CUTTHROUGH_INSIDE
6
BYLAYER
62
256
66
1
10
0
20
0
30
0
70
1
0
VERTEX
5
282
8
3_6MMTOOL_CUTTHROUGH_INSIDE
6
BYLAYER
62
256
10
39358.6792138
20
27755.6912783
30
0
0
VERTEX
5
283
8
3_6MMTOOL_CUTTHROUGH_INSIDE
6
BYLAYER
62
256
10
39328.6792138
20
27755.6912783
30
0
0
VERTEX
5
284
8
3_6MMTOOL_CUTTHROUGH_INSIDE
6
BYLAYER
62
256
10
39328.6792138
20
27767.6912783
30
0
0
VERTEX
5
285
8
3_6MMTOOL_CUTTHROUGH_INSIDE
6
BYLAYER
62
256
10
39333.6792138
20
27767.6912783
30
0
0
VERTEX
5
286
8
3_6MMTOOL_CUTTHROUGH_INSIDE
6
BYLAYER
62
256
10
39333.6792138
20
27845.6912783
30
0
0
VERTEX
5
287
8
3_6MMTOOL_CUTTHROUGH_INSIDE
6
BYLAYER
62
256
10
39328.6792138
20
27845.6912783
30
0
0
VERTEX
5
288
8
3_6MMTOOL_CUTTHROUGH_INSIDE
6
BYLAYER
62
256
10
39328.6792138
20
27857.6912783
30
0
0
VERTEX
5
289
8
3_6MMTOOL_CUTTHROUGH_INSIDE
6
BYLAYER
62
256
10
39358.6792138
20
27857.6912783
30
0
0
VERTEX
5
28A
8
3_6MMTOOL_CUTTHROUGH_INSIDE
6
BYLAYER
62
256
10
39358.6792138
20
27845.6912783
30
0
0
VERTEX
5
28B
8
3_6MMTOOL_CUTTHROUGH_INSIDE
6
BYLAYER
62
256
10
39353.6792138
20
27845.6912783
30
0
0
VERTEX
5
28C
8
3_6MMTOOL_CUTTHROUGH_INSIDE
6
BYLAYER
62
256
10
39353.6792138
20
27767.6912783
30
0
0
VERTEX
5
28D
8
3_6MMTOOL_CUTTHROUGH_INSIDE
6
BYLAYER
62
256
10
39358.6792138
20
27767.6912783
30
0
0
SEQEND
5
28E
8
3_6MMTOOL_CUTTHROUGH_INSIDE
6
BYLAYER
62
256
0
POLYLINE
5
28F
8
3_6MMTOOL_CUTTHROUGH_INSIDE
6
BYLAYER
62
256
66
1
10
0
20
0
30
0
70
1
0
VERTEX
5
290
8
3_6MMTOOL_CUTTHROUGH_INSIDE
6
BYLAYER
62
256
10
39462.4580671
20
27183.177498
30
0
0
VERTEX
5
291
8
3_6MMTOOL_CUTTHROUGH_INSIDE
6
BYLAYER
62
256
10
39462.4580671
20
27171.177498
30
0
0
VERTEX
5
292
8
3_6MMTOOL_CUTTHROUGH_INSIDE
6
BYLAYER
62
256
10
39457.4580671
20
27171.177498
30
0
0
VERTEX
5
293
8
3_6MMTOOL_CUTTHROUGH_INSIDE
6
BYLAYER
62
256
10
39457.4580671
20
27127.177498
30
0
0
VERTEX
5
294
8
3_6MMTOOL_CUTTHROUGH_INSIDE
6
BYLAYER
62
256
10
39462.4580671
20
27127.177498
30
0
0
VERTEX
5
295
8
3_6MMTOOL_CUTTHROUGH_INSIDE
6
BYLAYER
62
256
10
39462.4580671
20
27115.177498
30
0
0
VERTEX
5
296
8
3_6MMTOOL_CUTTHROUGH_INSIDE
6
BYLAYER
62
256
10
39432.4580671
20
27115.177498
30
0
0
VERTEX
5
297
8
3_6MMTOOL_CUTTHROUGH_INSIDE
6
BYLAYER
62
256
10
39432.4580671
20
27127.177498
30
0
0
VERTEX
5
298
8
3_6MMTOOL_CUTTHROUGH_INSIDE
6
BYLAYER
62
256
10
39437.4580671
20
27127.177498
30
0
0
VERTEX
5
299
8
3_6MMTOOL_CUTTHROUGH_INSIDE
6
BYLAYER
62
256
10
39437.4580671
20
27171.177498
30
0
0
VERTEX
5
29A
8
3_6MMTOOL_CUTTHROUGH_INSIDE
6
BYLAYER
62
256
10
39432.4580671
20
27171.177498
30
0
0
VERTEX
5
29B
8
3_6MMTOOL_CUTTHROUGH_INSIDE
6
BYLAYER
62
256
10
39432.4580671
20
27183.177498
30
0
0
SEQEND
5
29C
8
3_6MMTOOL_CUTTHROUGH_INSIDE
6
BYLAYER
62
256
0
POLYLINE
5
29D
8
3_6MMTOOL_CUTTHROUGH_INSIDE
6
BYLAYER
62
256
66
1
10
0
20
0
30
0
70
1
0
VERTEX
5
29E
8
3_6MMTOOL_CUTTHROUGH_INSIDE
6
BYLAYER
62
256
10
39858.7671265
20
27269.9027099
30
0
0
VERTEX
5
29F
8
3_6MMTOOL_CUTTHROUGH_INSIDE
6
BYLAYER
62
256
10
39858.7671265
20
27239.9027099
30
0
0
VERTEX
5
2A0
8
3_6MMTOOL_CUTTHROUGH_INSIDE
6
BYLAYER
62
256
10
39846.7671265
20
27239.9027099
30
0
0
VERTEX
5
2A1
8
3_6MMTOOL_CUTTHROUGH_INSIDE
6
BYLAYER
62
256
10
39846.7671265
20
27244.9027099
30
0
0
VERTEX
5
2A2
8
3_6MMTOOL_CUTTHROUGH_INSIDE
6
BYLAYER
62
256
10
39802.7671266
20
27244.9027099
30
0
0
VERTEX
5
2A3
8
3_6MMTOOL_CUTTHROUGH_INSIDE
6
BYLAYER
62
256
10
39802.7671266
20
27239.9027099
30
0
0
VERTEX
5
2A4
8
3_6MMTOOL_CUTTHROUGH_INSIDE
6
BYLAYER
62
256
10
39790.7671266
20
27239.9027099
30
0
0
VERTEX
5
2A5
8
3_6MMTOOL_CUTTHROUGH_INSIDE
6
BYLAYER
62
256
10
39790.7671266
20
27269.9027099
30
0
0
VERTEX
5
2A6
8
3_6MMTOOL_CUTTHROUGH_INSIDE
6
BYLAYER
62
256
10
39802.7671266
20
27269.9027099
30
0
0
VERTEX
5
2A7
8
3_6MMTOOL_CUTTHROUGH_INSIDE
6
BYLAYER
62
256
10
39802.7671266
20
27264.9027099
30
0
0
VERTEX
5
2A8
8
3_6MMTOOL_CUTTHROUGH_INSIDE
6
BYLAYER
62
256
10
39846.7671265
20
27264.9027099
30
0
0
VERTEX
5
2A9
8
3_6MMTOOL_CUTTHROUGH_INSIDE
6
BYLAYER
62
256
10
39846.7671265
20
27269.9027099
30
0
0
SEQEND
5
2AA
8
3_6MMTOOL_CUTTHROUGH_INSIDE
6
BYLAYER
62
256
0
ENDSEC
0
EOF
